<svg xmlns="http://www.w3.org/2000/svg" viewBox="0 0 280 360" width="280" height="360" shape-rendering="crispEdges" preserveAspectRatio="xMidYMid slice"><rect width="280" height="360" fill="#e11122"/><rect x="90" y="0" width="10" height="10" fill="#c80f1e"/><rect x="100" y="0" width="10" height="10" fill="#ee2233"/><rect x="110" y="0" width="10" height="10" fill="#b10d1b"/><rect x="130" y="0" width="10" height="10" fill="#b10d1b"/><rect x="160" y="0" width="10" height="10" fill="#ab0d1a"/><rect x="190" y="0" width="10" height="10" fill="#a90d1a"/><rect x="220" y="0" width="10" height="10" fill="#bf0e1d"/><rect x="240" y="0" width="10" height="10" fill="#f46c77"/><rect x="250" y="0" width="10" height="10" fill="#f03a49"/><rect x="260" y="0" width="10" height="10" fill="#ae0d1a"/><rect x="270" y="0" width="10" height="10" fill="#ef3141"/><rect x="10" y="10" width="10" height="10" fill="#f4737e"/><rect x="30" y="10" width="10" height="10" fill="#ee1e2f"/><rect x="50" y="10" width="10" height="10" fill="#ef2738"/><rect x="70" y="10" width="10" height="10" fill="#c50f1e"/><rect x="110" y="10" width="10" height="10" fill="#f36571"/><rect x="130" y="10" width="10" height="10" fill="#f46773"/><rect x="140" y="10" width="10" height="10" fill="#ef2737"/><rect x="170" y="10" width="10" height="10" fill="#ee1f30"/><rect x="180" y="10" width="10" height="10" fill="#8e0b16"/><rect x="190" y="10" width="10" height="10" fill="#ef3140"/><rect x="240" y="10" width="10" height="10" fill="#6a0810"/><rect x="250" y="10" width="10" height="10" fill="#f03443"/><rect x="10" y="20" width="10" height="10" fill="#5d070e"/><rect x="30" y="20" width="10" height="10" fill="#f03847"/><rect x="40" y="20" width="10" height="10" fill="#f14b59"/><rect x="70" y="20" width="10" height="10" fill="#ee2031"/><rect x="80" y="20" width="10" height="10" fill="#f03746"/><rect x="100" y="20" width="10" height="10" fill="#bc0e1c"/><rect x="110" y="20" width="10" height="10" fill="#bd0e1d"/><rect x="140" y="20" width="10" height="10" fill="#ac0d1a"/><rect x="160" y="20" width="10" height="10" fill="#f03948"/><rect x="170" y="20" width="10" height="10" fill="#ef2536"/><rect x="190" y="20" width="10" height="10" fill="#f2525f"/><rect x="200" y="20" width="10" height="10" fill="#7b0913"/><rect x="210" y="20" width="10" height="10" fill="#f03544"/><rect x="220" y="20" width="10" height="10" fill="#ef3141"/><rect x="230" y="20" width="10" height="10" fill="#f36772"/><rect x="240" y="20" width="10" height="10" fill="#f46773"/><rect x="250" y="20" width="10" height="10" fill="#ee1f30"/><rect x="260" y="20" width="10" height="10" fill="#f25360"/><rect x="10" y="30" width="10" height="10" fill="#ef2a3a"/><rect x="20" y="30" width="10" height="10" fill="#f03948"/><rect x="30" y="30" width="10" height="10" fill="#60070e"/><rect x="40" y="30" width="10" height="10" fill="#bd0e1d"/><rect x="60" y="30" width="10" height="10" fill="#a80d19"/><rect x="80" y="30" width="10" height="10" fill="#f3636f"/><rect x="100" y="30" width="10" height="10" fill="#c70f1e"/><rect x="120" y="30" width="10" height="10" fill="#ee2031"/><rect x="130" y="30" width="10" height="10" fill="#ef2a3a"/><rect x="160" y="30" width="10" height="10" fill="#b30e1b"/><rect x="170" y="30" width="10" height="10" fill="#f03746"/><rect x="190" y="30" width="10" height="10" fill="#ee2132"/><rect x="200" y="30" width="10" height="10" fill="#f03443"/><rect x="210" y="30" width="10" height="10" fill="#f03847"/><rect x="220" y="30" width="10" height="10" fill="#65080f"/><rect x="230" y="30" width="10" height="10" fill="#6a0810"/><rect x="250" y="30" width="10" height="10" fill="#f46873"/><rect x="260" y="30" width="10" height="10" fill="#ee2233"/><rect x="270" y="30" width="10" height="10" fill="#ef2939"/><rect x="0" y="40" width="10" height="10" fill="#f03c4b"/><rect x="40" y="40" width="10" height="10" fill="#f03a48"/><rect x="90" y="40" width="10" height="10" fill="#ef2e3e"/><rect x="110" y="40" width="10" height="10" fill="#f46f7a"/><rect x="120" y="40" width="10" height="10" fill="#f24e5c"/><rect x="130" y="40" width="10" height="10" fill="#ef2536"/><rect x="150" y="40" width="10" height="10" fill="#f46773"/><rect x="170" y="40" width="10" height="10" fill="#ad0d1a"/><rect x="200" y="40" width="10" height="10" fill="#f3606c"/><rect x="230" y="40" width="10" height="10" fill="#f03a49"/><rect x="240" y="40" width="10" height="10" fill="#f24f5c"/><rect x="260" y="40" width="10" height="10" fill="#720911"/><rect x="270" y="40" width="10" height="10" fill="#f03544"/><rect x="20" y="50" width="10" height="10" fill="#f36671"/><rect x="50" y="50" width="10" height="10" fill="#b60e1b"/><rect x="60" y="50" width="10" height="10" fill="#b90e1c"/><rect x="70" y="50" width="10" height="10" fill="#be0e1d"/><rect x="110" y="50" width="10" height="10" fill="#5b070e"/><rect x="120" y="50" width="10" height="10" fill="#ee1f30"/><rect x="130" y="50" width="10" height="10" fill="#f46f79"/><rect x="140" y="50" width="10" height="10" fill="#f03e4c"/><rect x="150" y="50" width="10" height="10" fill="#b50e1b"/><rect x="170" y="50" width="10" height="10" fill="#ef2c3c"/><rect x="210" y="50" width="10" height="10" fill="#ef2a3a"/><rect x="220" y="50" width="10" height="10" fill="#58070d"/><rect x="250" y="50" width="10" height="10" fill="#ad0d1a"/><rect x="270" y="50" width="10" height="10" fill="#aa0d1a"/><rect x="20" y="60" width="10" height="10" fill="#f03a49"/><rect x="30" y="60" width="10" height="10" fill="#a90d19"/><rect x="70" y="60" width="10" height="10" fill="#810a14"/><rect x="110" y="60" width="10" height="10" fill="#f03342"/><rect x="150" y="60" width="10" height="10" fill="#ee1e2f"/><rect x="190" y="60" width="10" height="10" fill="#f5747f"/><rect x="200" y="60" width="10" height="10" fill="#f03241"/><rect x="220" y="60" width="10" height="10" fill="#ee1f30"/><rect x="240" y="60" width="10" height="10" fill="#ba0e1c"/><rect x="260" y="60" width="10" height="10" fill="#b40e1b"/><rect x="10" y="70" width="10" height="10" fill="#f25965"/><rect x="20" y="70" width="10" height="10" fill="#880a15"/><rect x="70" y="70" width="10" height="10" fill="#f03646"/><rect x="80" y="70" width="10" height="10" fill="#f24f5c"/><rect x="90" y="70" width="10" height="10" fill="#680810"/><rect x="110" y="70" width="10" height="10" fill="#f03241"/><rect x="160" y="70" width="10" height="10" fill="#f35a66"/><rect x="170" y="70" width="10" height="10" fill="#ef2c3c"/><rect x="240" y="70" width="10" height="10" fill="#bf0e1d"/><rect x="250" y="70" width="10" height="10" fill="#f03c4b"/><rect x="260" y="70" width="10" height="10" fill="#f4707b"/><rect x="0" y="80" width="10" height="10" fill="#ee1e2f"/><rect x="10" y="80" width="10" height="10" fill="#ef2e3e"/><rect x="30" y="80" width="10" height="10" fill="#f46c77"/><rect x="40" y="80" width="10" height="10" fill="#be0e1d"/><rect x="50" y="80" width="10" height="10" fill="#f03746"/><rect x="60" y="80" width="10" height="10" fill="#f35f6b"/><rect x="70" y="80" width="10" height="10" fill="#b70e1c"/><rect x="90" y="80" width="10" height="10" fill="#f3626e"/><rect x="110" y="80" width="10" height="10" fill="#f03a49"/><rect x="140" y="80" width="10" height="10" fill="#ee2233"/><rect x="150" y="80" width="10" height="10" fill="#b50e1b"/><rect x="180" y="80" width="10" height="10" fill="#810a13"/><rect x="190" y="80" width="10" height="10" fill="#ef2c3c"/><rect x="200" y="80" width="10" height="10" fill="#7c0913"/><rect x="230" y="80" width="10" height="10" fill="#f03646"/><rect x="240" y="80" width="10" height="10" fill="#f03b4a"/><rect x="260" y="80" width="10" height="10" fill="#f03948"/><rect x="270" y="80" width="10" height="10" fill="#f46e79"/><rect x="0" y="90" width="10" height="10" fill="#ef2b3b"/><rect x="10" y="90" width="10" height="10" fill="#f46b77"/><rect x="30" y="90" width="10" height="10" fill="#5b070e"/><rect x="40" y="90" width="10" height="10" fill="#56070d"/><rect x="50" y="90" width="10" height="10" fill="#7a0912"/><rect x="70" y="90" width="10" height="10" fill="#930b16"/><rect x="80" y="90" width="10" height="10" fill="#5e070e"/><rect x="100" y="90" width="10" height="10" fill="#ef2a3a"/><rect x="110" y="90" width="10" height="10" fill="#ab0d1a"/><rect x="120" y="90" width="10" height="10" fill="#ad0d1a"/><rect x="140" y="90" width="10" height="10" fill="#ef2d3d"/><rect x="150" y="90" width="10" height="10" fill="#f2525f"/><rect x="160" y="90" width="10" height="10" fill="#b30d1b"/><rect x="180" y="90" width="10" height="10" fill="#f4737e"/><rect x="210" y="90" width="10" height="10" fill="#ee2233"/><rect x="240" y="90" width="10" height="10" fill="#b90e1c"/><rect x="260" y="90" width="10" height="10" fill="#b70e1c"/><rect x="270" y="90" width="10" height="10" fill="#ef2636"/><rect x="0" y="100" width="10" height="10" fill="#ef2939"/><rect x="10" y="100" width="10" height="10" fill="#910b16"/><rect x="60" y="100" width="10" height="10" fill="#b70e1c"/><rect x="70" y="100" width="10" height="10" fill="#ee2334"/><rect x="80" y="100" width="10" height="10" fill="#f03746"/><rect x="130" y="100" width="10" height="10" fill="#b70e1c"/><rect x="210" y="100" width="10" height="10" fill="#ef2e3e"/><rect x="230" y="100" width="10" height="10" fill="#ef3140"/><rect x="240" y="100" width="10" height="10" fill="#730911"/><rect x="250" y="100" width="10" height="10" fill="#bf0e1d"/><rect x="260" y="100" width="10" height="10" fill="#b80e1c"/><rect x="270" y="100" width="10" height="10" fill="#f57680"/><rect x="10" y="110" width="10" height="10" fill="#f36672"/><rect x="20" y="110" width="10" height="10" fill="#f14a58"/><rect x="30" y="110" width="10" height="10" fill="#b10d1b"/><rect x="40" y="110" width="10" height="10" fill="#f25662"/><rect x="60" y="110" width="10" height="10" fill="#ef2939"/><rect x="70" y="110" width="10" height="10" fill="#f03948"/><rect x="90" y="110" width="10" height="10" fill="#5a070e"/><rect x="100" y="110" width="10" height="10" fill="#ad0d1a"/><rect x="120" y="110" width="10" height="10" fill="#f03c4a"/><rect x="140" y="110" width="10" height="10" fill="#ee2132"/><rect x="150" y="110" width="10" height="10" fill="#c20f1d"/><rect x="160" y="110" width="10" height="10" fill="#6d0810"/><rect x="180" y="110" width="10" height="10" fill="#ee2232"/><rect x="200" y="110" width="10" height="10" fill="#ee2031"/><rect x="210" y="110" width="10" height="10" fill="#b20d1b"/><rect x="220" y="110" width="10" height="10" fill="#ef2838"/><rect x="240" y="110" width="10" height="10" fill="#f03443"/><rect x="250" y="110" width="10" height="10" fill="#690810"/><rect x="260" y="110" width="10" height="10" fill="#ba0e1c"/><rect x="0" y="120" width="10" height="10" fill="#f03d4b"/><rect x="10" y="120" width="10" height="10" fill="#ee1f30"/><rect x="20" y="120" width="10" height="10" fill="#f03a49"/><rect x="40" y="120" width="10" height="10" fill="#ee2334"/><rect x="50" y="120" width="10" height="10" fill="#ef2f3f"/><rect x="60" y="120" width="10" height="10" fill="#b90e1c"/><rect x="90" y="120" width="10" height="10" fill="#f57781"/><rect x="100" y="120" width="10" height="10" fill="#ef2636"/><rect x="110" y="120" width="10" height="10" fill="#c10f1d"/><rect x="120" y="120" width="10" height="10" fill="#f24d5b"/><rect x="140" y="120" width="10" height="10" fill="#f14a58"/><rect x="150" y="120" width="10" height="10" fill="#b50e1b"/><rect x="160" y="120" width="10" height="10" fill="#c70f1e"/><rect x="170" y="120" width="10" height="10" fill="#aa0d1a"/><rect x="200" y="120" width="10" height="10" fill="#af0d1a"/><rect x="210" y="120" width="10" height="10" fill="#f03d4b"/><rect x="220" y="120" width="10" height="10" fill="#ef2536"/><rect x="230" y="120" width="10" height="10" fill="#c00e1d"/><rect x="0" y="130" width="10" height="10" fill="#ba0e1c"/><rect x="20" y="130" width="10" height="10" fill="#8b0a15"/><rect x="40" y="130" width="10" height="10" fill="#ef2939"/><rect x="50" y="130" width="10" height="10" fill="#f46f7a"/><rect x="60" y="130" width="10" height="10" fill="#f35f6b"/><rect x="160" y="130" width="10" height="10" fill="#7f0a13"/><rect x="170" y="130" width="10" height="10" fill="#bc0e1c"/><rect x="220" y="130" width="10" height="10" fill="#f24c5a"/><rect x="230" y="130" width="10" height="10" fill="#b20d1b"/><rect x="240" y="130" width="10" height="10" fill="#af0d1a"/><rect x="250" y="130" width="10" height="10" fill="#f14c5a"/><rect x="270" y="130" width="10" height="10" fill="#f03a49"/><rect x="40" y="140" width="10" height="10" fill="#b50e1b"/><rect x="50" y="140" width="10" height="10" fill="#6f0811"/><rect x="100" y="140" width="10" height="10" fill="#a90d19"/><rect x="110" y="140" width="10" height="10" fill="#f14957"/><rect x="120" y="140" width="10" height="10" fill="#aa0d1a"/><rect x="170" y="140" width="10" height="10" fill="#f46f7a"/><rect x="200" y="140" width="10" height="10" fill="#ac0d1a"/><rect x="210" y="140" width="10" height="10" fill="#bf0e1d"/><rect x="220" y="140" width="10" height="10" fill="#f03a49"/><rect x="230" y="140" width="10" height="10" fill="#7a0912"/><rect x="240" y="140" width="10" height="10" fill="#f03847"/><rect x="250" y="140" width="10" height="10" fill="#8e0b15"/><rect x="10" y="150" width="10" height="10" fill="#890a15"/><rect x="40" y="150" width="10" height="10" fill="#b30e1b"/><rect x="70" y="150" width="10" height="10" fill="#c60f1e"/><rect x="80" y="150" width="10" height="10" fill="#f24e5c"/><rect x="90" y="150" width="10" height="10" fill="#940b16"/><rect x="100" y="150" width="10" height="10" fill="#f25966"/><rect x="120" y="150" width="10" height="10" fill="#6f0811"/><rect x="150" y="150" width="10" height="10" fill="#b90e1c"/><rect x="180" y="150" width="10" height="10" fill="#ef303f"/><rect x="200" y="150" width="10" height="10" fill="#f35f6b"/><rect x="230" y="150" width="10" height="10" fill="#f14b59"/><rect x="270" y="150" width="10" height="10" fill="#b20d1b"/><rect x="0" y="160" width="10" height="10" fill="#ee2435"/><rect x="10" y="160" width="10" height="10" fill="#5f070e"/><rect x="90" y="160" width="10" height="10" fill="#60070e"/><rect x="130" y="160" width="10" height="10" fill="#ef2636"/><rect x="140" y="160" width="10" height="10" fill="#58070d"/><rect x="150" y="160" width="10" height="10" fill="#c50f1e"/><rect x="240" y="160" width="10" height="10" fill="#ef3040"/><rect x="40" y="170" width="10" height="10" fill="#900b16"/><rect x="80" y="170" width="10" height="10" fill="#bc0e1c"/><rect x="100" y="170" width="10" height="10" fill="#f35d69"/><rect x="110" y="170" width="10" height="10" fill="#f03645"/><rect x="130" y="170" width="10" height="10" fill="#af0d1a"/><rect x="150" y="170" width="10" height="10" fill="#ef2939"/><rect x="160" y="170" width="10" height="10" fill="#ba0e1c"/><rect x="170" y="170" width="10" height="10" fill="#ee2031"/><rect x="180" y="170" width="10" height="10" fill="#790912"/><rect x="190" y="170" width="10" height="10" fill="#f36570"/><rect x="210" y="170" width="10" height="10" fill="#61070f"/><rect x="220" y="170" width="10" height="10" fill="#f35e6a"/><rect x="240" y="170" width="10" height="10" fill="#ef2f3f"/><rect x="260" y="170" width="10" height="10" fill="#ef2838"/><rect x="10" y="180" width="10" height="10" fill="#c40f1e"/><rect x="20" y="180" width="10" height="10" fill="#f4717c"/><rect x="30" y="180" width="10" height="10" fill="#ee1f30"/><rect x="40" y="180" width="10" height="10" fill="#c40f1e"/><rect x="50" y="180" width="10" height="10" fill="#f03d4c"/><rect x="60" y="180" width="10" height="10" fill="#c60f1e"/><rect x="80" y="180" width="10" height="10" fill="#720911"/><rect x="90" y="180" width="10" height="10" fill="#ac0d1a"/><rect x="100" y="180" width="10" height="10" fill="#ef2536"/><rect x="110" y="180" width="10" height="10" fill="#bb0e1c"/><rect x="120" y="180" width="10" height="10" fill="#ba0e1c"/><rect x="140" y="180" width="10" height="10" fill="#f03241"/><rect x="160" y="180" width="10" height="10" fill="#ad0d1a"/><rect x="180" y="180" width="10" height="10" fill="#790912"/><rect x="190" y="180" width="10" height="10" fill="#b60e1c"/><rect x="200" y="180" width="10" height="10" fill="#f03645"/><rect x="210" y="180" width="10" height="10" fill="#ee2334"/><rect x="250" y="180" width="10" height="10" fill="#ee2334"/><rect x="270" y="180" width="10" height="10" fill="#ae0d1a"/><rect x="10" y="190" width="10" height="10" fill="#910b16"/><rect x="20" y="190" width="10" height="10" fill="#b10d1b"/><rect x="30" y="190" width="10" height="10" fill="#f4727d"/><rect x="50" y="190" width="10" height="10" fill="#ac0d1a"/><rect x="110" y="190" width="10" height="10" fill="#f35c68"/><rect x="150" y="190" width="10" height="10" fill="#f46b76"/><rect x="160" y="190" width="10" height="10" fill="#f3626e"/><rect x="170" y="190" width="10" height="10" fill="#6d0810"/><rect x="190" y="190" width="10" height="10" fill="#ef2a3a"/><rect x="210" y="190" width="10" height="10" fill="#ef3241"/><rect x="230" y="190" width="10" height="10" fill="#c70f1e"/><rect x="240" y="190" width="10" height="10" fill="#ee2132"/><rect x="260" y="190" width="10" height="10" fill="#f03444"/><rect x="270" y="190" width="10" height="10" fill="#a90d1a"/><rect x="0" y="200" width="10" height="10" fill="#f25562"/><rect x="20" y="200" width="10" height="10" fill="#ef2737"/><rect x="60" y="200" width="10" height="10" fill="#b80e1c"/><rect x="70" y="200" width="10" height="10" fill="#b90e1c"/><rect x="80" y="200" width="10" height="10" fill="#bd0e1d"/><rect x="90" y="200" width="10" height="10" fill="#c40f1e"/><rect x="120" y="200" width="10" height="10" fill="#f03343"/><rect x="130" y="200" width="10" height="10" fill="#ef2637"/><rect x="150" y="200" width="10" height="10" fill="#f03b4a"/><rect x="160" y="200" width="10" height="10" fill="#ef2839"/><rect x="170" y="200" width="10" height="10" fill="#be0e1d"/><rect x="180" y="200" width="10" height="10" fill="#ac0d1a"/><rect x="210" y="200" width="10" height="10" fill="#f03a49"/><rect x="230" y="200" width="10" height="10" fill="#ef2d3d"/><rect x="240" y="200" width="10" height="10" fill="#ef2d3d"/><rect x="50" y="210" width="10" height="10" fill="#ee1f30"/><rect x="60" y="210" width="10" height="10" fill="#870a14"/><rect x="80" y="210" width="10" height="10" fill="#bf0e1d"/><rect x="120" y="210" width="10" height="10" fill="#f2515e"/><rect x="130" y="210" width="10" height="10" fill="#ee1f30"/><rect x="150" y="210" width="10" height="10" fill="#b60e1b"/><rect x="190" y="210" width="10" height="10" fill="#5f070e"/><rect x="200" y="210" width="10" height="10" fill="#f25562"/><rect x="210" y="210" width="10" height="10" fill="#ef2738"/><rect x="220" y="210" width="10" height="10" fill="#f03444"/><rect x="240" y="210" width="10" height="10" fill="#750912"/><rect x="250" y="210" width="10" height="10" fill="#f46873"/><rect x="40" y="220" width="10" height="10" fill="#ef2e3e"/><rect x="60" y="220" width="10" height="10" fill="#f03948"/><rect x="80" y="220" width="10" height="10" fill="#f03544"/><rect x="90" y="220" width="10" height="10" fill="#f2525f"/><rect x="110" y="220" width="10" height="10" fill="#f2505d"/><rect x="120" y="220" width="10" height="10" fill="#c10f1d"/><rect x="140" y="220" width="10" height="10" fill="#ef2535"/><rect x="150" y="220" width="10" height="10" fill="#58070d"/><rect x="160" y="220" width="10" height="10" fill="#800a13"/><rect x="170" y="220" width="10" height="10" fill="#f03646"/><rect x="180" y="220" width="10" height="10" fill="#f4737e"/><rect x="190" y="220" width="10" height="10" fill="#ba0e1c"/><rect x="200" y="220" width="10" height="10" fill="#62070f"/><rect x="230" y="220" width="10" height="10" fill="#f03342"/><rect x="250" y="220" width="10" height="10" fill="#ee2232"/><rect x="260" y="220" width="10" height="10" fill="#790912"/><rect x="270" y="220" width="10" height="10" fill="#f03948"/><rect x="0" y="230" width="10" height="10" fill="#f46d78"/><rect x="10" y="230" width="10" height="10" fill="#880a15"/><rect x="20" y="230" width="10" height="10" fill="#ef2535"/><rect x="30" y="230" width="10" height="10" fill="#ee1f30"/><rect x="40" y="230" width="10" height="10" fill="#f35d69"/><rect x="50" y="230" width="10" height="10" fill="#c10f1d"/><rect x="60" y="230" width="10" height="10" fill="#f35a66"/><rect x="70" y="230" width="10" height="10" fill="#f03746"/><rect x="100" y="230" width="10" height="10" fill="#c90f1e"/><rect x="140" y="230" width="10" height="10" fill="#f03c4b"/><rect x="160" y="230" width="10" height="10" fill="#ee1f30"/><rect x="190" y="230" width="10" height="10" fill="#f25865"/><rect x="210" y="230" width="10" height="10" fill="#f46c77"/><rect x="220" y="230" width="10" height="10" fill="#f03746"/><rect x="250" y="230" width="10" height="10" fill="#ee2132"/><rect x="0" y="240" width="10" height="10" fill="#f3606c"/><rect x="80" y="240" width="10" height="10" fill="#700811"/><rect x="90" y="240" width="10" height="10" fill="#f03746"/><rect x="100" y="240" width="10" height="10" fill="#f03746"/><rect x="110" y="240" width="10" height="10" fill="#ee2434"/><rect x="160" y="240" width="10" height="10" fill="#ee2031"/><rect x="190" y="240" width="10" height="10" fill="#780912"/><rect x="200" y="240" width="10" height="10" fill="#8f0b16"/><rect x="210" y="240" width="10" height="10" fill="#ef2f3f"/><rect x="230" y="240" width="10" height="10" fill="#f03645"/><rect x="250" y="240" width="10" height="10" fill="#ee1f30"/><rect x="260" y="240" width="10" height="10" fill="#b90e1c"/><rect x="0" y="250" width="10" height="10" fill="#c00f1d"/><rect x="10" y="250" width="10" height="10" fill="#c60f1e"/><rect x="30" y="250" width="10" height="10" fill="#ee1f30"/><rect x="40" y="250" width="10" height="10" fill="#f35f6b"/><rect x="50" y="250" width="10" height="10" fill="#bb0e1c"/><rect x="90" y="250" width="10" height="10" fill="#f03443"/><rect x="110" y="250" width="10" height="10" fill="#55060d"/><rect x="120" y="250" width="10" height="10" fill="#f24f5c"/><rect x="160" y="250" width="10" height="10" fill="#ee1f30"/><rect x="170" y="250" width="10" height="10" fill="#f25461"/><rect x="210" y="250" width="10" height="10" fill="#ef2637"/><rect x="230" y="250" width="10" height="10" fill="#f03a49"/><rect x="250" y="250" width="10" height="10" fill="#ef2f3f"/><rect x="50" y="260" width="10" height="10" fill="#ef2e3d"/><rect x="70" y="260" width="10" height="10" fill="#f03746"/><rect x="100" y="260" width="10" height="10" fill="#f46f7a"/><rect x="120" y="260" width="10" height="10" fill="#f46b76"/><rect x="160" y="260" width="10" height="10" fill="#f03343"/><rect x="170" y="260" width="10" height="10" fill="#f03948"/><rect x="180" y="260" width="10" height="10" fill="#c30f1d"/><rect x="220" y="260" width="10" height="10" fill="#ef3141"/><rect x="240" y="260" width="10" height="10" fill="#b10d1b"/><rect x="250" y="260" width="10" height="10" fill="#f2515e"/><rect x="260" y="260" width="10" height="10" fill="#8d0b15"/><rect x="0" y="270" width="10" height="10" fill="#f2505d"/><rect x="60" y="270" width="10" height="10" fill="#ef2d3d"/><rect x="70" y="270" width="10" height="10" fill="#8c0b15"/><rect x="80" y="270" width="10" height="10" fill="#bd0e1d"/><rect x="120" y="270" width="10" height="10" fill="#ef2e3e"/><rect x="160" y="270" width="10" height="10" fill="#af0d1a"/><rect x="170" y="270" width="10" height="10" fill="#f25865"/><rect x="200" y="270" width="10" height="10" fill="#ef2838"/><rect x="0" y="280" width="10" height="10" fill="#f03847"/><rect x="10" y="280" width="10" height="10" fill="#f14a57"/><rect x="50" y="280" width="10" height="10" fill="#ef2a3a"/><rect x="70" y="280" width="10" height="10" fill="#c70f1e"/><rect x="80" y="280" width="10" height="10" fill="#f03a49"/><rect x="100" y="280" width="10" height="10" fill="#f14957"/><rect x="140" y="280" width="10" height="10" fill="#f03646"/><rect x="170" y="280" width="10" height="10" fill="#b30e1b"/><rect x="210" y="280" width="10" height="10" fill="#b80e1c"/><rect x="220" y="280" width="10" height="10" fill="#f03847"/><rect x="230" y="280" width="10" height="10" fill="#b40e1b"/><rect x="240" y="280" width="10" height="10" fill="#bc0e1c"/><rect x="40" y="290" width="10" height="10" fill="#760912"/><rect x="70" y="290" width="10" height="10" fill="#860a14"/><rect x="80" y="290" width="10" height="10" fill="#850a14"/><rect x="90" y="290" width="10" height="10" fill="#f46773"/><rect x="100" y="290" width="10" height="10" fill="#b80e1c"/><rect x="110" y="290" width="10" height="10" fill="#b50e1b"/><rect x="120" y="290" width="10" height="10" fill="#ee2233"/><rect x="130" y="290" width="10" height="10" fill="#c70f1e"/><rect x="140" y="290" width="10" height="10" fill="#ac0d1a"/><rect x="190" y="290" width="10" height="10" fill="#c00f1d"/><rect x="220" y="290" width="10" height="10" fill="#b50e1b"/><rect x="240" y="290" width="10" height="10" fill="#c30f1d"/><rect x="260" y="290" width="10" height="10" fill="#f03645"/><rect x="0" y="300" width="10" height="10" fill="#aa0d1a"/><rect x="60" y="300" width="10" height="10" fill="#ab0d1a"/><rect x="80" y="300" width="10" height="10" fill="#f4707b"/><rect x="110" y="300" width="10" height="10" fill="#f03443"/><rect x="140" y="300" width="10" height="10" fill="#f46c77"/><rect x="150" y="300" width="10" height="10" fill="#a80d19"/><rect x="160" y="300" width="10" height="10" fill="#f3606c"/><rect x="170" y="300" width="10" height="10" fill="#ee2031"/><rect x="190" y="300" width="10" height="10" fill="#ef2d3c"/><rect x="210" y="300" width="10" height="10" fill="#f14c5a"/><rect x="220" y="300" width="10" height="10" fill="#f46772"/><rect x="240" y="300" width="10" height="10" fill="#63070f"/><rect x="250" y="300" width="10" height="10" fill="#b40e1b"/><rect x="0" y="310" width="10" height="10" fill="#b50e1b"/><rect x="10" y="310" width="10" height="10" fill="#f03443"/><rect x="30" y="310" width="10" height="10" fill="#b80e1c"/><rect x="70" y="310" width="10" height="10" fill="#ef2b3b"/><rect x="90" y="310" width="10" height="10" fill="#f35c68"/><rect x="140" y="310" width="10" height="10" fill="#ef2a3a"/><rect x="150" y="310" width="10" height="10" fill="#f46a76"/><rect x="160" y="310" width="10" height="10" fill="#b80e1c"/><rect x="180" y="310" width="10" height="10" fill="#b30d1b"/><rect x="210" y="310" width="10" height="10" fill="#c30f1d"/><rect x="220" y="310" width="10" height="10" fill="#5d070e"/><rect x="270" y="310" width="10" height="10" fill="#b60e1b"/><rect x="0" y="320" width="10" height="10" fill="#f4727c"/><rect x="10" y="320" width="10" height="10" fill="#f03b4a"/><rect x="20" y="320" width="10" height="10" fill="#f14b58"/><rect x="40" y="320" width="10" height="10" fill="#bc0e1c"/><rect x="70" y="320" width="10" height="10" fill="#a90d1a"/><rect x="90" y="320" width="10" height="10" fill="#f46b76"/><rect x="100" y="320" width="10" height="10" fill="#b50e1b"/><rect x="110" y="320" width="10" height="10" fill="#f03544"/><rect x="150" y="320" width="10" height="10" fill="#f03544"/><rect x="160" y="320" width="10" height="10" fill="#ef2b3b"/><rect x="190" y="320" width="10" height="10" fill="#b40e1b"/><rect x="200" y="320" width="10" height="10" fill="#ad0d1a"/><rect x="210" y="320" width="10" height="10" fill="#ef2535"/><rect x="270" y="320" width="10" height="10" fill="#f03847"/><rect x="10" y="330" width="10" height="10" fill="#b10d1b"/><rect x="30" y="330" width="10" height="10" fill="#ee2535"/><rect x="40" y="330" width="10" height="10" fill="#ae0d1a"/><rect x="50" y="330" width="10" height="10" fill="#f46b76"/><rect x="60" y="330" width="10" height="10" fill="#f46e79"/><rect x="80" y="330" width="10" height="10" fill="#c10f1d"/><rect x="110" y="330" width="10" height="10" fill="#5b070e"/><rect x="120" y="330" width="10" height="10" fill="#f03342"/><rect x="140" y="330" width="10" height="10" fill="#ba0e1c"/><rect x="180" y="330" width="10" height="10" fill="#b40e1b"/><rect x="200" y="330" width="10" height="10" fill="#6c0810"/><rect x="220" y="330" width="10" height="10" fill="#c80f1e"/><rect x="240" y="330" width="10" height="10" fill="#8e0b15"/><rect x="250" y="330" width="10" height="10" fill="#c80f1e"/><rect x="260" y="330" width="10" height="10" fill="#ef2e3d"/><rect x="0" y="340" width="10" height="10" fill="#b30d1b"/><rect x="10" y="340" width="10" height="10" fill="#f14856"/><rect x="30" y="340" width="10" height="10" fill="#ae0d1a"/><rect x="50" y="340" width="10" height="10" fill="#f03746"/><rect x="60" y="340" width="10" height="10" fill="#b70e1c"/><rect x="90" y="340" width="10" height="10" fill="#f4727c"/><rect x="110" y="340" width="10" height="10" fill="#f03242"/><rect x="140" y="340" width="10" height="10" fill="#ee2435"/><rect x="160" y="340" width="10" height="10" fill="#f03847"/><rect x="170" y="340" width="10" height="10" fill="#c00f1d"/><rect x="200" y="340" width="10" height="10" fill="#ef2838"/><rect x="230" y="340" width="10" height="10" fill="#b30e1b"/><rect x="240" y="340" width="10" height="10" fill="#f46f7a"/><rect x="250" y="340" width="10" height="10" fill="#b30e1b"/><rect x="270" y="340" width="10" height="10" fill="#f46c77"/><rect x="0" y="350" width="10" height="10" fill="#c30f1d"/><rect x="30" y="350" width="10" height="10" fill="#b60e1c"/><rect x="50" y="350" width="10" height="10" fill="#ba0e1c"/><rect x="70" y="350" width="10" height="10" fill="#ef3040"/><rect x="80" y="350" width="10" height="10" fill="#f14956"/><rect x="90" y="350" width="10" height="10" fill="#ef2f3f"/><rect x="110" y="350" width="10" height="10" fill="#f36772"/><rect x="130" y="350" width="10" height="10" fill="#f03f4d"/><rect x="160" y="350" width="10" height="10" fill="#b30e1b"/><rect x="170" y="350" width="10" height="10" fill="#f46773"/><rect x="190" y="350" width="10" height="10" fill="#ef3040"/><rect x="220" y="350" width="10" height="10" fill="#f03d4c"/><rect x="230" y="350" width="10" height="10" fill="#f03444"/><rect x="250" y="350" width="10" height="10" fill="#ef2a3a"/><rect x="260" y="350" width="10" height="10" fill="#54060d"/><rect x="270" y="350" width="10" height="10" fill="#ee2233"/></svg>