<svg xmlns="http://www.w3.org/2000/svg" viewBox="0 0 280 360" width="280" height="360" shape-rendering="crispEdges" preserveAspectRatio="xMidYMid slice"><rect width="280" height="360" fill="#00d084"/><rect x="0" y="0" width="10" height="10" fill="#00f99e"/><rect x="10" y="0" width="10" height="10" fill="#00b472"/><rect x="20" y="0" width="10" height="10" fill="#00f79d"/><rect x="30" y="0" width="10" height="10" fill="#00f098"/><rect x="70" y="0" width="10" height="10" fill="#00a669"/><rect x="80" y="0" width="10" height="10" fill="#005536"/><rect x="100" y="0" width="10" height="10" fill="#00fca0"/><rect x="120" y="0" width="10" height="10" fill="#00ea94"/><rect x="140" y="0" width="10" height="10" fill="#03ffa3"/><rect x="150" y="0" width="10" height="10" fill="#005334"/><rect x="190" y="0" width="10" height="10" fill="#009760"/><rect x="210" y="0" width="10" height="10" fill="#00ac6d"/><rect x="0" y="10" width="10" height="10" fill="#00ef98"/><rect x="30" y="10" width="10" height="10" fill="#00ae6e"/><rect x="40" y="10" width="10" height="10" fill="#00b573"/><rect x="50" y="10" width="10" height="10" fill="#2effb3"/><rect x="60" y="10" width="10" height="10" fill="#41ffba"/><rect x="70" y="10" width="10" height="10" fill="#00b573"/><rect x="80" y="10" width="10" height="10" fill="#00a468"/><rect x="90" y="10" width="10" height="10" fill="#35ffb5"/><rect x="110" y="10" width="10" height="10" fill="#4bffbd"/><rect x="150" y="10" width="10" height="10" fill="#00ef98"/><rect x="160" y="10" width="10" height="10" fill="#00fda0"/><rect x="170" y="10" width="10" height="10" fill="#00b171"/><rect x="190" y="10" width="10" height="10" fill="#05ffa4"/><rect x="200" y="10" width="10" height="10" fill="#05ffa4"/><rect x="230" y="10" width="10" height="10" fill="#02ffa2"/><rect x="260" y="10" width="10" height="10" fill="#02ffa3"/><rect x="60" y="20" width="10" height="10" fill="#0cffa6"/><rect x="80" y="20" width="10" height="10" fill="#00ffa2"/><rect x="100" y="20" width="10" height="10" fill="#06ffa4"/><rect x="130" y="20" width="10" height="10" fill="#00f99e"/><rect x="160" y="20" width="10" height="10" fill="#00a267"/><rect x="200" y="20" width="10" height="10" fill="#06ffa4"/><rect x="220" y="20" width="10" height="10" fill="#00ec96"/><rect x="240" y="20" width="10" height="10" fill="#00f79c"/><rect x="270" y="20" width="10" height="10" fill="#00fa9f"/><rect x="10" y="30" width="10" height="10" fill="#00f299"/><rect x="40" y="30" width="10" height="10" fill="#35ffb5"/><rect x="50" y="30" width="10" height="10" fill="#2affb1"/><rect x="60" y="30" width="10" height="10" fill="#009f65"/><rect x="80" y="30" width="10" height="10" fill="#32ffb4"/><rect x="120" y="30" width="10" height="10" fill="#00a76a"/><rect x="150" y="30" width="10" height="10" fill="#00fea1"/><rect x="170" y="30" width="10" height="10" fill="#0dffa7"/><rect x="190" y="30" width="10" height="10" fill="#43ffba"/><rect x="210" y="30" width="10" height="10" fill="#006d45"/><rect x="0" y="40" width="10" height="10" fill="#0affa5"/><rect x="10" y="40" width="10" height="10" fill="#00fca0"/><rect x="40" y="40" width="10" height="10" fill="#00f39a"/><rect x="50" y="40" width="10" height="10" fill="#00432b"/><rect x="80" y="40" width="10" height="10" fill="#00945e"/><rect x="90" y="40" width="10" height="10" fill="#00b472"/><rect x="100" y="40" width="10" height="10" fill="#3bffb8"/><rect x="110" y="40" width="10" height="10" fill="#3affb7"/><rect x="120" y="40" width="10" height="10" fill="#0affa6"/><rect x="170" y="40" width="10" height="10" fill="#009961"/><rect x="220" y="40" width="10" height="10" fill="#1bffac"/><rect x="230" y="40" width="10" height="10" fill="#0dffa6"/><rect x="240" y="40" width="10" height="10" fill="#04ffa3"/><rect x="270" y="40" width="10" height="10" fill="#00ef97"/><rect x="20" y="50" width="10" height="10" fill="#00a267"/><rect x="30" y="50" width="10" height="10" fill="#00fca0"/><rect x="50" y="50" width="10" height="10" fill="#00492e"/><rect x="70" y="50" width="10" height="10" fill="#00472d"/><rect x="90" y="50" width="10" height="10" fill="#00945e"/><rect x="110" y="50" width="10" height="10" fill="#00ee97"/><rect x="170" y="50" width="10" height="10" fill="#03ffa3"/><rect x="180" y="50" width="10" height="10" fill="#003723"/><rect x="200" y="50" width="10" height="10" fill="#27ffb0"/><rect x="220" y="50" width="10" height="10" fill="#007349"/><rect x="230" y="50" width="10" height="10" fill="#006a43"/><rect x="240" y="50" width="10" height="10" fill="#006842"/><rect x="250" y="50" width="10" height="10" fill="#00eb95"/><rect x="260" y="50" width="10" height="10" fill="#009a62"/><rect x="0" y="60" width="10" height="10" fill="#009a61"/><rect x="10" y="60" width="10" height="10" fill="#00b371"/><rect x="20" y="60" width="10" height="10" fill="#006641"/><rect x="50" y="60" width="10" height="10" fill="#2bffb1"/><rect x="70" y="60" width="10" height="10" fill="#20ffae"/><rect x="90" y="60" width="10" height="10" fill="#00ee97"/><rect x="100" y="60" width="10" height="10" fill="#1bffac"/><rect x="110" y="60" width="10" height="10" fill="#00ea95"/><rect x="120" y="60" width="10" height="10" fill="#09ffa5"/><rect x="140" y="60" width="10" height="10" fill="#009961"/><rect x="150" y="60" width="10" height="10" fill="#31ffb4"/><rect x="160" y="60" width="10" height="10" fill="#00ae6e"/><rect x="170" y="60" width="10" height="10" fill="#00a66a"/><rect x="180" y="60" width="10" height="10" fill="#00764b"/><rect x="190" y="60" width="10" height="10" fill="#00482d"/><rect x="210" y="60" width="10" height="10" fill="#00f69c"/><rect x="230" y="60" width="10" height="10" fill="#0bffa6"/><rect x="250" y="60" width="10" height="10" fill="#00ea95"/><rect x="260" y="60" width="10" height="10" fill="#005234"/><rect x="270" y="60" width="10" height="10" fill="#006842"/><rect x="0" y="70" width="10" height="10" fill="#31ffb4"/><rect x="10" y="70" width="10" height="10" fill="#3bffb7"/><rect x="30" y="70" width="10" height="10" fill="#24ffaf"/><rect x="50" y="70" width="10" height="10" fill="#06ffa4"/><rect x="60" y="70" width="10" height="10" fill="#00ae6e"/><rect x="70" y="70" width="10" height="10" fill="#05ffa4"/><rect x="80" y="70" width="10" height="10" fill="#005a39"/><rect x="90" y="70" width="10" height="10" fill="#00eb95"/><rect x="110" y="70" width="10" height="10" fill="#00a76a"/><rect x="130" y="70" width="10" height="10" fill="#1fffad"/><rect x="150" y="70" width="10" height="10" fill="#00442b"/><rect x="210" y="70" width="10" height="10" fill="#009d64"/><rect x="240" y="70" width="10" height="10" fill="#009c63"/><rect x="250" y="70" width="10" height="10" fill="#00ad6e"/><rect x="260" y="70" width="10" height="10" fill="#1dffac"/><rect x="30" y="80" width="10" height="10" fill="#0bffa6"/><rect x="40" y="80" width="10" height="10" fill="#003824"/><rect x="50" y="80" width="10" height="10" fill="#2bffb2"/><rect x="60" y="80" width="10" height="10" fill="#39ffb7"/><rect x="70" y="80" width="10" height="10" fill="#4affbd"/><rect x="110" y="80" width="10" height="10" fill="#00b372"/><rect x="140" y="80" width="10" height="10" fill="#23ffaf"/><rect x="170" y="80" width="10" height="10" fill="#009f65"/><rect x="180" y="80" width="10" height="10" fill="#3dffb8"/><rect x="190" y="80" width="10" height="10" fill="#00a86b"/><rect x="200" y="80" width="10" height="10" fill="#1bffac"/><rect x="220" y="80" width="10" height="10" fill="#00492e"/><rect x="240" y="80" width="10" height="10" fill="#00f89d"/><rect x="270" y="80" width="10" height="10" fill="#00a96c"/><rect x="0" y="90" width="10" height="10" fill="#00f098"/><rect x="10" y="90" width="10" height="10" fill="#00965f"/><rect x="30" y="90" width="10" height="10" fill="#43ffba"/><rect x="40" y="90" width="10" height="10" fill="#08ffa5"/><rect x="60" y="90" width="10" height="10" fill="#00fca0"/><rect x="70" y="90" width="10" height="10" fill="#00b070"/><rect x="80" y="90" width="10" height="10" fill="#05ffa4"/><rect x="120" y="90" width="10" height="10" fill="#00b573"/><rect x="130" y="90" width="10" height="10" fill="#00f79d"/><rect x="170" y="90" width="10" height="10" fill="#00f99e"/><rect x="180" y="90" width="10" height="10" fill="#00b271"/><rect x="190" y="90" width="10" height="10" fill="#009961"/><rect x="200" y="90" width="10" height="10" fill="#3cffb8"/><rect x="230" y="90" width="10" height="10" fill="#07ffa4"/><rect x="240" y="90" width="10" height="10" fill="#39ffb7"/><rect x="260" y="90" width="10" height="10" fill="#03ffa3"/><rect x="0" y="100" width="10" height="10" fill="#00b070"/><rect x="20" y="100" width="10" height="10" fill="#00f49b"/><rect x="50" y="100" width="10" height="10" fill="#00ffa2"/><rect x="60" y="100" width="10" height="10" fill="#00fb9f"/><rect x="70" y="100" width="10" height="10" fill="#00f099"/><rect x="80" y="100" width="10" height="10" fill="#005b3a"/><rect x="90" y="100" width="10" height="10" fill="#00f49b"/><rect x="110" y="100" width="10" height="10" fill="#00b472"/><rect x="120" y="100" width="10" height="10" fill="#00fca0"/><rect x="130" y="100" width="10" height="10" fill="#45ffbb"/><rect x="150" y="100" width="10" height="10" fill="#00fea1"/><rect x="180" y="100" width="10" height="10" fill="#00a96b"/><rect x="190" y="100" width="10" height="10" fill="#00b673"/><rect x="200" y="100" width="10" height="10" fill="#08ffa5"/><rect x="210" y="100" width="10" height="10" fill="#00472d"/><rect x="220" y="100" width="10" height="10" fill="#009860"/><rect x="240" y="100" width="10" height="10" fill="#00492e"/><rect x="250" y="100" width="10" height="10" fill="#09ffa5"/><rect x="20" y="110" width="10" height="10" fill="#49ffbc"/><rect x="30" y="110" width="10" height="10" fill="#06ffa4"/><rect x="70" y="110" width="10" height="10" fill="#47ffbc"/><rect x="80" y="110" width="10" height="10" fill="#00a166"/><rect x="90" y="110" width="10" height="10" fill="#00f099"/><rect x="100" y="110" width="10" height="10" fill="#00f89e"/><rect x="130" y="110" width="10" height="10" fill="#00623e"/><rect x="240" y="110" width="10" height="10" fill="#00b070"/><rect x="250" y="110" width="10" height="10" fill="#006f46"/><rect x="260" y="110" width="10" height="10" fill="#00b372"/><rect x="10" y="120" width="10" height="10" fill="#009e64"/><rect x="30" y="120" width="10" height="10" fill="#29ffb1"/><rect x="40" y="120" width="10" height="10" fill="#006842"/><rect x="50" y="120" width="10" height="10" fill="#006d45"/><rect x="60" y="120" width="10" height="10" fill="#00f49b"/><rect x="70" y="120" width="10" height="10" fill="#009c63"/><rect x="100" y="120" width="10" height="10" fill="#009c63"/><rect x="110" y="120" width="10" height="10" fill="#4bffbd"/><rect x="130" y="120" width="10" height="10" fill="#06ffa4"/><rect x="140" y="120" width="10" height="10" fill="#004029"/><rect x="180" y="120" width="10" height="10" fill="#49ffbd"/><rect x="230" y="120" width="10" height="10" fill="#00f99e"/><rect x="240" y="120" width="10" height="10" fill="#00f99e"/><rect x="270" y="120" width="10" height="10" fill="#00b371"/><rect x="10" y="130" width="10" height="10" fill="#00ef98"/><rect x="40" y="130" width="10" height="10" fill="#4affbd"/><rect x="80" y="130" width="10" height="10" fill="#00754a"/><rect x="90" y="130" width="10" height="10" fill="#009961"/><rect x="100" y="130" width="10" height="10" fill="#04ffa3"/><rect x="110" y="130" width="10" height="10" fill="#00b372"/><rect x="120" y="130" width="10" height="10" fill="#00b472"/><rect x="160" y="130" width="10" height="10" fill="#00945e"/><rect x="170" y="130" width="10" height="10" fill="#00ef98"/><rect x="180" y="130" width="10" height="10" fill="#009f65"/><rect x="190" y="130" width="10" height="10" fill="#00b372"/><rect x="200" y="130" width="10" height="10" fill="#005334"/><rect x="240" y="130" width="10" height="10" fill="#003c26"/><rect x="250" y="130" width="10" height="10" fill="#00f098"/><rect x="260" y="130" width="10" height="10" fill="#009d64"/><rect x="270" y="130" width="10" height="10" fill="#47ffbc"/><rect x="0" y="140" width="10" height="10" fill="#009e64"/><rect x="10" y="140" width="10" height="10" fill="#2cffb2"/><rect x="40" y="140" width="10" height="10" fill="#009760"/><rect x="50" y="140" width="10" height="10" fill="#04ffa3"/><rect x="80" y="140" width="10" height="10" fill="#0affa6"/><rect x="90" y="140" width="10" height="10" fill="#01ffa2"/><rect x="100" y="140" width="10" height="10" fill="#00f79d"/><rect x="110" y="140" width="10" height="10" fill="#00aa6c"/><rect x="120" y="140" width="10" height="10" fill="#3fffb9"/><rect x="130" y="140" width="10" height="10" fill="#009a62"/><rect x="140" y="140" width="10" height="10" fill="#009c63"/><rect x="180" y="140" width="10" height="10" fill="#00a066"/><rect x="190" y="140" width="10" height="10" fill="#00935d"/><rect x="200" y="140" width="10" height="10" fill="#009f65"/><rect x="220" y="140" width="10" height="10" fill="#00a86b"/><rect x="230" y="140" width="10" height="10" fill="#00ed96"/><rect x="250" y="140" width="10" height="10" fill="#00f49b"/><rect x="260" y="140" width="10" height="10" fill="#009a62"/><rect x="270" y="140" width="10" height="10" fill="#1affab"/><rect x="0" y="150" width="10" height="10" fill="#00f89e"/><rect x="20" y="150" width="10" height="10" fill="#00a367"/><rect x="40" y="150" width="10" height="10" fill="#00ac6d"/><rect x="50" y="150" width="10" height="10" fill="#00f59c"/><rect x="80" y="150" width="10" height="10" fill="#3cffb8"/><rect x="110" y="150" width="10" height="10" fill="#34ffb5"/><rect x="120" y="150" width="10" height="10" fill="#1cffac"/><rect x="140" y="150" width="10" height="10" fill="#00a066"/><rect x="150" y="150" width="10" height="10" fill="#005737"/><rect x="160" y="150" width="10" height="10" fill="#06ffa4"/><rect x="180" y="150" width="10" height="10" fill="#2bffb1"/><rect x="210" y="150" width="10" height="10" fill="#00935d"/><rect x="220" y="150" width="10" height="10" fill="#00fa9f"/><rect x="240" y="150" width="10" height="10" fill="#1affab"/><rect x="250" y="150" width="10" height="10" fill="#37ffb6"/><rect x="260" y="150" width="10" height="10" fill="#09ffa5"/><rect x="10" y="160" width="10" height="10" fill="#00f89d"/><rect x="20" y="160" width="10" height="10" fill="#00fda1"/><rect x="30" y="160" width="10" height="10" fill="#02ffa3"/><rect x="50" y="160" width="10" height="10" fill="#00f199"/><rect x="70" y="160" width="10" height="10" fill="#0affa5"/><rect x="80" y="160" width="10" height="10" fill="#0bffa6"/><rect x="90" y="160" width="10" height="10" fill="#1fffad"/><rect x="100" y="160" width="10" height="10" fill="#00482e"/><rect x="110" y="160" width="10" height="10" fill="#004029"/><rect x="120" y="160" width="10" height="10" fill="#00a96c"/><rect x="130" y="160" width="10" height="10" fill="#00f199"/><rect x="160" y="160" width="10" height="10" fill="#00a669"/><rect x="190" y="160" width="10" height="10" fill="#4bffbd"/><rect x="210" y="160" width="10" height="10" fill="#00a569"/><rect x="250" y="160" width="10" height="10" fill="#00b070"/><rect x="270" y="160" width="10" height="10" fill="#00a367"/><rect x="10" y="170" width="10" height="10" fill="#0cffa6"/><rect x="50" y="170" width="10" height="10" fill="#00f49b"/><rect x="70" y="170" width="10" height="10" fill="#0cffa6"/><rect x="80" y="170" width="10" height="10" fill="#48ffbc"/><rect x="120" y="170" width="10" height="10" fill="#009b62"/><rect x="130" y="170" width="10" height="10" fill="#003f28"/><rect x="140" y="170" width="10" height="10" fill="#47ffbc"/><rect x="150" y="170" width="10" height="10" fill="#21ffae"/><rect x="220" y="170" width="10" height="10" fill="#27ffb0"/><rect x="230" y="170" width="10" height="10" fill="#3effb9"/><rect x="250" y="170" width="10" height="10" fill="#00eb95"/><rect x="270" y="170" width="10" height="10" fill="#00fda1"/><rect x="20" y="180" width="10" height="10" fill="#009b62"/><rect x="30" y="180" width="10" height="10" fill="#00f39a"/><rect x="60" y="180" width="10" height="10" fill="#00a669"/><rect x="80" y="180" width="10" height="10" fill="#00b674"/><rect x="120" y="180" width="10" height="10" fill="#0dffa7"/><rect x="130" y="180" width="10" height="10" fill="#00a166"/><rect x="140" y="180" width="10" height="10" fill="#00ea94"/><rect x="150" y="180" width="10" height="10" fill="#009c63"/><rect x="160" y="180" width="10" height="10" fill="#00ac6d"/><rect x="180" y="180" width="10" height="10" fill="#39ffb7"/><rect x="190" y="180" width="10" height="10" fill="#006641"/><rect x="220" y="180" width="10" height="10" fill="#00a468"/><rect x="250" y="180" width="10" height="10" fill="#00a96b"/><rect x="260" y="180" width="10" height="10" fill="#1effad"/><rect x="270" y="180" width="10" height="10" fill="#00f99e"/><rect x="10" y="190" width="10" height="10" fill="#00935d"/><rect x="20" y="190" width="10" height="10" fill="#3affb7"/><rect x="40" y="190" width="10" height="10" fill="#004c30"/><rect x="80" y="190" width="10" height="10" fill="#00ef97"/><rect x="90" y="190" width="10" height="10" fill="#00965f"/><rect x="100" y="190" width="10" height="10" fill="#00ad6e"/><rect x="110" y="190" width="10" height="10" fill="#00aa6c"/><rect x="120" y="190" width="10" height="10" fill="#00a568"/><rect x="150" y="190" width="10" height="10" fill="#00f49b"/><rect x="160" y="190" width="10" height="10" fill="#009d63"/><rect x="170" y="190" width="10" height="10" fill="#02ffa2"/><rect x="180" y="190" width="10" height="10" fill="#0affa5"/><rect x="190" y="190" width="10" height="10" fill="#00fb9f"/><rect x="200" y="190" width="10" height="10" fill="#0affa5"/><rect x="210" y="190" width="10" height="10" fill="#00482d"/><rect x="240" y="190" width="10" height="10" fill="#00f59c"/><rect x="250" y="190" width="10" height="10" fill="#44ffbb"/><rect x="260" y="190" width="10" height="10" fill="#0effa7"/><rect x="270" y="190" width="10" height="10" fill="#00f79d"/><rect x="0" y="200" width="10" height="10" fill="#00eb95"/><rect x="30" y="200" width="10" height="10" fill="#1bffac"/><rect x="50" y="200" width="10" height="10" fill="#00ec96"/><rect x="60" y="200" width="10" height="10" fill="#00ef97"/><rect x="80" y="200" width="10" height="10" fill="#00eb95"/><rect x="110" y="200" width="10" height="10" fill="#43ffba"/><rect x="120" y="200" width="10" height="10" fill="#09ffa5"/><rect x="140" y="200" width="10" height="10" fill="#004d31"/><rect x="150" y="200" width="10" height="10" fill="#00b371"/><rect x="160" y="200" width="10" height="10" fill="#00f098"/><rect x="200" y="200" width="10" height="10" fill="#009760"/><rect x="230" y="200" width="10" height="10" fill="#00965f"/><rect x="250" y="200" width="10" height="10" fill="#04ffa3"/><rect x="10" y="210" width="10" height="10" fill="#00f79d"/><rect x="40" y="210" width="10" height="10" fill="#00fda0"/><rect x="50" y="210" width="10" height="10" fill="#00ed96"/><rect x="140" y="210" width="10" height="10" fill="#00fa9f"/><rect x="150" y="210" width="10" height="10" fill="#31ffb4"/><rect x="200" y="210" width="10" height="10" fill="#005637"/><rect x="230" y="210" width="10" height="10" fill="#2fffb3"/><rect x="240" y="210" width="10" height="10" fill="#009e64"/><rect x="250" y="210" width="10" height="10" fill="#00f69c"/><rect x="260" y="210" width="10" height="10" fill="#00aa6c"/><rect x="0" y="220" width="10" height="10" fill="#00b271"/><rect x="10" y="220" width="10" height="10" fill="#0affa5"/><rect x="20" y="220" width="10" height="10" fill="#00f199"/><rect x="30" y="220" width="10" height="10" fill="#009a62"/><rect x="120" y="220" width="10" height="10" fill="#00ef98"/><rect x="150" y="220" width="10" height="10" fill="#006742"/><rect x="170" y="220" width="10" height="10" fill="#0affa5"/><rect x="180" y="220" width="10" height="10" fill="#00ee97"/><rect x="190" y="220" width="10" height="10" fill="#0cffa6"/><rect x="210" y="220" width="10" height="10" fill="#34ffb5"/><rect x="230" y="220" width="10" height="10" fill="#00ea95"/><rect x="250" y="220" width="10" height="10" fill="#003723"/><rect x="260" y="220" width="10" height="10" fill="#00a468"/><rect x="270" y="220" width="10" height="10" fill="#009760"/><rect x="30" y="230" width="10" height="10" fill="#00a569"/><rect x="60" y="230" width="10" height="10" fill="#007c4f"/><rect x="80" y="230" width="10" height="10" fill="#00a76a"/><rect x="90" y="230" width="10" height="10" fill="#00a166"/><rect x="120" y="230" width="10" height="10" fill="#0bffa6"/><rect x="130" y="230" width="10" height="10" fill="#00b070"/><rect x="140" y="230" width="10" height="10" fill="#00fb9f"/><rect x="160" y="230" width="10" height="10" fill="#009860"/><rect x="170" y="230" width="10" height="10" fill="#47ffbc"/><rect x="220" y="230" width="10" height="10" fill="#00a267"/><rect x="230" y="230" width="10" height="10" fill="#05ffa4"/><rect x="270" y="230" width="10" height="10" fill="#36ffb6"/><rect x="0" y="240" width="10" height="10" fill="#009b62"/><rect x="20" y="240" width="10" height="10" fill="#00ad6e"/><rect x="30" y="240" width="10" height="10" fill="#00a76a"/><rect x="50" y="240" width="10" height="10" fill="#00fa9f"/><rect x="90" y="240" width="10" height="10" fill="#00fda1"/><rect x="100" y="240" width="10" height="10" fill="#00ee97"/><rect x="150" y="240" width="10" height="10" fill="#009b63"/><rect x="170" y="240" width="10" height="10" fill="#38ffb6"/><rect x="210" y="240" width="10" height="10" fill="#00ae6f"/><rect x="220" y="240" width="10" height="10" fill="#02ffa2"/><rect x="250" y="240" width="10" height="10" fill="#00a166"/><rect x="260" y="240" width="10" height="10" fill="#03ffa3"/><rect x="270" y="240" width="10" height="10" fill="#00b070"/><rect x="10" y="250" width="10" height="10" fill="#0dffa6"/><rect x="30" y="250" width="10" height="10" fill="#00ffa2"/><rect x="50" y="250" width="10" height="10" fill="#006942"/><rect x="70" y="250" width="10" height="10" fill="#03ffa3"/><rect x="80" y="250" width="10" height="10" fill="#00eb95"/><rect x="90" y="250" width="10" height="10" fill="#00eb95"/><rect x="100" y="250" width="10" height="10" fill="#00af6f"/><rect x="110" y="250" width="10" height="10" fill="#00a267"/><rect x="120" y="250" width="10" height="10" fill="#00955f"/><rect x="130" y="250" width="10" height="10" fill="#00b070"/><rect x="140" y="250" width="10" height="10" fill="#00eb95"/><rect x="160" y="250" width="10" height="10" fill="#005838"/><rect x="220" y="250" width="10" height="10" fill="#00b171"/><rect x="230" y="250" width="10" height="10" fill="#00ec96"/><rect x="240" y="250" width="10" height="10" fill="#0dffa6"/><rect x="250" y="250" width="10" height="10" fill="#00f29a"/><rect x="260" y="250" width="10" height="10" fill="#00f59b"/><rect x="0" y="260" width="10" height="10" fill="#00ed96"/><rect x="70" y="260" width="10" height="10" fill="#00ed96"/><rect x="80" y="260" width="10" height="10" fill="#009860"/><rect x="100" y="260" width="10" height="10" fill="#44ffbb"/><rect x="110" y="260" width="10" height="10" fill="#38ffb6"/><rect x="120" y="260" width="10" height="10" fill="#006842"/><rect x="140" y="260" width="10" height="10" fill="#007248"/><rect x="150" y="260" width="10" height="10" fill="#00ef98"/><rect x="160" y="260" width="10" height="10" fill="#00ac6d"/><rect x="170" y="260" width="10" height="10" fill="#47ffbc"/><rect x="180" y="260" width="10" height="10" fill="#02ffa2"/><rect x="220" y="260" width="10" height="10" fill="#1fffad"/><rect x="20" y="270" width="10" height="10" fill="#03ffa3"/><rect x="30" y="270" width="10" height="10" fill="#01ffa2"/><rect x="40" y="270" width="10" height="10" fill="#00a066"/><rect x="60" y="270" width="10" height="10" fill="#00643f"/><rect x="70" y="270" width="10" height="10" fill="#00f098"/><rect x="110" y="270" width="10" height="10" fill="#00f99e"/><rect x="130" y="270" width="10" height="10" fill="#00ab6c"/><rect x="140" y="270" width="10" height="10" fill="#00f59b"/><rect x="150" y="270" width="10" height="10" fill="#00a065"/><rect x="160" y="270" width="10" height="10" fill="#004d31"/><rect x="190" y="270" width="10" height="10" fill="#00fa9e"/><rect x="210" y="270" width="10" height="10" fill="#09ffa5"/><rect x="260" y="270" width="10" height="10" fill="#09ffa5"/><rect x="0" y="280" width="10" height="10" fill="#00b371"/><rect x="20" y="280" width="10" height="10" fill="#4bffbd"/><rect x="30" y="280" width="10" height="10" fill="#19ffab"/><rect x="40" y="280" width="10" height="10" fill="#00f69c"/><rect x="70" y="280" width="10" height="10" fill="#08ffa5"/><rect x="80" y="280" width="10" height="10" fill="#3effb9"/><rect x="90" y="280" width="10" height="10" fill="#009a62"/><rect x="110" y="280" width="10" height="10" fill="#0cffa6"/><rect x="120" y="280" width="10" height="10" fill="#02ffa3"/><rect x="140" y="280" width="10" height="10" fill="#00ea95"/><rect x="150" y="280" width="10" height="10" fill="#00f099"/><rect x="160" y="280" width="10" height="10" fill="#1effad"/><rect x="170" y="280" width="10" height="10" fill="#08ffa5"/><rect x="210" y="280" width="10" height="10" fill="#00ffa2"/><rect x="230" y="280" width="10" height="10" fill="#00f99e"/><rect x="240" y="280" width="10" height="10" fill="#00f39a"/><rect x="270" y="280" width="10" height="10" fill="#00ec96"/><rect x="0" y="290" width="10" height="10" fill="#00a066"/><rect x="10" y="290" width="10" height="10" fill="#00fca0"/><rect x="20" y="290" width="10" height="10" fill="#006e46"/><rect x="30" y="290" width="10" height="10" fill="#07ffa4"/><rect x="40" y="290" width="10" height="10" fill="#00a669"/><rect x="70" y="290" width="10" height="10" fill="#04ffa3"/><rect x="120" y="290" width="10" height="10" fill="#0bffa6"/><rect x="130" y="290" width="10" height="10" fill="#00ffa2"/><rect x="140" y="290" width="10" height="10" fill="#00fa9f"/><rect x="160" y="290" width="10" height="10" fill="#00f79d"/><rect x="170" y="290" width="10" height="10" fill="#00f99e"/><rect x="190" y="290" width="10" height="10" fill="#00f79d"/><rect x="200" y="290" width="10" height="10" fill="#00a065"/><rect x="220" y="290" width="10" height="10" fill="#007248"/><rect x="230" y="290" width="10" height="10" fill="#00ac6d"/><rect x="240" y="290" width="10" height="10" fill="#00fba0"/><rect x="260" y="290" width="10" height="10" fill="#00fda0"/><rect x="270" y="290" width="10" height="10" fill="#00ed96"/><rect x="30" y="300" width="10" height="10" fill="#0affa6"/><rect x="40" y="300" width="10" height="10" fill="#48ffbc"/><rect x="50" y="300" width="10" height="10" fill="#00f39a"/><rect x="70" y="300" width="10" height="10" fill="#00a76a"/><rect x="80" y="300" width="10" height="10" fill="#0dffa6"/><rect x="90" y="300" width="10" height="10" fill="#00a76a"/><rect x="110" y="300" width="10" height="10" fill="#18ffab"/><rect x="120" y="300" width="10" height="10" fill="#38ffb6"/><rect x="130" y="300" width="10" height="10" fill="#0cffa6"/><rect x="150" y="300" width="10" height="10" fill="#00f29a"/><rect x="160" y="300" width="10" height="10" fill="#00fca0"/><rect x="170" y="300" width="10" height="10" fill="#00754a"/><rect x="180" y="300" width="10" height="10" fill="#2dffb2"/><rect x="190" y="300" width="10" height="10" fill="#30ffb3"/><rect x="210" y="300" width="10" height="10" fill="#005637"/><rect x="260" y="300" width="10" height="10" fill="#003d27"/><rect x="270" y="300" width="10" height="10" fill="#00ef98"/><rect x="10" y="310" width="10" height="10" fill="#00f99e"/><rect x="30" y="310" width="10" height="10" fill="#0dffa7"/><rect x="60" y="310" width="10" height="10" fill="#3dffb8"/><rect x="70" y="310" width="10" height="10" fill="#06ffa4"/><rect x="80" y="310" width="10" height="10" fill="#49ffbc"/><rect x="100" y="310" width="10" height="10" fill="#23ffaf"/><rect x="110" y="310" width="10" height="10" fill="#00f099"/><rect x="140" y="310" width="10" height="10" fill="#00965f"/><rect x="150" y="310" width="10" height="10" fill="#009e64"/><rect x="170" y="310" width="10" height="10" fill="#40ffb9"/><rect x="190" y="310" width="10" height="10" fill="#009a62"/><rect x="210" y="310" width="10" height="10" fill="#09ffa5"/><rect x="230" y="310" width="10" height="10" fill="#31ffb4"/><rect x="240" y="310" width="10" height="10" fill="#00f99e"/><rect x="250" y="310" width="10" height="10" fill="#00af6f"/><rect x="260" y="310" width="10" height="10" fill="#00f99e"/><rect x="10" y="320" width="10" height="10" fill="#00a065"/><rect x="30" y="320" width="10" height="10" fill="#03ffa3"/><rect x="120" y="320" width="10" height="10" fill="#3bffb8"/><rect x="140" y="320" width="10" height="10" fill="#21ffae"/><rect x="150" y="320" width="10" height="10" fill="#00fa9f"/><rect x="160" y="320" width="10" height="10" fill="#003b25"/><rect x="180" y="320" width="10" height="10" fill="#00f39a"/><rect x="190" y="320" width="10" height="10" fill="#00ffa2"/><rect x="210" y="320" width="10" height="10" fill="#006741"/><rect x="220" y="320" width="10" height="10" fill="#00b573"/><rect x="250" y="320" width="10" height="10" fill="#0bffa6"/><rect x="260" y="320" width="10" height="10" fill="#0bffa6"/><rect x="10" y="330" width="10" height="10" fill="#39ffb7"/><rect x="40" y="330" width="10" height="10" fill="#04ffa3"/><rect x="50" y="330" width="10" height="10" fill="#00ffa2"/><rect x="80" y="330" width="10" height="10" fill="#0bffa6"/><rect x="90" y="330" width="10" height="10" fill="#00b06f"/><rect x="110" y="330" width="10" height="10" fill="#00462d"/><rect x="130" y="330" width="10" height="10" fill="#0cffa6"/><rect x="160" y="330" width="10" height="10" fill="#005737"/><rect x="180" y="330" width="10" height="10" fill="#009b62"/><rect x="200" y="330" width="10" height="10" fill="#39ffb7"/><rect x="210" y="330" width="10" height="10" fill="#00ab6d"/><rect x="220" y="330" width="10" height="10" fill="#00b271"/><rect x="250" y="330" width="10" height="10" fill="#00ac6d"/><rect x="0" y="340" width="10" height="10" fill="#21ffae"/><rect x="20" y="340" width="10" height="10" fill="#005234"/><rect x="40" y="340" width="10" height="10" fill="#42ffba"/><rect x="70" y="340" width="10" height="10" fill="#009d64"/><rect x="90" y="340" width="10" height="10" fill="#007a4e"/><rect x="140" y="340" width="10" height="10" fill="#25ffaf"/><rect x="160" y="340" width="10" height="10" fill="#00784c"/><rect x="170" y="340" width="10" height="10" fill="#00462c"/><rect x="180" y="340" width="10" height="10" fill="#00af6f"/><rect x="190" y="340" width="10" height="10" fill="#3affb7"/><rect x="200" y="340" width="10" height="10" fill="#38ffb6"/><rect x="220" y="340" width="10" height="10" fill="#00fa9f"/><rect x="230" y="340" width="10" height="10" fill="#06ffa4"/><rect x="240" y="340" width="10" height="10" fill="#00623e"/><rect x="10" y="350" width="10" height="10" fill="#006b44"/><rect x="30" y="350" width="10" height="10" fill="#19ffab"/><rect x="50" y="350" width="10" height="10" fill="#00f89d"/><rect x="60" y="350" width="10" height="10" fill="#00f199"/><rect x="70" y="350" width="10" height="10" fill="#06ffa4"/><rect x="150" y="350" width="10" height="10" fill="#00945e"/><rect x="160" y="350" width="10" height="10" fill="#00af6f"/><rect x="170" y="350" width="10" height="10" fill="#007c4f"/><rect x="180" y="350" width="10" height="10" fill="#00f89d"/><rect x="200" y="350" width="10" height="10" fill="#00ae6f"/><rect x="210" y="350" width="10" height="10" fill="#00ac6d"/><rect x="230" y="350" width="10" height="10" fill="#33ffb5"/><rect x="250" y="350" width="10" height="10" fill="#00a669"/><rect x="270" y="350" width="10" height="10" fill="#009961"/></svg>