<svg xmlns="http://www.w3.org/2000/svg" viewBox="0 0 280 360" width="280" height="360" shape-rendering="crispEdges" preserveAspectRatio="xMidYMid slice"><rect width="280" height="360" fill="#d9d613"/><rect x="0" y="0" width="10" height="10" fill="#8a880c"/><rect x="10" y="0" width="10" height="10" fill="#b2af10"/><rect x="20" y="0" width="10" height="10" fill="#73720a"/><rect x="30" y="0" width="10" height="10" fill="#efed4c"/><rect x="40" y="0" width="10" height="10" fill="#73710a"/><rect x="70" y="0" width="10" height="10" fill="#ebe81c"/><rect x="140" y="0" width="10" height="10" fill="#b4b110"/><rect x="150" y="0" width="10" height="10" fill="#f2f06f"/><rect x="160" y="0" width="10" height="10" fill="#f3f171"/><rect x="170" y="0" width="10" height="10" fill="#edea31"/><rect x="180" y="0" width="10" height="10" fill="#f1ef5e"/><rect x="200" y="0" width="10" height="10" fill="#edea2c"/><rect x="240" y="0" width="10" height="10" fill="#edeb35"/><rect x="250" y="0" width="10" height="10" fill="#ece929"/><rect x="0" y="10" width="10" height="10" fill="#edea2c"/><rect x="60" y="10" width="10" height="10" fill="#ece925"/><rect x="70" y="10" width="10" height="10" fill="#ece929"/><rect x="80" y="10" width="10" height="10" fill="#edea33"/><rect x="90" y="10" width="10" height="10" fill="#bdba11"/><rect x="100" y="10" width="10" height="10" fill="#565508"/><rect x="110" y="10" width="10" height="10" fill="#b3b010"/><rect x="120" y="10" width="10" height="10" fill="#595708"/><rect x="140" y="10" width="10" height="10" fill="#edeb36"/><rect x="150" y="10" width="10" height="10" fill="#a4a20e"/><rect x="160" y="10" width="10" height="10" fill="#edea31"/><rect x="180" y="10" width="10" height="10" fill="#ebe81f"/><rect x="190" y="10" width="10" height="10" fill="#a4a20e"/><rect x="230" y="10" width="10" height="10" fill="#ebe820"/><rect x="240" y="10" width="10" height="10" fill="#aeab0f"/><rect x="250" y="10" width="10" height="10" fill="#edea31"/><rect x="10" y="20" width="10" height="10" fill="#edea35"/><rect x="30" y="20" width="10" height="10" fill="#eeeb3b"/><rect x="70" y="20" width="10" height="10" fill="#bfbc11"/><rect x="80" y="20" width="10" height="10" fill="#b9b610"/><rect x="90" y="20" width="10" height="10" fill="#a4a20e"/><rect x="100" y="20" width="10" height="10" fill="#bbb910"/><rect x="110" y="20" width="10" height="10" fill="#ece925"/><rect x="120" y="20" width="10" height="10" fill="#f0ee53"/><rect x="170" y="20" width="10" height="10" fill="#b7b410"/><rect x="190" y="20" width="10" height="10" fill="#f0ed51"/><rect x="200" y="20" width="10" height="10" fill="#aba90f"/><rect x="210" y="20" width="10" height="10" fill="#edea30"/><rect x="220" y="20" width="10" height="10" fill="#edeb36"/><rect x="230" y="20" width="10" height="10" fill="#ece923"/><rect x="240" y="20" width="10" height="10" fill="#ecea2b"/><rect x="250" y="20" width="10" height="10" fill="#efed4a"/><rect x="270" y="20" width="10" height="10" fill="#8a880c"/><rect x="0" y="30" width="10" height="10" fill="#a4a20e"/><rect x="10" y="30" width="10" height="10" fill="#ebe81c"/><rect x="20" y="30" width="10" height="10" fill="#b9b610"/><rect x="30" y="30" width="10" height="10" fill="#edeb35"/><rect x="90" y="30" width="10" height="10" fill="#edeb36"/><rect x="110" y="30" width="10" height="10" fill="#edea35"/><rect x="120" y="30" width="10" height="10" fill="#b9b610"/><rect x="130" y="30" width="10" height="10" fill="#edea31"/><rect x="140" y="30" width="10" height="10" fill="#eeeb3b"/><rect x="150" y="30" width="10" height="10" fill="#f3f172"/><rect x="180" y="30" width="10" height="10" fill="#edea2e"/><rect x="210" y="30" width="10" height="10" fill="#a7a50f"/><rect x="240" y="30" width="10" height="10" fill="#b4b110"/><rect x="260" y="30" width="10" height="10" fill="#78770b"/><rect x="20" y="40" width="10" height="10" fill="#edea34"/><rect x="50" y="40" width="10" height="10" fill="#f1ee5c"/><rect x="60" y="40" width="10" height="10" fill="#f2f06f"/><rect x="70" y="40" width="10" height="10" fill="#acaa0f"/><rect x="90" y="40" width="10" height="10" fill="#7a790b"/><rect x="110" y="40" width="10" height="10" fill="#edea2c"/><rect x="120" y="40" width="10" height="10" fill="#b0ad0f"/><rect x="130" y="40" width="10" height="10" fill="#f2f06a"/><rect x="140" y="40" width="10" height="10" fill="#ece924"/><rect x="150" y="40" width="10" height="10" fill="#ecea2b"/><rect x="160" y="40" width="10" height="10" fill="#b9b610"/><rect x="170" y="40" width="10" height="10" fill="#aaa80f"/><rect x="190" y="40" width="10" height="10" fill="#f1ee5b"/><rect x="230" y="40" width="10" height="10" fill="#a3a10e"/><rect x="250" y="40" width="10" height="10" fill="#ece92a"/><rect x="270" y="40" width="10" height="10" fill="#f0ee58"/><rect x="30" y="50" width="10" height="10" fill="#bcb910"/><rect x="50" y="50" width="10" height="10" fill="#f0ee53"/><rect x="60" y="50" width="10" height="10" fill="#efec45"/><rect x="100" y="50" width="10" height="10" fill="#ece925"/><rect x="110" y="50" width="10" height="10" fill="#504f07"/><rect x="120" y="50" width="10" height="10" fill="#eeeb3b"/><rect x="130" y="50" width="10" height="10" fill="#f3f172"/><rect x="140" y="50" width="10" height="10" fill="#ebe81e"/><rect x="150" y="50" width="10" height="10" fill="#ebe81c"/><rect x="170" y="50" width="10" height="10" fill="#74720a"/><rect x="180" y="50" width="10" height="10" fill="#eeeb3a"/><rect x="190" y="50" width="10" height="10" fill="#b5b210"/><rect x="200" y="50" width="10" height="10" fill="#ebe81f"/><rect x="210" y="50" width="10" height="10" fill="#acaa0f"/><rect x="240" y="50" width="10" height="10" fill="#efec47"/><rect x="260" y="50" width="10" height="10" fill="#edea34"/><rect x="270" y="50" width="10" height="10" fill="#edea2f"/><rect x="10" y="60" width="10" height="10" fill="#edea2d"/><rect x="30" y="60" width="10" height="10" fill="#ece923"/><rect x="50" y="60" width="10" height="10" fill="#a6a40f"/><rect x="80" y="60" width="10" height="10" fill="#eeeb39"/><rect x="90" y="60" width="10" height="10" fill="#ece926"/><rect x="100" y="60" width="10" height="10" fill="#a4a10e"/><rect x="140" y="60" width="10" height="10" fill="#b0ae0f"/><rect x="210" y="60" width="10" height="10" fill="#ece92a"/><rect x="230" y="60" width="10" height="10" fill="#b6b410"/><rect x="260" y="60" width="10" height="10" fill="#eeeb3b"/><rect x="270" y="60" width="10" height="10" fill="#c2bf11"/><rect x="0" y="70" width="10" height="10" fill="#b0ae0f"/><rect x="10" y="70" width="10" height="10" fill="#ebe81c"/><rect x="60" y="70" width="10" height="10" fill="#a8a60f"/><rect x="130" y="70" width="10" height="10" fill="#f2f067"/><rect x="150" y="70" width="10" height="10" fill="#a19f0e"/><rect x="160" y="70" width="10" height="10" fill="#efed4d"/><rect x="170" y="70" width="10" height="10" fill="#eeeb3a"/><rect x="190" y="70" width="10" height="10" fill="#edea2f"/><rect x="200" y="70" width="10" height="10" fill="#585708"/><rect x="220" y="70" width="10" height="10" fill="#ece921"/><rect x="230" y="70" width="10" height="10" fill="#bab710"/><rect x="240" y="70" width="10" height="10" fill="#ebe81f"/><rect x="250" y="70" width="10" height="10" fill="#a7a50f"/><rect x="10" y="80" width="10" height="10" fill="#ece922"/><rect x="20" y="80" width="10" height="10" fill="#f2f06c"/><rect x="70" y="80" width="10" height="10" fill="#edea32"/><rect x="90" y="80" width="10" height="10" fill="#ebe820"/><rect x="110" y="80" width="10" height="10" fill="#bfbc11"/><rect x="130" y="80" width="10" height="10" fill="#ece92b"/><rect x="150" y="80" width="10" height="10" fill="#a19f0e"/><rect x="170" y="80" width="10" height="10" fill="#504f07"/><rect x="180" y="80" width="10" height="10" fill="#b8b510"/><rect x="190" y="80" width="10" height="10" fill="#eeeb39"/><rect x="200" y="80" width="10" height="10" fill="#b2b010"/><rect x="240" y="80" width="10" height="10" fill="#b4b210"/><rect x="250" y="80" width="10" height="10" fill="#ece821"/><rect x="20" y="90" width="10" height="10" fill="#edea30"/><rect x="30" y="90" width="10" height="10" fill="#b5b210"/><rect x="40" y="90" width="10" height="10" fill="#eeeb39"/><rect x="60" y="90" width="10" height="10" fill="#ece922"/><rect x="70" y="90" width="10" height="10" fill="#84830c"/><rect x="100" y="90" width="10" height="10" fill="#aba90f"/><rect x="170" y="90" width="10" height="10" fill="#a19f0e"/><rect x="200" y="90" width="10" height="10" fill="#edea2e"/><rect x="230" y="90" width="10" height="10" fill="#b5b310"/><rect x="250" y="90" width="10" height="10" fill="#ebe81d"/><rect x="10" y="100" width="10" height="10" fill="#edea32"/><rect x="20" y="100" width="10" height="10" fill="#616008"/><rect x="40" y="100" width="10" height="10" fill="#ece923"/><rect x="60" y="100" width="10" height="10" fill="#ece925"/><rect x="70" y="100" width="10" height="10" fill="#f1ef5d"/><rect x="110" y="100" width="10" height="10" fill="#f2f170"/><rect x="130" y="100" width="10" height="10" fill="#f2f067"/><rect x="140" y="100" width="10" height="10" fill="#acaa0f"/><rect x="150" y="100" width="10" height="10" fill="#bfbc11"/><rect x="160" y="100" width="10" height="10" fill="#ece92a"/><rect x="190" y="100" width="10" height="10" fill="#edea34"/><rect x="200" y="100" width="10" height="10" fill="#ebe81c"/><rect x="220" y="100" width="10" height="10" fill="#edea30"/><rect x="250" y="100" width="10" height="10" fill="#f3f173"/><rect x="260" y="100" width="10" height="10" fill="#f1ef62"/><rect x="30" y="110" width="10" height="10" fill="#f3f170"/><rect x="50" y="110" width="10" height="10" fill="#eeeb37"/><rect x="60" y="110" width="10" height="10" fill="#6b6909"/><rect x="80" y="110" width="10" height="10" fill="#ebe81e"/><rect x="90" y="110" width="10" height="10" fill="#a5a30e"/><rect x="100" y="110" width="10" height="10" fill="#f2f068"/><rect x="120" y="110" width="10" height="10" fill="#ece922"/><rect x="140" y="110" width="10" height="10" fill="#bfbd11"/><rect x="150" y="110" width="10" height="10" fill="#ece925"/><rect x="160" y="110" width="10" height="10" fill="#ece926"/><rect x="170" y="110" width="10" height="10" fill="#eeeb39"/><rect x="190" y="110" width="10" height="10" fill="#ecea2b"/><rect x="200" y="110" width="10" height="10" fill="#f0ee53"/><rect x="210" y="110" width="10" height="10" fill="#676509"/><rect x="240" y="110" width="10" height="10" fill="#edea2e"/><rect x="250" y="110" width="10" height="10" fill="#f1ee5c"/><rect x="260" y="110" width="10" height="10" fill="#f1ef60"/><rect x="0" y="120" width="10" height="10" fill="#f1ef62"/><rect x="40" y="120" width="10" height="10" fill="#a3a10e"/><rect x="50" y="120" width="10" height="10" fill="#6c6b09"/><rect x="70" y="120" width="10" height="10" fill="#edea2f"/><rect x="80" y="120" width="10" height="10" fill="#75740a"/><rect x="90" y="120" width="10" height="10" fill="#f1ee5a"/><rect x="100" y="120" width="10" height="10" fill="#edea33"/><rect x="140" y="120" width="10" height="10" fill="#edea31"/><rect x="170" y="120" width="10" height="10" fill="#b9b610"/><rect x="200" y="120" width="10" height="10" fill="#ece92a"/><rect x="220" y="120" width="10" height="10" fill="#8c8a0c"/><rect x="230" y="120" width="10" height="10" fill="#b8b510"/><rect x="20" y="130" width="10" height="10" fill="#8a880c"/><rect x="30" y="130" width="10" height="10" fill="#ece923"/><rect x="60" y="130" width="10" height="10" fill="#ece924"/><rect x="100" y="130" width="10" height="10" fill="#bab710"/><rect x="110" y="130" width="10" height="10" fill="#ece922"/><rect x="140" y="130" width="10" height="10" fill="#bebb11"/><rect x="150" y="130" width="10" height="10" fill="#c0be11"/><rect x="160" y="130" width="10" height="10" fill="#ece924"/><rect x="200" y="130" width="10" height="10" fill="#edea2f"/><rect x="210" y="130" width="10" height="10" fill="#ece922"/><rect x="220" y="130" width="10" height="10" fill="#edeb37"/><rect x="240" y="130" width="10" height="10" fill="#a7a50f"/><rect x="260" y="130" width="10" height="10" fill="#ece927"/><rect x="270" y="130" width="10" height="10" fill="#c0bd11"/><rect x="0" y="140" width="10" height="10" fill="#a2a00e"/><rect x="10" y="140" width="10" height="10" fill="#f3f173"/><rect x="50" y="140" width="10" height="10" fill="#bebb11"/><rect x="60" y="140" width="10" height="10" fill="#73710a"/><rect x="80" y="140" width="10" height="10" fill="#edea2f"/><rect x="90" y="140" width="10" height="10" fill="#b8b510"/><rect x="100" y="140" width="10" height="10" fill="#ece929"/><rect x="120" y="140" width="10" height="10" fill="#eeeb39"/><rect x="140" y="140" width="10" height="10" fill="#7c7a0b"/><rect x="160" y="140" width="10" height="10" fill="#edea2e"/><rect x="170" y="140" width="10" height="10" fill="#b9b710"/><rect x="190" y="140" width="10" height="10" fill="#ebe820"/><rect x="210" y="140" width="10" height="10" fill="#ebe81c"/><rect x="240" y="140" width="10" height="10" fill="#ece929"/><rect x="250" y="140" width="10" height="10" fill="#ecea2b"/><rect x="260" y="140" width="10" height="10" fill="#eeeb38"/><rect x="270" y="140" width="10" height="10" fill="#bdba11"/><rect x="80" y="150" width="10" height="10" fill="#a3a10e"/><rect x="100" y="150" width="10" height="10" fill="#edeb35"/><rect x="120" y="150" width="10" height="10" fill="#f0ee55"/><rect x="130" y="150" width="10" height="10" fill="#76740a"/><rect x="140" y="150" width="10" height="10" fill="#edea31"/><rect x="160" y="150" width="10" height="10" fill="#efed4b"/><rect x="170" y="150" width="10" height="10" fill="#a8a50f"/><rect x="180" y="150" width="10" height="10" fill="#f1ef60"/><rect x="190" y="150" width="10" height="10" fill="#bcb910"/><rect x="200" y="150" width="10" height="10" fill="#bebc11"/><rect x="210" y="150" width="10" height="10" fill="#f3f171"/><rect x="230" y="150" width="10" height="10" fill="#f1ef63"/><rect x="240" y="150" width="10" height="10" fill="#a19f0e"/><rect x="260" y="150" width="10" height="10" fill="#edea34"/><rect x="270" y="150" width="10" height="10" fill="#edea34"/><rect x="0" y="160" width="10" height="10" fill="#595808"/><rect x="10" y="160" width="10" height="10" fill="#f1ef62"/><rect x="40" y="160" width="10" height="10" fill="#aaa70f"/><rect x="50" y="160" width="10" height="10" fill="#f0ed51"/><rect x="60" y="160" width="10" height="10" fill="#ebe820"/><rect x="70" y="160" width="10" height="10" fill="#595808"/><rect x="80" y="160" width="10" height="10" fill="#a3a10e"/><rect x="90" y="160" width="10" height="10" fill="#efed49"/><rect x="100" y="160" width="10" height="10" fill="#ece928"/><rect x="110" y="160" width="10" height="10" fill="#ebe81f"/><rect x="130" y="160" width="10" height="10" fill="#646309"/><rect x="140" y="160" width="10" height="10" fill="#a8a60f"/><rect x="150" y="160" width="10" height="10" fill="#bfbc11"/><rect x="160" y="160" width="10" height="10" fill="#edea30"/><rect x="170" y="160" width="10" height="10" fill="#b4b210"/><rect x="200" y="160" width="10" height="10" fill="#b8b610"/><rect x="220" y="160" width="10" height="10" fill="#f2f06b"/><rect x="240" y="160" width="10" height="10" fill="#afac0f"/><rect x="250" y="160" width="10" height="10" fill="#bebb11"/><rect x="260" y="160" width="10" height="10" fill="#a4a20e"/><rect x="270" y="160" width="10" height="10" fill="#a19f0e"/><rect x="10" y="170" width="10" height="10" fill="#ebe81e"/><rect x="40" y="170" width="10" height="10" fill="#a2a00e"/><rect x="50" y="170" width="10" height="10" fill="#5f5d08"/><rect x="70" y="170" width="10" height="10" fill="#a8a50f"/><rect x="110" y="170" width="10" height="10" fill="#f0ed4f"/><rect x="120" y="170" width="10" height="10" fill="#ebe81c"/><rect x="140" y="170" width="10" height="10" fill="#f1ef64"/><rect x="160" y="170" width="10" height="10" fill="#73720a"/><rect x="170" y="170" width="10" height="10" fill="#efec48"/><rect x="190" y="170" width="10" height="10" fill="#b6b410"/><rect x="210" y="170" width="10" height="10" fill="#bcba10"/><rect x="220" y="170" width="10" height="10" fill="#f2f068"/><rect x="240" y="170" width="10" height="10" fill="#6f6e0a"/><rect x="0" y="180" width="10" height="10" fill="#515007"/><rect x="20" y="180" width="10" height="10" fill="#a3a10e"/><rect x="30" y="180" width="10" height="10" fill="#c0bd11"/><rect x="40" y="180" width="10" height="10" fill="#6e6c0a"/><rect x="70" y="180" width="10" height="10" fill="#bcba11"/><rect x="100" y="180" width="10" height="10" fill="#83810b"/><rect x="110" y="180" width="10" height="10" fill="#ebe81c"/><rect x="140" y="180" width="10" height="10" fill="#605e08"/><rect x="150" y="180" width="10" height="10" fill="#ece922"/><rect x="250" y="180" width="10" height="10" fill="#525107"/><rect x="10" y="190" width="10" height="10" fill="#ebe81c"/><rect x="130" y="190" width="10" height="10" fill="#b6b310"/><rect x="150" y="190" width="10" height="10" fill="#ece92a"/><rect x="190" y="190" width="10" height="10" fill="#edea2d"/><rect x="210" y="190" width="10" height="10" fill="#807e0b"/><rect x="220" y="190" width="10" height="10" fill="#f0ed51"/><rect x="230" y="190" width="10" height="10" fill="#edea2c"/><rect x="240" y="190" width="10" height="10" fill="#686709"/><rect x="260" y="190" width="10" height="10" fill="#b4b210"/><rect x="10" y="200" width="10" height="10" fill="#f1ef5c"/><rect x="30" y="200" width="10" height="10" fill="#b0ad0f"/><rect x="40" y="200" width="10" height="10" fill="#edea33"/><rect x="50" y="200" width="10" height="10" fill="#f2f06a"/><rect x="60" y="200" width="10" height="10" fill="#7b790b"/><rect x="70" y="200" width="10" height="10" fill="#bcba11"/><rect x="90" y="200" width="10" height="10" fill="#b5b310"/><rect x="110" y="200" width="10" height="10" fill="#4f4e07"/><rect x="120" y="200" width="10" height="10" fill="#b2af10"/><rect x="130" y="200" width="10" height="10" fill="#f2f06b"/><rect x="140" y="200" width="10" height="10" fill="#87850c"/><rect x="210" y="200" width="10" height="10" fill="#c1be11"/><rect x="240" y="200" width="10" height="10" fill="#f0ed4f"/><rect x="270" y="200" width="10" height="10" fill="#eeeb3a"/><rect x="0" y="210" width="10" height="10" fill="#c1be11"/><rect x="10" y="210" width="10" height="10" fill="#f0ee58"/><rect x="20" y="210" width="10" height="10" fill="#6f6e0a"/><rect x="30" y="210" width="10" height="10" fill="#f3f172"/><rect x="60" y="210" width="10" height="10" fill="#f0ed4f"/><rect x="120" y="210" width="10" height="10" fill="#eeeb3b"/><rect x="130" y="210" width="10" height="10" fill="#f2f067"/><rect x="160" y="210" width="10" height="10" fill="#efec47"/><rect x="180" y="210" width="10" height="10" fill="#eeeb39"/><rect x="200" y="210" width="10" height="10" fill="#ebe81d"/><rect x="210" y="210" width="10" height="10" fill="#f1ef5e"/><rect x="220" y="210" width="10" height="10" fill="#bcba11"/><rect x="230" y="210" width="10" height="10" fill="#6d6c0a"/><rect x="240" y="210" width="10" height="10" fill="#edeb37"/><rect x="260" y="210" width="10" height="10" fill="#afad0f"/><rect x="10" y="220" width="10" height="10" fill="#ece928"/><rect x="50" y="220" width="10" height="10" fill="#ece929"/><rect x="60" y="220" width="10" height="10" fill="#edea30"/><rect x="70" y="220" width="10" height="10" fill="#7f7d0b"/><rect x="80" y="220" width="10" height="10" fill="#ebe81e"/><rect x="100" y="220" width="10" height="10" fill="#b3b110"/><rect x="120" y="220" width="10" height="10" fill="#6d6c0a"/><rect x="130" y="220" width="10" height="10" fill="#efed4b"/><rect x="140" y="220" width="10" height="10" fill="#b5b210"/><rect x="160" y="220" width="10" height="10" fill="#b9b710"/><rect x="190" y="220" width="10" height="10" fill="#bebb11"/><rect x="200" y="220" width="10" height="10" fill="#b6b410"/><rect x="240" y="220" width="10" height="10" fill="#a9a70f"/><rect x="250" y="220" width="10" height="10" fill="#ecea2b"/><rect x="260" y="220" width="10" height="10" fill="#edea34"/><rect x="270" y="220" width="10" height="10" fill="#afad0f"/><rect x="30" y="230" width="10" height="10" fill="#ece92a"/><rect x="70" y="230" width="10" height="10" fill="#b6b410"/><rect x="80" y="230" width="10" height="10" fill="#504f07"/><rect x="100" y="230" width="10" height="10" fill="#bfbc11"/><rect x="120" y="230" width="10" height="10" fill="#f0ee59"/><rect x="130" y="230" width="10" height="10" fill="#f2f06e"/><rect x="140" y="230" width="10" height="10" fill="#efec45"/><rect x="160" y="230" width="10" height="10" fill="#b6b310"/><rect x="170" y="230" width="10" height="10" fill="#eeeb38"/><rect x="180" y="230" width="10" height="10" fill="#ebe81c"/><rect x="190" y="230" width="10" height="10" fill="#edeb35"/><rect x="200" y="230" width="10" height="10" fill="#edea34"/><rect x="210" y="230" width="10" height="10" fill="#84820c"/><rect x="230" y="230" width="10" height="10" fill="#f1ef62"/><rect x="250" y="230" width="10" height="10" fill="#b8b610"/><rect x="0" y="240" width="10" height="10" fill="#6e6c0a"/><rect x="20" y="240" width="10" height="10" fill="#ece922"/><rect x="30" y="240" width="10" height="10" fill="#ebe81f"/><rect x="50" y="240" width="10" height="10" fill="#a9a70f"/><rect x="80" y="240" width="10" height="10" fill="#b5b210"/><rect x="120" y="240" width="10" height="10" fill="#bebb11"/><rect x="130" y="240" width="10" height="10" fill="#edea33"/><rect x="150" y="240" width="10" height="10" fill="#ece924"/><rect x="160" y="240" width="10" height="10" fill="#8b890c"/><rect x="180" y="240" width="10" height="10" fill="#afac0f"/><rect x="190" y="240" width="10" height="10" fill="#ece924"/><rect x="210" y="240" width="10" height="10" fill="#edea30"/><rect x="220" y="240" width="10" height="10" fill="#ece924"/><rect x="250" y="240" width="10" height="10" fill="#535207"/><rect x="0" y="250" width="10" height="10" fill="#ebe81d"/><rect x="10" y="250" width="10" height="10" fill="#b7b410"/><rect x="20" y="250" width="10" height="10" fill="#aaa80f"/><rect x="30" y="250" width="10" height="10" fill="#edea31"/><rect x="40" y="250" width="10" height="10" fill="#edea32"/><rect x="70" y="250" width="10" height="10" fill="#bfbc11"/><rect x="110" y="250" width="10" height="10" fill="#ecea2c"/><rect x="120" y="250" width="10" height="10" fill="#f2f06d"/><rect x="140" y="250" width="10" height="10" fill="#eeeb3a"/><rect x="160" y="250" width="10" height="10" fill="#686709"/><rect x="170" y="250" width="10" height="10" fill="#edea31"/><rect x="180" y="250" width="10" height="10" fill="#eeeb3a"/><rect x="190" y="250" width="10" height="10" fill="#bebb11"/><rect x="200" y="250" width="10" height="10" fill="#ece925"/><rect x="220" y="250" width="10" height="10" fill="#595808"/><rect x="260" y="250" width="10" height="10" fill="#a4a20e"/><rect x="40" y="260" width="10" height="10" fill="#eeeb3a"/><rect x="50" y="260" width="10" height="10" fill="#ebe81d"/><rect x="80" y="260" width="10" height="10" fill="#aba80f"/><rect x="110" y="260" width="10" height="10" fill="#bbb810"/><rect x="120" y="260" width="10" height="10" fill="#c0bd11"/><rect x="130" y="260" width="10" height="10" fill="#ece925"/><rect x="140" y="260" width="10" height="10" fill="#aeac0f"/><rect x="150" y="260" width="10" height="10" fill="#f2f06a"/><rect x="180" y="260" width="10" height="10" fill="#edea34"/><rect x="200" y="260" width="10" height="10" fill="#afad0f"/><rect x="230" y="260" width="10" height="10" fill="#ece923"/><rect x="240" y="260" width="10" height="10" fill="#efec45"/><rect x="260" y="260" width="10" height="10" fill="#aaa80f"/><rect x="270" y="260" width="10" height="10" fill="#eeeb3a"/><rect x="0" y="270" width="10" height="10" fill="#ece929"/><rect x="10" y="270" width="10" height="10" fill="#edea30"/><rect x="50" y="270" width="10" height="10" fill="#b5b210"/><rect x="60" y="270" width="10" height="10" fill="#b9b610"/><rect x="70" y="270" width="10" height="10" fill="#efed4a"/><rect x="80" y="270" width="10" height="10" fill="#acaa0f"/><rect x="120" y="270" width="10" height="10" fill="#eeeb37"/><rect x="150" y="270" width="10" height="10" fill="#7a780b"/><rect x="180" y="270" width="10" height="10" fill="#f1ef61"/><rect x="200" y="270" width="10" height="10" fill="#edeb36"/><rect x="230" y="270" width="10" height="10" fill="#83810b"/><rect x="260" y="270" width="10" height="10" fill="#a8a60f"/><rect x="50" y="280" width="10" height="10" fill="#eeeb3a"/><rect x="60" y="280" width="10" height="10" fill="#4e4d07"/><rect x="80" y="280" width="10" height="10" fill="#ece926"/><rect x="110" y="280" width="10" height="10" fill="#ece820"/><rect x="130" y="280" width="10" height="10" fill="#edea2c"/><rect x="140" y="280" width="10" height="10" fill="#ece92b"/><rect x="170" y="280" width="10" height="10" fill="#edeb37"/><rect x="200" y="280" width="10" height="10" fill="#8c8a0c"/><rect x="210" y="280" width="10" height="10" fill="#bdba11"/><rect x="220" y="280" width="10" height="10" fill="#c0bd11"/><rect x="240" y="280" width="10" height="10" fill="#efed4c"/><rect x="250" y="280" width="10" height="10" fill="#efec46"/><rect x="260" y="280" width="10" height="10" fill="#f2f067"/><rect x="270" y="280" width="10" height="10" fill="#b1af10"/><rect x="0" y="290" width="10" height="10" fill="#ece929"/><rect x="20" y="290" width="10" height="10" fill="#f2f069"/><rect x="30" y="290" width="10" height="10" fill="#edea34"/><rect x="60" y="290" width="10" height="10" fill="#a2a00e"/><rect x="90" y="290" width="10" height="10" fill="#89870c"/><rect x="110" y="290" width="10" height="10" fill="#ece929"/><rect x="160" y="290" width="10" height="10" fill="#efed4c"/><rect x="170" y="290" width="10" height="10" fill="#efed4d"/><rect x="180" y="290" width="10" height="10" fill="#edea31"/><rect x="220" y="290" width="10" height="10" fill="#f0ed50"/><rect x="230" y="290" width="10" height="10" fill="#b6b310"/><rect x="270" y="290" width="10" height="10" fill="#605f08"/><rect x="0" y="300" width="10" height="10" fill="#a8a60f"/><rect x="20" y="300" width="10" height="10" fill="#ece927"/><rect x="40" y="300" width="10" height="10" fill="#b4b110"/><rect x="50" y="300" width="10" height="10" fill="#ece925"/><rect x="60" y="300" width="10" height="10" fill="#b5b210"/><rect x="80" y="300" width="10" height="10" fill="#f2ef65"/><rect x="120" y="300" width="10" height="10" fill="#ecea2c"/><rect x="130" y="300" width="10" height="10" fill="#6d6b0a"/><rect x="160" y="300" width="10" height="10" fill="#bbb810"/><rect x="190" y="300" width="10" height="10" fill="#ebe81e"/><rect x="210" y="300" width="10" height="10" fill="#ece926"/><rect x="220" y="300" width="10" height="10" fill="#edea33"/><rect x="230" y="300" width="10" height="10" fill="#f1ef63"/><rect x="240" y="300" width="10" height="10" fill="#595808"/><rect x="270" y="300" width="10" height="10" fill="#edea32"/><rect x="0" y="310" width="10" height="10" fill="#7d7b0b"/><rect x="10" y="310" width="10" height="10" fill="#adab0f"/><rect x="20" y="310" width="10" height="10" fill="#f0ed4f"/><rect x="50" y="310" width="10" height="10" fill="#edea2e"/><rect x="60" y="310" width="10" height="10" fill="#edea31"/><rect x="70" y="310" width="10" height="10" fill="#ece924"/><rect x="90" y="310" width="10" height="10" fill="#edea33"/><rect x="130" y="310" width="10" height="10" fill="#efed4a"/><rect x="150" y="310" width="10" height="10" fill="#edea32"/><rect x="190" y="310" width="10" height="10" fill="#f2f06d"/><rect x="220" y="310" width="10" height="10" fill="#edea31"/><rect x="240" y="310" width="10" height="10" fill="#afad0f"/><rect x="250" y="310" width="10" height="10" fill="#f2ef66"/><rect x="260" y="310" width="10" height="10" fill="#eeeb37"/><rect x="30" y="320" width="10" height="10" fill="#a9a60f"/><rect x="40" y="320" width="10" height="10" fill="#6b6a09"/><rect x="70" y="320" width="10" height="10" fill="#f3f173"/><rect x="80" y="320" width="10" height="10" fill="#b2b010"/><rect x="110" y="320" width="10" height="10" fill="#ece929"/><rect x="120" y="320" width="10" height="10" fill="#edea2d"/><rect x="130" y="320" width="10" height="10" fill="#ecea2c"/><rect x="200" y="320" width="10" height="10" fill="#f2f070"/><rect x="210" y="320" width="10" height="10" fill="#bfbc11"/><rect x="230" y="320" width="10" height="10" fill="#ece922"/><rect x="260" y="320" width="10" height="10" fill="#82800b"/><rect x="0" y="330" width="10" height="10" fill="#ece922"/><rect x="10" y="330" width="10" height="10" fill="#ece924"/><rect x="20" y="330" width="10" height="10" fill="#edea2c"/><rect x="40" y="330" width="10" height="10" fill="#eeeb3b"/><rect x="50" y="330" width="10" height="10" fill="#ebe81d"/><rect x="70" y="330" width="10" height="10" fill="#ece929"/><rect x="90" y="330" width="10" height="10" fill="#edea31"/><rect x="110" y="330" width="10" height="10" fill="#edea31"/><rect x="140" y="330" width="10" height="10" fill="#edea32"/><rect x="150" y="330" width="10" height="10" fill="#edea30"/><rect x="160" y="330" width="10" height="10" fill="#f1ef64"/><rect x="170" y="330" width="10" height="10" fill="#ebe81c"/><rect x="210" y="330" width="10" height="10" fill="#ecea2b"/><rect x="220" y="330" width="10" height="10" fill="#ece923"/><rect x="230" y="330" width="10" height="10" fill="#b8b510"/><rect x="240" y="330" width="10" height="10" fill="#7a780b"/><rect x="250" y="330" width="10" height="10" fill="#ece926"/><rect x="40" y="340" width="10" height="10" fill="#ebe81b"/><rect x="50" y="340" width="10" height="10" fill="#ece820"/><rect x="60" y="340" width="10" height="10" fill="#bfbd11"/><rect x="100" y="340" width="10" height="10" fill="#aca90f"/><rect x="130" y="340" width="10" height="10" fill="#c0bd11"/><rect x="150" y="340" width="10" height="10" fill="#504f07"/><rect x="160" y="340" width="10" height="10" fill="#f0ee54"/><rect x="170" y="340" width="10" height="10" fill="#edeb36"/><rect x="180" y="340" width="10" height="10" fill="#eeeb3a"/><rect x="210" y="340" width="10" height="10" fill="#efec48"/><rect x="230" y="340" width="10" height="10" fill="#edea2e"/><rect x="240" y="340" width="10" height="10" fill="#f0ed52"/><rect x="250" y="340" width="10" height="10" fill="#ece820"/><rect x="260" y="340" width="10" height="10" fill="#ece926"/><rect x="270" y="340" width="10" height="10" fill="#a19f0e"/><rect x="10" y="350" width="10" height="10" fill="#a3a00e"/><rect x="20" y="350" width="10" height="10" fill="#f3f173"/><rect x="40" y="350" width="10" height="10" fill="#ecea2c"/><rect x="50" y="350" width="10" height="10" fill="#f2f06a"/><rect x="60" y="350" width="10" height="10" fill="#a2a00e"/><rect x="70" y="350" width="10" height="10" fill="#ece924"/><rect x="80" y="350" width="10" height="10" fill="#666509"/><rect x="150" y="350" width="10" height="10" fill="#a8a60f"/><rect x="190" y="350" width="10" height="10" fill="#edeb35"/><rect x="220" y="350" width="10" height="10" fill="#f1ef5e"/><rect x="270" y="350" width="10" height="10" fill="#aaa80f"/></svg>