<svg xmlns="http://www.w3.org/2000/svg" viewBox="0 0 280 360" width="280" height="360" shape-rendering="crispEdges" preserveAspectRatio="xMidYMid slice"><rect width="280" height="360" fill="#572ddf"/><rect x="0" y="0" width="10" height="10" fill="#411cb8"/><rect x="20" y="0" width="10" height="10" fill="#351796"/><rect x="30" y="0" width="10" height="10" fill="#6b46e3"/><rect x="40" y="0" width="10" height="10" fill="#491fce"/><rect x="50" y="0" width="10" height="10" fill="#421dbc"/><rect x="60" y="0" width="10" height="10" fill="#451ec5"/><rect x="70" y="0" width="10" height="10" fill="#ac97ef"/><rect x="90" y="0" width="10" height="10" fill="#8061e7"/><rect x="100" y="0" width="10" height="10" fill="#451ec5"/><rect x="120" y="0" width="10" height="10" fill="#37189c"/><rect x="130" y="0" width="10" height="10" fill="#411cb8"/><rect x="170" y="0" width="10" height="10" fill="#724ee4"/><rect x="180" y="0" width="10" height="10" fill="#a994ef"/><rect x="200" y="0" width="10" height="10" fill="#8b6ee9"/><rect x="220" y="0" width="10" height="10" fill="#7d5ce6"/><rect x="230" y="0" width="10" height="10" fill="#3f1bb4"/><rect x="240" y="0" width="10" height="10" fill="#9277ea"/><rect x="250" y="0" width="10" height="10" fill="#401cb6"/><rect x="30" y="10" width="10" height="10" fill="#8161e7"/><rect x="50" y="10" width="10" height="10" fill="#8162e7"/><rect x="60" y="10" width="10" height="10" fill="#441ec2"/><rect x="80" y="10" width="10" height="10" fill="#6f4be4"/><rect x="90" y="10" width="10" height="10" fill="#7957e5"/><rect x="110" y="10" width="10" height="10" fill="#461ec6"/><rect x="130" y="10" width="10" height="10" fill="#471fcb"/><rect x="150" y="10" width="10" height="10" fill="#7351e4"/><rect x="160" y="10" width="10" height="10" fill="#9176ea"/><rect x="220" y="10" width="10" height="10" fill="#4a20d1"/><rect x="230" y="10" width="10" height="10" fill="#291276"/><rect x="240" y="10" width="10" height="10" fill="#441ec2"/><rect x="250" y="10" width="10" height="10" fill="#7350e4"/><rect x="30" y="20" width="10" height="10" fill="#a58eee"/><rect x="40" y="20" width="10" height="10" fill="#6944e2"/><rect x="60" y="20" width="10" height="10" fill="#7a59e6"/><rect x="80" y="20" width="10" height="10" fill="#7f5fe7"/><rect x="110" y="20" width="10" height="10" fill="#471fc9"/><rect x="120" y="20" width="10" height="10" fill="#461ec6"/><rect x="160" y="20" width="10" height="10" fill="#411cb8"/><rect x="170" y="20" width="10" height="10" fill="#7f5fe7"/><rect x="220" y="20" width="10" height="10" fill="#4a20d1"/><rect x="230" y="20" width="10" height="10" fill="#9c84ec"/><rect x="240" y="20" width="10" height="10" fill="#4a20d1"/><rect x="250" y="20" width="10" height="10" fill="#a58eee"/><rect x="10" y="30" width="10" height="10" fill="#6b46e3"/><rect x="20" y="30" width="10" height="10" fill="#451ec3"/><rect x="30" y="30" width="10" height="10" fill="#471fcb"/><rect x="40" y="30" width="10" height="10" fill="#7451e5"/><rect x="50" y="30" width="10" height="10" fill="#7350e4"/><rect x="60" y="30" width="10" height="10" fill="#27116d"/><rect x="70" y="30" width="10" height="10" fill="#461ec8"/><rect x="110" y="30" width="10" height="10" fill="#331690"/><rect x="120" y="30" width="10" height="10" fill="#9175ea"/><rect x="130" y="30" width="10" height="10" fill="#6f4be4"/><rect x="150" y="30" width="10" height="10" fill="#441dc0"/><rect x="160" y="30" width="10" height="10" fill="#341693"/><rect x="200" y="30" width="10" height="10" fill="#2d137f"/><rect x="230" y="30" width="10" height="10" fill="#431dbd"/><rect x="270" y="30" width="10" height="10" fill="#421dbc"/><rect x="30" y="40" width="10" height="10" fill="#7b5ae6"/><rect x="70" y="40" width="10" height="10" fill="#2d1380"/><rect x="80" y="40" width="10" height="10" fill="#9176ea"/><rect x="90" y="40" width="10" height="10" fill="#7755e5"/><rect x="100" y="40" width="10" height="10" fill="#957beb"/><rect x="120" y="40" width="10" height="10" fill="#401cb5"/><rect x="130" y="40" width="10" height="10" fill="#714de4"/><rect x="160" y="40" width="10" height="10" fill="#957beb"/><rect x="180" y="40" width="10" height="10" fill="#6f4ae3"/><rect x="200" y="40" width="10" height="10" fill="#8161e7"/><rect x="210" y="40" width="10" height="10" fill="#9378ea"/><rect x="220" y="40" width="10" height="10" fill="#411cb9"/><rect x="230" y="40" width="10" height="10" fill="#724ee4"/><rect x="250" y="40" width="10" height="10" fill="#431dbd"/><rect x="10" y="50" width="10" height="10" fill="#401cb7"/><rect x="20" y="50" width="10" height="10" fill="#7856e5"/><rect x="30" y="50" width="10" height="10" fill="#481fce"/><rect x="40" y="50" width="10" height="10" fill="#7451e4"/><rect x="50" y="50" width="10" height="10" fill="#8e72ea"/><rect x="60" y="50" width="10" height="10" fill="#491fce"/><rect x="70" y="50" width="10" height="10" fill="#7f5fe7"/><rect x="110" y="50" width="10" height="10" fill="#7552e5"/><rect x="120" y="50" width="10" height="10" fill="#2e1484"/><rect x="130" y="50" width="10" height="10" fill="#a28bed"/><rect x="140" y="50" width="10" height="10" fill="#461ec8"/><rect x="160" y="50" width="10" height="10" fill="#6b47e3"/><rect x="170" y="50" width="10" height="10" fill="#6d49e3"/><rect x="180" y="50" width="10" height="10" fill="#7c5be6"/><rect x="190" y="50" width="10" height="10" fill="#351795"/><rect x="220" y="50" width="10" height="10" fill="#331692"/><rect x="260" y="50" width="10" height="10" fill="#704de4"/><rect x="0" y="60" width="10" height="10" fill="#431dbe"/><rect x="20" y="60" width="10" height="10" fill="#7654e5"/><rect x="30" y="60" width="10" height="10" fill="#4a20d2"/><rect x="50" y="60" width="10" height="10" fill="#7754e5"/><rect x="60" y="60" width="10" height="10" fill="#7654e5"/><rect x="70" y="60" width="10" height="10" fill="#7b5ae6"/><rect x="80" y="60" width="10" height="10" fill="#421cba"/><rect x="90" y="60" width="10" height="10" fill="#9d84ec"/><rect x="120" y="60" width="10" height="10" fill="#a48dee"/><rect x="130" y="60" width="10" height="10" fill="#6c47e3"/><rect x="150" y="60" width="10" height="10" fill="#7350e4"/><rect x="170" y="60" width="10" height="10" fill="#341693"/><rect x="180" y="60" width="10" height="10" fill="#9f86ed"/><rect x="190" y="60" width="10" height="10" fill="#281172"/><rect x="220" y="60" width="10" height="10" fill="#987eeb"/><rect x="230" y="60" width="10" height="10" fill="#7b5ae6"/><rect x="240" y="60" width="10" height="10" fill="#7b59e6"/><rect x="250" y="60" width="10" height="10" fill="#704ce4"/><rect x="260" y="60" width="10" height="10" fill="#491fcf"/><rect x="270" y="60" width="10" height="10" fill="#411cba"/><rect x="20" y="70" width="10" height="10" fill="#8f73ea"/><rect x="30" y="70" width="10" height="10" fill="#704ce4"/><rect x="70" y="70" width="10" height="10" fill="#421cbb"/><rect x="80" y="70" width="10" height="10" fill="#491fce"/><rect x="110" y="70" width="10" height="10" fill="#401bb4"/><rect x="120" y="70" width="10" height="10" fill="#27116e"/><rect x="130" y="70" width="10" height="10" fill="#7553e5"/><rect x="160" y="70" width="10" height="10" fill="#8161e7"/><rect x="170" y="70" width="10" height="10" fill="#301588"/><rect x="180" y="70" width="10" height="10" fill="#7f5ee7"/><rect x="200" y="70" width="10" height="10" fill="#441dc0"/><rect x="260" y="70" width="10" height="10" fill="#27116f"/><rect x="0" y="80" width="10" height="10" fill="#491fce"/><rect x="10" y="80" width="10" height="10" fill="#8060e7"/><rect x="20" y="80" width="10" height="10" fill="#a892ee"/><rect x="30" y="80" width="10" height="10" fill="#2b137b"/><rect x="60" y="80" width="10" height="10" fill="#7756e5"/><rect x="70" y="80" width="10" height="10" fill="#8f73ea"/><rect x="80" y="80" width="10" height="10" fill="#9d85ec"/><rect x="90" y="80" width="10" height="10" fill="#6c47e3"/><rect x="110" y="80" width="10" height="10" fill="#7b5be6"/><rect x="120" y="80" width="10" height="10" fill="#7957e5"/><rect x="130" y="80" width="10" height="10" fill="#461ec8"/><rect x="150" y="80" width="10" height="10" fill="#2a1278"/><rect x="160" y="80" width="10" height="10" fill="#8161e7"/><rect x="170" y="80" width="10" height="10" fill="#a28bed"/><rect x="180" y="80" width="10" height="10" fill="#31158a"/><rect x="190" y="80" width="10" height="10" fill="#9d84ec"/><rect x="230" y="80" width="10" height="10" fill="#ab96ef"/><rect x="250" y="80" width="10" height="10" fill="#36179a"/><rect x="270" y="80" width="10" height="10" fill="#2b137b"/><rect x="10" y="90" width="10" height="10" fill="#6944e2"/><rect x="20" y="90" width="10" height="10" fill="#441dc0"/><rect x="30" y="90" width="10" height="10" fill="#7958e6"/><rect x="50" y="90" width="10" height="10" fill="#a48dee"/><rect x="60" y="90" width="10" height="10" fill="#9175ea"/><rect x="80" y="90" width="10" height="10" fill="#401cb6"/><rect x="90" y="90" width="10" height="10" fill="#6f4be4"/><rect x="130" y="90" width="10" height="10" fill="#2a1278"/><rect x="150" y="90" width="10" height="10" fill="#a892ee"/><rect x="180" y="90" width="10" height="10" fill="#714de4"/><rect x="200" y="90" width="10" height="10" fill="#977deb"/><rect x="230" y="90" width="10" height="10" fill="#31158c"/><rect x="30" y="100" width="10" height="10" fill="#411cb9"/><rect x="40" y="100" width="10" height="10" fill="#8e71e9"/><rect x="50" y="100" width="10" height="10" fill="#6c48e3"/><rect x="90" y="100" width="10" height="10" fill="#461ec5"/><rect x="110" y="100" width="10" height="10" fill="#6f4be4"/><rect x="120" y="100" width="10" height="10" fill="#8c70e9"/><rect x="160" y="100" width="10" height="10" fill="#4920d0"/><rect x="170" y="100" width="10" height="10" fill="#7f5fe7"/><rect x="190" y="100" width="10" height="10" fill="#421dbc"/><rect x="200" y="100" width="10" height="10" fill="#26116d"/><rect x="210" y="100" width="10" height="10" fill="#7350e4"/><rect x="250" y="100" width="10" height="10" fill="#704ce4"/><rect x="10" y="110" width="10" height="10" fill="#8061e7"/><rect x="60" y="110" width="10" height="10" fill="#aa95ef"/><rect x="70" y="110" width="10" height="10" fill="#734fe4"/><rect x="90" y="110" width="10" height="10" fill="#4a20d2"/><rect x="110" y="110" width="10" height="10" fill="#431dbd"/><rect x="130" y="110" width="10" height="10" fill="#2b1279"/><rect x="140" y="110" width="10" height="10" fill="#6e4ae3"/><rect x="150" y="110" width="10" height="10" fill="#4a20d2"/><rect x="160" y="110" width="10" height="10" fill="#6944e2"/><rect x="170" y="110" width="10" height="10" fill="#441dc0"/><rect x="180" y="110" width="10" height="10" fill="#724fe4"/><rect x="190" y="110" width="10" height="10" fill="#4a20d1"/><rect x="220" y="110" width="10" height="10" fill="#6a45e3"/><rect x="240" y="110" width="10" height="10" fill="#9479eb"/><rect x="260" y="110" width="10" height="10" fill="#461ec7"/><rect x="270" y="110" width="10" height="10" fill="#3f1bb4"/><rect x="40" y="120" width="10" height="10" fill="#8162e7"/><rect x="50" y="120" width="10" height="10" fill="#421dbc"/><rect x="70" y="120" width="10" height="10" fill="#987eeb"/><rect x="80" y="120" width="10" height="10" fill="#481fcc"/><rect x="90" y="120" width="10" height="10" fill="#31158a"/><rect x="110" y="120" width="10" height="10" fill="#a088ed"/><rect x="140" y="120" width="10" height="10" fill="#461ec7"/><rect x="150" y="120" width="10" height="10" fill="#7553e5"/><rect x="190" y="120" width="10" height="10" fill="#431dbe"/><rect x="230" y="120" width="10" height="10" fill="#7553e5"/><rect x="240" y="120" width="10" height="10" fill="#7a59e6"/><rect x="270" y="120" width="10" height="10" fill="#7654e5"/><rect x="10" y="130" width="10" height="10" fill="#8e71e9"/><rect x="30" y="130" width="10" height="10" fill="#724fe4"/><rect x="40" y="130" width="10" height="10" fill="#6b46e3"/><rect x="60" y="130" width="10" height="10" fill="#7351e4"/><rect x="110" y="130" width="10" height="10" fill="#8b6ee9"/><rect x="120" y="130" width="10" height="10" fill="#401cb5"/><rect x="130" y="130" width="10" height="10" fill="#6d48e3"/><rect x="140" y="130" width="10" height="10" fill="#8060e7"/><rect x="160" y="130" width="10" height="10" fill="#481fcc"/><rect x="190" y="130" width="10" height="10" fill="#8060e7"/><rect x="230" y="130" width="10" height="10" fill="#7a58e6"/><rect x="240" y="130" width="10" height="10" fill="#7b59e6"/><rect x="270" y="130" width="10" height="10" fill="#32158d"/><rect x="30" y="140" width="10" height="10" fill="#471fc9"/><rect x="50" y="140" width="10" height="10" fill="#7958e5"/><rect x="60" y="140" width="10" height="10" fill="#6f4be4"/><rect x="70" y="140" width="10" height="10" fill="#9f87ed"/><rect x="90" y="140" width="10" height="10" fill="#9175ea"/><rect x="110" y="140" width="10" height="10" fill="#7755e5"/><rect x="120" y="140" width="10" height="10" fill="#6b46e3"/><rect x="130" y="140" width="10" height="10" fill="#3f1bb4"/><rect x="150" y="140" width="10" height="10" fill="#491fcf"/><rect x="170" y="140" width="10" height="10" fill="#8060e7"/><rect x="180" y="140" width="10" height="10" fill="#6e4ae3"/><rect x="200" y="140" width="10" height="10" fill="#a28aed"/><rect x="210" y="140" width="10" height="10" fill="#331691"/><rect x="220" y="140" width="10" height="10" fill="#481fcd"/><rect x="260" y="140" width="10" height="10" fill="#451ec5"/><rect x="0" y="150" width="10" height="10" fill="#a791ee"/><rect x="20" y="150" width="10" height="10" fill="#4920d0"/><rect x="40" y="150" width="10" height="10" fill="#9a81ec"/><rect x="70" y="150" width="10" height="10" fill="#967ceb"/><rect x="80" y="150" width="10" height="10" fill="#240f65"/><rect x="90" y="150" width="10" height="10" fill="#7e5ee6"/><rect x="110" y="150" width="10" height="10" fill="#4a20d1"/><rect x="150" y="150" width="10" height="10" fill="#9f87ed"/><rect x="170" y="150" width="10" height="10" fill="#411cb7"/><rect x="180" y="150" width="10" height="10" fill="#2f1486"/><rect x="200" y="150" width="10" height="10" fill="#441dc0"/><rect x="230" y="150" width="10" height="10" fill="#7c5be6"/><rect x="240" y="150" width="10" height="10" fill="#704de4"/><rect x="20" y="160" width="10" height="10" fill="#9a81ec"/><rect x="30" y="160" width="10" height="10" fill="#431dbd"/><rect x="40" y="160" width="10" height="10" fill="#411cb8"/><rect x="50" y="160" width="10" height="10" fill="#a18aed"/><rect x="70" y="160" width="10" height="10" fill="#9176ea"/><rect x="140" y="160" width="10" height="10" fill="#3f1bb4"/><rect x="150" y="160" width="10" height="10" fill="#7a59e6"/><rect x="160" y="160" width="10" height="10" fill="#6c48e3"/><rect x="170" y="160" width="10" height="10" fill="#441dc0"/><rect x="190" y="160" width="10" height="10" fill="#401cb5"/><rect x="230" y="160" width="10" height="10" fill="#7553e5"/><rect x="10" y="170" width="10" height="10" fill="#a892ee"/><rect x="20" y="170" width="10" height="10" fill="#481fcd"/><rect x="80" y="170" width="10" height="10" fill="#471fca"/><rect x="90" y="170" width="10" height="10" fill="#7552e5"/><rect x="110" y="170" width="10" height="10" fill="#7552e5"/><rect x="140" y="170" width="10" height="10" fill="#6f4be3"/><rect x="170" y="170" width="10" height="10" fill="#361798"/><rect x="180" y="170" width="10" height="10" fill="#481fcd"/><rect x="200" y="170" width="10" height="10" fill="#421cbb"/><rect x="220" y="170" width="10" height="10" fill="#9378ea"/><rect x="240" y="170" width="10" height="10" fill="#a58fee"/><rect x="250" y="170" width="10" height="10" fill="#32158d"/><rect x="260" y="170" width="10" height="10" fill="#401cb6"/><rect x="270" y="170" width="10" height="10" fill="#461ec8"/><rect x="0" y="180" width="10" height="10" fill="#a58fee"/><rect x="30" y="180" width="10" height="10" fill="#281170"/><rect x="40" y="180" width="10" height="10" fill="#6b45e3"/><rect x="50" y="180" width="10" height="10" fill="#471fca"/><rect x="70" y="180" width="10" height="10" fill="#451ec4"/><rect x="80" y="180" width="10" height="10" fill="#27116e"/><rect x="160" y="180" width="10" height="10" fill="#411cb9"/><rect x="190" y="180" width="10" height="10" fill="#8162e7"/><rect x="200" y="180" width="10" height="10" fill="#481fcc"/><rect x="210" y="180" width="10" height="10" fill="#704de4"/><rect x="220" y="180" width="10" height="10" fill="#a792ee"/><rect x="240" y="180" width="10" height="10" fill="#281171"/><rect x="250" y="180" width="10" height="10" fill="#461ec7"/><rect x="260" y="180" width="10" height="10" fill="#481fcd"/><rect x="270" y="180" width="10" height="10" fill="#461ec7"/><rect x="0" y="190" width="10" height="10" fill="#9980ec"/><rect x="40" y="190" width="10" height="10" fill="#9980ec"/><rect x="60" y="190" width="10" height="10" fill="#281171"/><rect x="80" y="190" width="10" height="10" fill="#8060e7"/><rect x="110" y="190" width="10" height="10" fill="#7b5ae6"/><rect x="120" y="190" width="10" height="10" fill="#431dbe"/><rect x="160" y="190" width="10" height="10" fill="#ac97ef"/><rect x="210" y="190" width="10" height="10" fill="#461ec7"/><rect x="240" y="190" width="10" height="10" fill="#7755e5"/><rect x="250" y="190" width="10" height="10" fill="#7350e4"/><rect x="270" y="190" width="10" height="10" fill="#704de4"/><rect x="0" y="200" width="10" height="10" fill="#2b1279"/><rect x="10" y="200" width="10" height="10" fill="#431dbe"/><rect x="20" y="200" width="10" height="10" fill="#3919a1"/><rect x="40" y="200" width="10" height="10" fill="#8060e7"/><rect x="70" y="200" width="10" height="10" fill="#8162e7"/><rect x="100" y="200" width="10" height="10" fill="#6d48e3"/><rect x="110" y="200" width="10" height="10" fill="#8a6ce9"/><rect x="120" y="200" width="10" height="10" fill="#471fc9"/><rect x="130" y="200" width="10" height="10" fill="#7958e6"/><rect x="140" y="200" width="10" height="10" fill="#714ee4"/><rect x="150" y="200" width="10" height="10" fill="#2f1486"/><rect x="180" y="200" width="10" height="10" fill="#6e4ae3"/><rect x="190" y="200" width="10" height="10" fill="#6f4be4"/><rect x="220" y="200" width="10" height="10" fill="#7350e4"/><rect x="230" y="200" width="10" height="10" fill="#26106b"/><rect x="240" y="200" width="10" height="10" fill="#7a59e6"/><rect x="250" y="200" width="10" height="10" fill="#987eeb"/><rect x="260" y="200" width="10" height="10" fill="#9176ea"/><rect x="270" y="200" width="10" height="10" fill="#26106c"/><rect x="20" y="210" width="10" height="10" fill="#724fe4"/><rect x="60" y="210" width="10" height="10" fill="#7c5be6"/><rect x="70" y="210" width="10" height="10" fill="#7a59e6"/><rect x="90" y="210" width="10" height="10" fill="#341693"/><rect x="120" y="210" width="10" height="10" fill="#967ceb"/><rect x="140" y="210" width="10" height="10" fill="#431dbe"/><rect x="160" y="210" width="10" height="10" fill="#896be8"/><rect x="180" y="210" width="10" height="10" fill="#a791ee"/><rect x="190" y="210" width="10" height="10" fill="#704ce4"/><rect x="210" y="210" width="10" height="10" fill="#491fcf"/><rect x="220" y="210" width="10" height="10" fill="#351797"/><rect x="270" y="210" width="10" height="10" fill="#481fcd"/><rect x="20" y="220" width="10" height="10" fill="#9378ea"/><rect x="40" y="220" width="10" height="10" fill="#27116e"/><rect x="60" y="220" width="10" height="10" fill="#461ec6"/><rect x="70" y="220" width="10" height="10" fill="#7a59e6"/><rect x="100" y="220" width="10" height="10" fill="#421dbd"/><rect x="110" y="220" width="10" height="10" fill="#8b6fe9"/><rect x="120" y="220" width="10" height="10" fill="#7553e5"/><rect x="150" y="220" width="10" height="10" fill="#8060e7"/><rect x="180" y="220" width="10" height="10" fill="#2e1482"/><rect x="200" y="220" width="10" height="10" fill="#401cb5"/><rect x="220" y="220" width="10" height="10" fill="#2c137e"/><rect x="240" y="220" width="10" height="10" fill="#7654e5"/><rect x="250" y="220" width="10" height="10" fill="#6b46e3"/><rect x="260" y="220" width="10" height="10" fill="#481fcb"/><rect x="0" y="230" width="10" height="10" fill="#7856e5"/><rect x="10" y="230" width="10" height="10" fill="#6e49e3"/><rect x="30" y="230" width="10" height="10" fill="#7350e4"/><rect x="60" y="230" width="10" height="10" fill="#7755e5"/><rect x="70" y="230" width="10" height="10" fill="#2c137d"/><rect x="80" y="230" width="10" height="10" fill="#a892ee"/><rect x="110" y="230" width="10" height="10" fill="#977eeb"/><rect x="120" y="230" width="10" height="10" fill="#8162e7"/><rect x="150" y="230" width="10" height="10" fill="#461ec7"/><rect x="160" y="230" width="10" height="10" fill="#471fca"/><rect x="170" y="230" width="10" height="10" fill="#9f87ed"/><rect x="190" y="230" width="10" height="10" fill="#704de4"/><rect x="210" y="230" width="10" height="10" fill="#8e71e9"/><rect x="220" y="230" width="10" height="10" fill="#724fe4"/><rect x="230" y="230" width="10" height="10" fill="#7451e5"/><rect x="250" y="230" width="10" height="10" fill="#6d49e3"/><rect x="260" y="230" width="10" height="10" fill="#7755e5"/><rect x="10" y="240" width="10" height="10" fill="#441dc0"/><rect x="20" y="240" width="10" height="10" fill="#a791ee"/><rect x="40" y="240" width="10" height="10" fill="#31158c"/><rect x="70" y="240" width="10" height="10" fill="#7a59e6"/><rect x="100" y="240" width="10" height="10" fill="#7553e5"/><rect x="110" y="240" width="10" height="10" fill="#6c47e3"/><rect x="120" y="240" width="10" height="10" fill="#a892ee"/><rect x="190" y="240" width="10" height="10" fill="#8060e7"/><rect x="200" y="240" width="10" height="10" fill="#6c48e3"/><rect x="210" y="240" width="10" height="10" fill="#491fce"/><rect x="220" y="240" width="10" height="10" fill="#7350e4"/><rect x="260" y="240" width="10" height="10" fill="#7958e6"/><rect x="10" y="250" width="10" height="10" fill="#451ec5"/><rect x="20" y="250" width="10" height="10" fill="#9f87ed"/><rect x="70" y="250" width="10" height="10" fill="#7e5ee6"/><rect x="80" y="250" width="10" height="10" fill="#441dc1"/><rect x="90" y="250" width="10" height="10" fill="#7f5fe7"/><rect x="110" y="250" width="10" height="10" fill="#8c6fe9"/><rect x="130" y="250" width="10" height="10" fill="#411cb9"/><rect x="160" y="250" width="10" height="10" fill="#401cb5"/><rect x="170" y="250" width="10" height="10" fill="#9b82ec"/><rect x="180" y="250" width="10" height="10" fill="#8060e7"/><rect x="190" y="250" width="10" height="10" fill="#351796"/><rect x="200" y="250" width="10" height="10" fill="#aa94ef"/><rect x="210" y="250" width="10" height="10" fill="#6f4be4"/><rect x="230" y="250" width="10" height="10" fill="#411cba"/><rect x="80" y="260" width="10" height="10" fill="#411cb9"/><rect x="100" y="260" width="10" height="10" fill="#7957e5"/><rect x="130" y="260" width="10" height="10" fill="#6e4ae3"/><rect x="170" y="260" width="10" height="10" fill="#6e4ae3"/><rect x="180" y="260" width="10" height="10" fill="#7350e4"/><rect x="200" y="260" width="10" height="10" fill="#7e5ee7"/><rect x="210" y="260" width="10" height="10" fill="#8060e7"/><rect x="220" y="260" width="10" height="10" fill="#6c47e3"/><rect x="230" y="260" width="10" height="10" fill="#9176ea"/><rect x="260" y="260" width="10" height="10" fill="#7350e4"/><rect x="60" y="270" width="10" height="10" fill="#7755e5"/><rect x="70" y="270" width="10" height="10" fill="#8f73ea"/><rect x="80" y="270" width="10" height="10" fill="#7451e4"/><rect x="140" y="270" width="10" height="10" fill="#9f87ed"/><rect x="160" y="270" width="10" height="10" fill="#7b5ae6"/><rect x="170" y="270" width="10" height="10" fill="#704de4"/><rect x="180" y="270" width="10" height="10" fill="#9d84ec"/><rect x="200" y="270" width="10" height="10" fill="#281171"/><rect x="210" y="270" width="10" height="10" fill="#451ec3"/><rect x="220" y="270" width="10" height="10" fill="#31158a"/><rect x="250" y="270" width="10" height="10" fill="#411cb9"/><rect x="270" y="270" width="10" height="10" fill="#987eeb"/><rect x="10" y="280" width="10" height="10" fill="#8b6ee9"/><rect x="20" y="280" width="10" height="10" fill="#2d1380"/><rect x="30" y="280" width="10" height="10" fill="#7552e5"/><rect x="40" y="280" width="10" height="10" fill="#8162e7"/><rect x="50" y="280" width="10" height="10" fill="#431dbd"/><rect x="80" y="280" width="10" height="10" fill="#987feb"/><rect x="110" y="280" width="10" height="10" fill="#3818a0"/><rect x="120" y="280" width="10" height="10" fill="#9276ea"/><rect x="140" y="280" width="10" height="10" fill="#7553e5"/><rect x="150" y="280" width="10" height="10" fill="#7654e5"/><rect x="180" y="280" width="10" height="10" fill="#37189c"/><rect x="190" y="280" width="10" height="10" fill="#9175ea"/><rect x="210" y="280" width="10" height="10" fill="#7755e5"/><rect x="220" y="280" width="10" height="10" fill="#947aeb"/><rect x="230" y="280" width="10" height="10" fill="#6a45e3"/><rect x="260" y="280" width="10" height="10" fill="#7e5de6"/><rect x="270" y="280" width="10" height="10" fill="#4a20d1"/><rect x="10" y="290" width="10" height="10" fill="#471fca"/><rect x="30" y="290" width="10" height="10" fill="#a791ee"/><rect x="40" y="290" width="10" height="10" fill="#7553e5"/><rect x="50" y="290" width="10" height="10" fill="#451ec3"/><rect x="60" y="290" width="10" height="10" fill="#724ee4"/><rect x="80" y="290" width="10" height="10" fill="#441dc0"/><rect x="90" y="290" width="10" height="10" fill="#421dbc"/><rect x="110" y="290" width="10" height="10" fill="#6943e2"/><rect x="130" y="290" width="10" height="10" fill="#7e5ee6"/><rect x="140" y="290" width="10" height="10" fill="#411cb9"/><rect x="170" y="290" width="10" height="10" fill="#724fe4"/><rect x="180" y="290" width="10" height="10" fill="#957beb"/><rect x="190" y="290" width="10" height="10" fill="#421dbb"/><rect x="200" y="290" width="10" height="10" fill="#7552e5"/><rect x="220" y="290" width="10" height="10" fill="#32168f"/><rect x="0" y="300" width="10" height="10" fill="#6e49e3"/><rect x="10" y="300" width="10" height="10" fill="#6e4ae3"/><rect x="30" y="300" width="10" height="10" fill="#401cb6"/><rect x="40" y="300" width="10" height="10" fill="#a28aed"/><rect x="60" y="300" width="10" height="10" fill="#7e5de6"/><rect x="90" y="300" width="10" height="10" fill="#32168e"/><rect x="160" y="300" width="10" height="10" fill="#ab96ef"/><rect x="170" y="300" width="10" height="10" fill="#6d48e3"/><rect x="180" y="300" width="10" height="10" fill="#291274"/><rect x="190" y="300" width="10" height="10" fill="#461ec6"/><rect x="210" y="300" width="10" height="10" fill="#947aeb"/><rect x="240" y="300" width="10" height="10" fill="#a68fee"/><rect x="40" y="310" width="10" height="10" fill="#7553e5"/><rect x="70" y="310" width="10" height="10" fill="#7654e5"/><rect x="80" y="310" width="10" height="10" fill="#441dc0"/><rect x="90" y="310" width="10" height="10" fill="#461ec6"/><rect x="100" y="310" width="10" height="10" fill="#7755e5"/><rect x="110" y="310" width="10" height="10" fill="#230f64"/><rect x="150" y="310" width="10" height="10" fill="#411cb8"/><rect x="160" y="310" width="10" height="10" fill="#6c47e3"/><rect x="170" y="310" width="10" height="10" fill="#2f1486"/><rect x="200" y="310" width="10" height="10" fill="#401cb5"/><rect x="210" y="310" width="10" height="10" fill="#7c5ce6"/><rect x="240" y="310" width="10" height="10" fill="#481fcd"/><rect x="20" y="320" width="10" height="10" fill="#7957e5"/><rect x="30" y="320" width="10" height="10" fill="#471fc9"/><rect x="40" y="320" width="10" height="10" fill="#8161e7"/><rect x="50" y="320" width="10" height="10" fill="#2c137b"/><rect x="60" y="320" width="10" height="10" fill="#6f4be4"/><rect x="80" y="320" width="10" height="10" fill="#451ec4"/><rect x="90" y="320" width="10" height="10" fill="#a993ef"/><rect x="100" y="320" width="10" height="10" fill="#331692"/><rect x="110" y="320" width="10" height="10" fill="#401cb7"/><rect x="120" y="320" width="10" height="10" fill="#2c137c"/><rect x="160" y="320" width="10" height="10" fill="#7b5ae6"/><rect x="200" y="320" width="10" height="10" fill="#401cb5"/><rect x="230" y="320" width="10" height="10" fill="#7e5ee6"/><rect x="260" y="320" width="10" height="10" fill="#37189b"/><rect x="270" y="320" width="10" height="10" fill="#7755e5"/><rect x="0" y="330" width="10" height="10" fill="#441dc1"/><rect x="10" y="330" width="10" height="10" fill="#4920cf"/><rect x="30" y="330" width="10" height="10" fill="#441dc1"/><rect x="50" y="330" width="10" height="10" fill="#6944e2"/><rect x="60" y="330" width="10" height="10" fill="#421cbb"/><rect x="70" y="330" width="10" height="10" fill="#724ee4"/><rect x="80" y="330" width="10" height="10" fill="#4920d0"/><rect x="100" y="330" width="10" height="10" fill="#aa95ef"/><rect x="110" y="330" width="10" height="10" fill="#6944e3"/><rect x="150" y="330" width="10" height="10" fill="#441ec2"/><rect x="210" y="330" width="10" height="10" fill="#7957e5"/><rect x="240" y="330" width="10" height="10" fill="#9378ea"/><rect x="250" y="330" width="10" height="10" fill="#38189f"/><rect x="260" y="330" width="10" height="10" fill="#ab96ef"/><rect x="60" y="340" width="10" height="10" fill="#441dc2"/><rect x="80" y="340" width="10" height="10" fill="#481fcb"/><rect x="90" y="340" width="10" height="10" fill="#481fcd"/><rect x="100" y="340" width="10" height="10" fill="#7c5ce6"/><rect x="120" y="340" width="10" height="10" fill="#3818a0"/><rect x="130" y="340" width="10" height="10" fill="#25106a"/><rect x="150" y="340" width="10" height="10" fill="#431dbd"/><rect x="170" y="340" width="10" height="10" fill="#a892ee"/><rect x="190" y="340" width="10" height="10" fill="#411cb9"/><rect x="200" y="340" width="10" height="10" fill="#7e5ee6"/><rect x="230" y="340" width="10" height="10" fill="#7451e5"/><rect x="260" y="340" width="10" height="10" fill="#a690ee"/><rect x="270" y="340" width="10" height="10" fill="#7857e5"/><rect x="10" y="350" width="10" height="10" fill="#957beb"/><rect x="30" y="350" width="10" height="10" fill="#6944e2"/><rect x="60" y="350" width="10" height="10" fill="#441dc1"/><rect x="110" y="350" width="10" height="10" fill="#7a58e6"/><rect x="120" y="350" width="10" height="10" fill="#7654e5"/><rect x="130" y="350" width="10" height="10" fill="#3f1bb4"/><rect x="160" y="350" width="10" height="10" fill="#714de4"/><rect x="180" y="350" width="10" height="10" fill="#a690ee"/><rect x="220" y="350" width="10" height="10" fill="#7552e5"/><rect x="230" y="350" width="10" height="10" fill="#8060e7"/><rect x="240" y="350" width="10" height="10" fill="#301589"/><rect x="250" y="350" width="10" height="10" fill="#7c5ce6"/><rect x="260" y="350" width="10" height="10" fill="#8a6ce9"/><rect x="270" y="350" width="10" height="10" fill="#7755e5"/></svg>