<svg xmlns="http://www.w3.org/2000/svg" viewBox="0 0 280 360" width="280" height="360" shape-rendering="crispEdges" preserveAspectRatio="xMidYMid slice"><rect width="280" height="360" fill="#1d2f6f"/><rect x="0" y="0" width="10" height="10" fill="#253d8f"/><rect x="10" y="0" width="10" height="10" fill="#243a89"/><rect x="20" y="0" width="10" height="10" fill="#121d43"/><rect x="30" y="0" width="10" height="10" fill="#233988"/><rect x="40" y="0" width="10" height="10" fill="#253b8c"/><rect x="60" y="0" width="10" height="10" fill="#03050c"/><rect x="80" y="0" width="10" height="10" fill="#3251c0"/><rect x="110" y="0" width="10" height="10" fill="#263d90"/><rect x="120" y="0" width="10" height="10" fill="#273f96"/><rect x="140" y="0" width="10" height="10" fill="#101b3f"/><rect x="150" y="0" width="10" height="10" fill="#03050c"/><rect x="190" y="0" width="10" height="10" fill="#080c1d"/><rect x="210" y="0" width="10" height="10" fill="#2f4cb4"/><rect x="220" y="0" width="10" height="10" fill="#263d90"/><rect x="240" y="0" width="10" height="10" fill="#29429b"/><rect x="20" y="10" width="10" height="10" fill="#131f48"/><rect x="30" y="10" width="10" height="10" fill="#29429b"/><rect x="50" y="10" width="10" height="10" fill="#253c8e"/><rect x="60" y="10" width="10" height="10" fill="#233986"/><rect x="70" y="10" width="10" height="10" fill="#172558"/><rect x="90" y="10" width="10" height="10" fill="#111b40"/><rect x="140" y="10" width="10" height="10" fill="#243a88"/><rect x="180" y="10" width="10" height="10" fill="#28419a"/><rect x="190" y="10" width="10" height="10" fill="#14214d"/><rect x="230" y="10" width="10" height="10" fill="#152251"/><rect x="270" y="10" width="10" height="10" fill="#253c8e"/><rect x="0" y="20" width="10" height="10" fill="#3352c3"/><rect x="20" y="20" width="10" height="10" fill="#29429d"/><rect x="30" y="20" width="10" height="10" fill="#273f94"/><rect x="90" y="20" width="10" height="10" fill="#263e92"/><rect x="130" y="20" width="10" height="10" fill="#060a17"/><rect x="160" y="20" width="10" height="10" fill="#233885"/><rect x="200" y="20" width="10" height="10" fill="#050813"/><rect x="230" y="20" width="10" height="10" fill="#263d90"/><rect x="240" y="20" width="10" height="10" fill="#111c41"/><rect x="250" y="20" width="10" height="10" fill="#253d8f"/><rect x="260" y="20" width="10" height="10" fill="#29429d"/><rect x="10" y="30" width="10" height="10" fill="#274097"/><rect x="20" y="30" width="10" height="10" fill="#273f94"/><rect x="30" y="30" width="10" height="10" fill="#14214d"/><rect x="40" y="30" width="10" height="10" fill="#111b40"/><rect x="60" y="30" width="10" height="10" fill="#3353c5"/><rect x="70" y="30" width="10" height="10" fill="#2c48a9"/><rect x="80" y="30" width="10" height="10" fill="#3454c7"/><rect x="90" y="30" width="10" height="10" fill="#03050c"/><rect x="110" y="30" width="10" height="10" fill="#233987"/><rect x="120" y="30" width="10" height="10" fill="#29439d"/><rect x="190" y="30" width="10" height="10" fill="#03050c"/><rect x="210" y="30" width="10" height="10" fill="#131e47"/><rect x="220" y="30" width="10" height="10" fill="#253d8f"/><rect x="230" y="30" width="10" height="10" fill="#263e93"/><rect x="260" y="30" width="10" height="10" fill="#273f95"/><rect x="0" y="40" width="10" height="10" fill="#29429c"/><rect x="10" y="40" width="10" height="10" fill="#3352c2"/><rect x="80" y="40" width="10" height="10" fill="#131f49"/><rect x="100" y="40" width="10" height="10" fill="#263e92"/><rect x="110" y="40" width="10" height="10" fill="#243b8b"/><rect x="140" y="40" width="10" height="10" fill="#14214d"/><rect x="180" y="40" width="10" height="10" fill="#284098"/><rect x="190" y="40" width="10" height="10" fill="#15224f"/><rect x="200" y="40" width="10" height="10" fill="#111b3f"/><rect x="210" y="40" width="10" height="10" fill="#03050c"/><rect x="230" y="40" width="10" height="10" fill="#121c43"/><rect x="270" y="40" width="10" height="10" fill="#131f4a"/><rect x="40" y="50" width="10" height="10" fill="#111b40"/><rect x="60" y="50" width="10" height="10" fill="#111b40"/><rect x="80" y="50" width="10" height="10" fill="#263d90"/><rect x="90" y="50" width="10" height="10" fill="#03050c"/><rect x="120" y="50" width="10" height="10" fill="#13204b"/><rect x="130" y="50" width="10" height="10" fill="#28419a"/><rect x="140" y="50" width="10" height="10" fill="#111b40"/><rect x="170" y="50" width="10" height="10" fill="#233885"/><rect x="180" y="50" width="10" height="10" fill="#29429c"/><rect x="200" y="50" width="10" height="10" fill="#243a88"/><rect x="220" y="50" width="10" height="10" fill="#29429c"/><rect x="230" y="50" width="10" height="10" fill="#0c132d"/><rect x="240" y="50" width="10" height="10" fill="#3150bc"/><rect x="270" y="50" width="10" height="10" fill="#253c8d"/><rect x="10" y="60" width="10" height="10" fill="#3353c4"/><rect x="20" y="60" width="10" height="10" fill="#284098"/><rect x="30" y="60" width="10" height="10" fill="#0a0f24"/><rect x="40" y="60" width="10" height="10" fill="#121d44"/><rect x="60" y="60" width="10" height="10" fill="#263d90"/><rect x="100" y="60" width="10" height="10" fill="#2e4aaf"/><rect x="110" y="60" width="10" height="10" fill="#263e93"/><rect x="120" y="60" width="10" height="10" fill="#03050c"/><rect x="180" y="60" width="10" height="10" fill="#0b122b"/><rect x="200" y="60" width="10" height="10" fill="#253c8d"/><rect x="220" y="60" width="10" height="10" fill="#0b132c"/><rect x="230" y="60" width="10" height="10" fill="#253d8f"/><rect x="0" y="70" width="10" height="10" fill="#14214e"/><rect x="10" y="70" width="10" height="10" fill="#111c42"/><rect x="30" y="70" width="10" height="10" fill="#3251bf"/><rect x="50" y="70" width="10" height="10" fill="#29429c"/><rect x="80" y="70" width="10" height="10" fill="#0a1128"/><rect x="100" y="70" width="10" height="10" fill="#152352"/><rect x="120" y="70" width="10" height="10" fill="#29429c"/><rect x="140" y="70" width="10" height="10" fill="#3252c1"/><rect x="150" y="70" width="10" height="10" fill="#263e92"/><rect x="180" y="70" width="10" height="10" fill="#274097"/><rect x="200" y="70" width="10" height="10" fill="#263d91"/><rect x="210" y="70" width="10" height="10" fill="#253c8f"/><rect x="240" y="70" width="10" height="10" fill="#090f24"/><rect x="250" y="70" width="10" height="10" fill="#3150bd"/><rect x="270" y="70" width="10" height="10" fill="#18265a"/><rect x="0" y="80" width="10" height="10" fill="#152251"/><rect x="10" y="80" width="10" height="10" fill="#3353c5"/><rect x="30" y="80" width="10" height="10" fill="#2a439f"/><rect x="70" y="80" width="10" height="10" fill="#162354"/><rect x="90" y="80" width="10" height="10" fill="#273f94"/><rect x="110" y="80" width="10" height="10" fill="#233884"/><rect x="150" y="80" width="10" height="10" fill="#101b3f"/><rect x="200" y="80" width="10" height="10" fill="#273f95"/><rect x="210" y="80" width="10" height="10" fill="#3250be"/><rect x="270" y="80" width="10" height="10" fill="#263d91"/><rect x="0" y="90" width="10" height="10" fill="#152250"/><rect x="70" y="90" width="10" height="10" fill="#233987"/><rect x="100" y="90" width="10" height="10" fill="#121d44"/><rect x="110" y="90" width="10" height="10" fill="#13204a"/><rect x="120" y="90" width="10" height="10" fill="#284199"/><rect x="140" y="90" width="10" height="10" fill="#284097"/><rect x="150" y="90" width="10" height="10" fill="#273f94"/><rect x="160" y="90" width="10" height="10" fill="#263e92"/><rect x="190" y="90" width="10" height="10" fill="#253d8f"/><rect x="200" y="90" width="10" height="10" fill="#304db7"/><rect x="210" y="90" width="10" height="10" fill="#233986"/><rect x="230" y="90" width="10" height="10" fill="#2e4aaf"/><rect x="240" y="90" width="10" height="10" fill="#223884"/><rect x="250" y="90" width="10" height="10" fill="#263d90"/><rect x="260" y="90" width="10" height="10" fill="#3555c9"/><rect x="270" y="90" width="10" height="10" fill="#152251"/><rect x="0" y="100" width="10" height="10" fill="#233988"/><rect x="60" y="100" width="10" height="10" fill="#273f96"/><rect x="70" y="100" width="10" height="10" fill="#29439e"/><rect x="80" y="100" width="10" height="10" fill="#233987"/><rect x="90" y="100" width="10" height="10" fill="#253b8c"/><rect x="100" y="100" width="10" height="10" fill="#2d49ad"/><rect x="120" y="100" width="10" height="10" fill="#29439f"/><rect x="130" y="100" width="10" height="10" fill="#253c8e"/><rect x="140" y="100" width="10" height="10" fill="#121d45"/><rect x="150" y="100" width="10" height="10" fill="#3353c5"/><rect x="170" y="100" width="10" height="10" fill="#03050c"/><rect x="190" y="100" width="10" height="10" fill="#28429b"/><rect x="200" y="100" width="10" height="10" fill="#3353c5"/><rect x="260" y="100" width="10" height="10" fill="#121d45"/><rect x="0" y="110" width="10" height="10" fill="#243a89"/><rect x="10" y="110" width="10" height="10" fill="#090e21"/><rect x="40" y="110" width="10" height="10" fill="#3251c0"/><rect x="50" y="110" width="10" height="10" fill="#28419a"/><rect x="70" y="110" width="10" height="10" fill="#03050c"/><rect x="80" y="110" width="10" height="10" fill="#284198"/><rect x="90" y="110" width="10" height="10" fill="#3251c0"/><rect x="110" y="110" width="10" height="10" fill="#263d90"/><rect x="120" y="110" width="10" height="10" fill="#2e4bb0"/><rect x="190" y="110" width="10" height="10" fill="#233988"/><rect x="230" y="110" width="10" height="10" fill="#263e91"/><rect x="240" y="110" width="10" height="10" fill="#111c42"/><rect x="260" y="110" width="10" height="10" fill="#14214e"/><rect x="270" y="110" width="10" height="10" fill="#2d49ac"/><rect x="0" y="120" width="10" height="10" fill="#15214f"/><rect x="30" y="120" width="10" height="10" fill="#2d48ab"/><rect x="70" y="120" width="10" height="10" fill="#14204b"/><rect x="80" y="120" width="10" height="10" fill="#29429d"/><rect x="100" y="120" width="10" height="10" fill="#03050c"/><rect x="110" y="120" width="10" height="10" fill="#3455c9"/><rect x="140" y="120" width="10" height="10" fill="#03050c"/><rect x="150" y="120" width="10" height="10" fill="#131e47"/><rect x="170" y="120" width="10" height="10" fill="#263d90"/><rect x="220" y="120" width="10" height="10" fill="#111c41"/><rect x="230" y="120" width="10" height="10" fill="#223884"/><rect x="240" y="120" width="10" height="10" fill="#273f95"/><rect x="250" y="120" width="10" height="10" fill="#152352"/><rect x="10" y="130" width="10" height="10" fill="#18265a"/><rect x="20" y="130" width="10" height="10" fill="#28429b"/><rect x="50" y="130" width="10" height="10" fill="#080c1d"/><rect x="60" y="130" width="10" height="10" fill="#18265a"/><rect x="110" y="130" width="10" height="10" fill="#263d90"/><rect x="140" y="130" width="10" height="10" fill="#243b8b"/><rect x="170" y="130" width="10" height="10" fill="#274096"/><rect x="190" y="130" width="10" height="10" fill="#29439f"/><rect x="210" y="130" width="10" height="10" fill="#152251"/><rect x="220" y="130" width="10" height="10" fill="#284199"/><rect x="230" y="130" width="10" height="10" fill="#273f94"/><rect x="270" y="130" width="10" height="10" fill="#152251"/><rect x="0" y="140" width="10" height="10" fill="#14214d"/><rect x="20" y="140" width="10" height="10" fill="#263e93"/><rect x="50" y="140" width="10" height="10" fill="#03060d"/><rect x="60" y="140" width="10" height="10" fill="#17265a"/><rect x="70" y="140" width="10" height="10" fill="#172556"/><rect x="110" y="140" width="10" height="10" fill="#162455"/><rect x="120" y="140" width="10" height="10" fill="#03050c"/><rect x="140" y="140" width="10" height="10" fill="#3250be"/><rect x="150" y="140" width="10" height="10" fill="#314fbb"/><rect x="160" y="140" width="10" height="10" fill="#03050c"/><rect x="170" y="140" width="10" height="10" fill="#2a439f"/><rect x="180" y="140" width="10" height="10" fill="#243a8a"/><rect x="190" y="140" width="10" height="10" fill="#243a88"/><rect x="210" y="140" width="10" height="10" fill="#162455"/><rect x="260" y="140" width="10" height="10" fill="#121c43"/><rect x="0" y="150" width="10" height="10" fill="#121d45"/><rect x="10" y="150" width="10" height="10" fill="#121d44"/><rect x="20" y="150" width="10" height="10" fill="#284098"/><rect x="30" y="150" width="10" height="10" fill="#14204c"/><rect x="40" y="150" width="10" height="10" fill="#162455"/><rect x="50" y="150" width="10" height="10" fill="#131f49"/><rect x="60" y="150" width="10" height="10" fill="#273f94"/><rect x="70" y="150" width="10" height="10" fill="#3454c8"/><rect x="80" y="150" width="10" height="10" fill="#29429d"/><rect x="90" y="150" width="10" height="10" fill="#2f4db5"/><rect x="100" y="150" width="10" height="10" fill="#3657cb"/><rect x="110" y="150" width="10" height="10" fill="#29439d"/><rect x="130" y="150" width="10" height="10" fill="#162454"/><rect x="150" y="150" width="10" height="10" fill="#253d8f"/><rect x="160" y="150" width="10" height="10" fill="#233986"/><rect x="180" y="150" width="10" height="10" fill="#162353"/><rect x="200" y="150" width="10" height="10" fill="#121d45"/><rect x="210" y="150" width="10" height="10" fill="#28419a"/><rect x="230" y="150" width="10" height="10" fill="#3352c1"/><rect x="240" y="150" width="10" height="10" fill="#121d44"/><rect x="250" y="150" width="10" height="10" fill="#111b41"/><rect x="260" y="150" width="10" height="10" fill="#14214e"/><rect x="10" y="160" width="10" height="10" fill="#223884"/><rect x="20" y="160" width="10" height="10" fill="#253c8f"/><rect x="60" y="160" width="10" height="10" fill="#243b8b"/><rect x="80" y="160" width="10" height="10" fill="#2c48aa"/><rect x="90" y="160" width="10" height="10" fill="#121d43"/><rect x="100" y="160" width="10" height="10" fill="#3352c2"/><rect x="130" y="160" width="10" height="10" fill="#304eb8"/><rect x="140" y="160" width="10" height="10" fill="#284098"/><rect x="150" y="160" width="10" height="10" fill="#253c8d"/><rect x="160" y="160" width="10" height="10" fill="#263d90"/><rect x="200" y="160" width="10" height="10" fill="#080d1e"/><rect x="220" y="160" width="10" height="10" fill="#0b1128"/><rect x="10" y="170" width="10" height="10" fill="#243a88"/><rect x="30" y="170" width="10" height="10" fill="#121d45"/><rect x="50" y="170" width="10" height="10" fill="#2d4aae"/><rect x="60" y="170" width="10" height="10" fill="#3353c3"/><rect x="70" y="170" width="10" height="10" fill="#233885"/><rect x="80" y="170" width="10" height="10" fill="#162456"/><rect x="90" y="170" width="10" height="10" fill="#263e93"/><rect x="120" y="170" width="10" height="10" fill="#3454c6"/><rect x="140" y="170" width="10" height="10" fill="#0b122a"/><rect x="150" y="170" width="10" height="10" fill="#28419a"/><rect x="160" y="170" width="10" height="10" fill="#131f48"/><rect x="170" y="170" width="10" height="10" fill="#162354"/><rect x="180" y="170" width="10" height="10" fill="#131e48"/><rect x="190" y="170" width="10" height="10" fill="#243b8b"/><rect x="200" y="170" width="10" height="10" fill="#233885"/><rect x="210" y="170" width="10" height="10" fill="#273f96"/><rect x="230" y="170" width="10" height="10" fill="#233885"/><rect x="260" y="170" width="10" height="10" fill="#14204c"/><rect x="270" y="170" width="10" height="10" fill="#304db7"/><rect x="0" y="180" width="10" height="10" fill="#3251bf"/><rect x="30" y="180" width="10" height="10" fill="#121d44"/><rect x="90" y="180" width="10" height="10" fill="#304eb9"/><rect x="110" y="180" width="10" height="10" fill="#243a88"/><rect x="120" y="180" width="10" height="10" fill="#2c47a8"/><rect x="130" y="180" width="10" height="10" fill="#273f95"/><rect x="160" y="180" width="10" height="10" fill="#3251c0"/><rect x="170" y="180" width="10" height="10" fill="#243a88"/><rect x="190" y="180" width="10" height="10" fill="#2e4aaf"/><rect x="210" y="180" width="10" height="10" fill="#14204b"/><rect x="230" y="180" width="10" height="10" fill="#263e92"/><rect x="240" y="180" width="10" height="10" fill="#3251bf"/><rect x="260" y="180" width="10" height="10" fill="#28419a"/><rect x="270" y="180" width="10" height="10" fill="#070c1d"/><rect x="0" y="190" width="10" height="10" fill="#233885"/><rect x="10" y="190" width="10" height="10" fill="#0a1026"/><rect x="20" y="190" width="10" height="10" fill="#29429b"/><rect x="40" y="190" width="10" height="10" fill="#060a17"/><rect x="50" y="190" width="10" height="10" fill="#29429b"/><rect x="70" y="190" width="10" height="10" fill="#3555ca"/><rect x="90" y="190" width="10" height="10" fill="#243b8b"/><rect x="110" y="190" width="10" height="10" fill="#284097"/><rect x="150" y="190" width="10" height="10" fill="#273f94"/><rect x="160" y="190" width="10" height="10" fill="#3555c9"/><rect x="210" y="190" width="10" height="10" fill="#14214d"/><rect x="220" y="190" width="10" height="10" fill="#111c43"/><rect x="260" y="190" width="10" height="10" fill="#273e93"/><rect x="0" y="200" width="10" height="10" fill="#18265a"/><rect x="20" y="200" width="10" height="10" fill="#273f94"/><rect x="30" y="200" width="10" height="10" fill="#304eb7"/><rect x="40" y="200" width="10" height="10" fill="#14214d"/><rect x="60" y="200" width="10" height="10" fill="#050812"/><rect x="70" y="200" width="10" height="10" fill="#162353"/><rect x="80" y="200" width="10" height="10" fill="#314fbb"/><rect x="140" y="200" width="10" height="10" fill="#14204b"/><rect x="150" y="200" width="10" height="10" fill="#03050c"/><rect x="160" y="200" width="10" height="10" fill="#162456"/><rect x="210" y="200" width="10" height="10" fill="#2f4cb4"/><rect x="220" y="200" width="10" height="10" fill="#172659"/><rect x="230" y="200" width="10" height="10" fill="#152251"/><rect x="240" y="200" width="10" height="10" fill="#273f94"/><rect x="250" y="200" width="10" height="10" fill="#243b8c"/><rect x="0" y="210" width="10" height="10" fill="#223883"/><rect x="30" y="210" width="10" height="10" fill="#131e47"/><rect x="40" y="210" width="10" height="10" fill="#131e48"/><rect x="70" y="210" width="10" height="10" fill="#314fba"/><rect x="100" y="210" width="10" height="10" fill="#2d49ab"/><rect x="130" y="210" width="10" height="10" fill="#29429d"/><rect x="140" y="210" width="10" height="10" fill="#111b3f"/><rect x="160" y="210" width="10" height="10" fill="#121e47"/><rect x="180" y="210" width="10" height="10" fill="#29429c"/><rect x="210" y="210" width="10" height="10" fill="#273f94"/><rect x="220" y="210" width="10" height="10" fill="#29429c"/><rect x="240" y="210" width="10" height="10" fill="#263e93"/><rect x="250" y="210" width="10" height="10" fill="#152250"/><rect x="260" y="210" width="10" height="10" fill="#3555ca"/><rect x="270" y="210" width="10" height="10" fill="#111b41"/><rect x="0" y="220" width="10" height="10" fill="#243b8c"/><rect x="10" y="220" width="10" height="10" fill="#070b1a"/><rect x="30" y="220" width="10" height="10" fill="#263e91"/><rect x="40" y="220" width="10" height="10" fill="#060a17"/><rect x="50" y="220" width="10" height="10" fill="#314fba"/><rect x="70" y="220" width="10" height="10" fill="#274096"/><rect x="90" y="220" width="10" height="10" fill="#263d90"/><rect x="130" y="220" width="10" height="10" fill="#172556"/><rect x="140" y="220" width="10" height="10" fill="#070b1a"/><rect x="170" y="220" width="10" height="10" fill="#3555ca"/><rect x="180" y="220" width="10" height="10" fill="#233885"/><rect x="190" y="220" width="10" height="10" fill="#223884"/><rect x="220" y="220" width="10" height="10" fill="#28419a"/><rect x="240" y="220" width="10" height="10" fill="#040710"/><rect x="250" y="220" width="10" height="10" fill="#162455"/><rect x="260" y="220" width="10" height="10" fill="#131f49"/><rect x="0" y="230" width="10" height="10" fill="#121d45"/><rect x="40" y="230" width="10" height="10" fill="#243b8c"/><rect x="80" y="230" width="10" height="10" fill="#253b8c"/><rect x="140" y="230" width="10" height="10" fill="#111c41"/><rect x="150" y="230" width="10" height="10" fill="#284098"/><rect x="160" y="230" width="10" height="10" fill="#162353"/><rect x="170" y="230" width="10" height="10" fill="#3251bf"/><rect x="180" y="230" width="10" height="10" fill="#263e93"/><rect x="190" y="230" width="10" height="10" fill="#314fbc"/><rect x="200" y="230" width="10" height="10" fill="#162353"/><rect x="220" y="230" width="10" height="10" fill="#28419b"/><rect x="240" y="230" width="10" height="10" fill="#162353"/><rect x="260" y="230" width="10" height="10" fill="#172659"/><rect x="0" y="240" width="10" height="10" fill="#274097"/><rect x="10" y="240" width="10" height="10" fill="#172558"/><rect x="40" y="240" width="10" height="10" fill="#111c41"/><rect x="70" y="240" width="10" height="10" fill="#253d8f"/><rect x="90" y="240" width="10" height="10" fill="#29439d"/><rect x="100" y="240" width="10" height="10" fill="#284098"/><rect x="120" y="240" width="10" height="10" fill="#29439e"/><rect x="160" y="240" width="10" height="10" fill="#253c8d"/><rect x="170" y="240" width="10" height="10" fill="#131e48"/><rect x="180" y="240" width="10" height="10" fill="#284199"/><rect x="240" y="240" width="10" height="10" fill="#070c1c"/><rect x="250" y="240" width="10" height="10" fill="#121c43"/><rect x="10" y="250" width="10" height="10" fill="#263d91"/><rect x="30" y="250" width="10" height="10" fill="#314fba"/><rect x="80" y="250" width="10" height="10" fill="#273f96"/><rect x="100" y="250" width="10" height="10" fill="#121d45"/><rect x="110" y="250" width="10" height="10" fill="#273f94"/><rect x="120" y="250" width="10" height="10" fill="#284199"/><rect x="130" y="250" width="10" height="10" fill="#121d45"/><rect x="140" y="250" width="10" height="10" fill="#263d90"/><rect x="160" y="250" width="10" height="10" fill="#273f95"/><rect x="170" y="250" width="10" height="10" fill="#131f48"/><rect x="200" y="250" width="10" height="10" fill="#274096"/><rect x="250" y="250" width="10" height="10" fill="#0b122a"/><rect x="260" y="250" width="10" height="10" fill="#29429c"/><rect x="20" y="260" width="10" height="10" fill="#03050c"/><rect x="30" y="260" width="10" height="10" fill="#284198"/><rect x="40" y="260" width="10" height="10" fill="#2d49ac"/><rect x="60" y="260" width="10" height="10" fill="#29429d"/><rect x="70" y="260" width="10" height="10" fill="#111b41"/><rect x="110" y="260" width="10" height="10" fill="#29439e"/><rect x="150" y="260" width="10" height="10" fill="#243b8c"/><rect x="190" y="260" width="10" height="10" fill="#233986"/><rect x="200" y="260" width="10" height="10" fill="#253c8f"/><rect x="230" y="260" width="10" height="10" fill="#2f4db6"/><rect x="240" y="260" width="10" height="10" fill="#2c48aa"/><rect x="250" y="260" width="10" height="10" fill="#243a88"/><rect x="260" y="260" width="10" height="10" fill="#2c48a9"/><rect x="270" y="260" width="10" height="10" fill="#121d45"/><rect x="20" y="270" width="10" height="10" fill="#121e46"/><rect x="30" y="270" width="10" height="10" fill="#131e48"/><rect x="40" y="270" width="10" height="10" fill="#152250"/><rect x="50" y="270" width="10" height="10" fill="#29429d"/><rect x="100" y="270" width="10" height="10" fill="#162456"/><rect x="140" y="270" width="10" height="10" fill="#2f4db6"/><rect x="150" y="270" width="10" height="10" fill="#3858cb"/><rect x="160" y="270" width="10" height="10" fill="#03060d"/><rect x="170" y="270" width="10" height="10" fill="#263e93"/><rect x="180" y="270" width="10" height="10" fill="#131e47"/><rect x="210" y="270" width="10" height="10" fill="#304eb9"/><rect x="220" y="270" width="10" height="10" fill="#111c43"/><rect x="230" y="270" width="10" height="10" fill="#121e46"/><rect x="250" y="270" width="10" height="10" fill="#28429b"/><rect x="270" y="270" width="10" height="10" fill="#233885"/><rect x="50" y="280" width="10" height="10" fill="#0a1026"/><rect x="60" y="280" width="10" height="10" fill="#162353"/><rect x="70" y="280" width="10" height="10" fill="#03050c"/><rect x="80" y="280" width="10" height="10" fill="#243a8a"/><rect x="130" y="280" width="10" height="10" fill="#3252c1"/><rect x="170" y="280" width="10" height="10" fill="#13204b"/><rect x="190" y="280" width="10" height="10" fill="#263d91"/><rect x="250" y="280" width="10" height="10" fill="#0b122b"/><rect x="260" y="280" width="10" height="10" fill="#28419a"/><rect x="270" y="280" width="10" height="10" fill="#314fba"/><rect x="0" y="290" width="10" height="10" fill="#14214d"/><rect x="10" y="290" width="10" height="10" fill="#233988"/><rect x="20" y="290" width="10" height="10" fill="#121d44"/><rect x="40" y="290" width="10" height="10" fill="#243a89"/><rect x="50" y="290" width="10" height="10" fill="#172557"/><rect x="110" y="290" width="10" height="10" fill="#172556"/><rect x="130" y="290" width="10" height="10" fill="#28419b"/><rect x="140" y="290" width="10" height="10" fill="#284098"/><rect x="170" y="290" width="10" height="10" fill="#253b8c"/><rect x="190" y="290" width="10" height="10" fill="#172558"/><rect x="200" y="290" width="10" height="10" fill="#243b8c"/><rect x="220" y="290" width="10" height="10" fill="#121d44"/><rect x="0" y="300" width="10" height="10" fill="#253c8e"/><rect x="20" y="300" width="10" height="10" fill="#03050c"/><rect x="30" y="300" width="10" height="10" fill="#111c43"/><rect x="40" y="300" width="10" height="10" fill="#03050c"/><rect x="50" y="300" width="10" height="10" fill="#233885"/><rect x="70" y="300" width="10" height="10" fill="#263d91"/><rect x="80" y="300" width="10" height="10" fill="#18265a"/><rect x="130" y="300" width="10" height="10" fill="#121d45"/><rect x="140" y="300" width="10" height="10" fill="#263d90"/><rect x="150" y="300" width="10" height="10" fill="#284198"/><rect x="160" y="300" width="10" height="10" fill="#243a89"/><rect x="170" y="300" width="10" height="10" fill="#3455c9"/><rect x="180" y="300" width="10" height="10" fill="#131f48"/><rect x="190" y="300" width="10" height="10" fill="#243a88"/><rect x="240" y="300" width="10" height="10" fill="#04060e"/><rect x="260" y="300" width="10" height="10" fill="#172659"/><rect x="0" y="310" width="10" height="10" fill="#243b8b"/><rect x="10" y="310" width="10" height="10" fill="#314fba"/><rect x="20" y="310" width="10" height="10" fill="#29429d"/><rect x="40" y="310" width="10" height="10" fill="#121d45"/><rect x="50" y="310" width="10" height="10" fill="#253b8c"/><rect x="60" y="310" width="10" height="10" fill="#050915"/><rect x="80" y="310" width="10" height="10" fill="#243a8a"/><rect x="110" y="310" width="10" height="10" fill="#233987"/><rect x="130" y="310" width="10" height="10" fill="#243a8a"/><rect x="160" y="310" width="10" height="10" fill="#111b41"/><rect x="170" y="310" width="10" height="10" fill="#060a18"/><rect x="190" y="310" width="10" height="10" fill="#29439e"/><rect x="200" y="310" width="10" height="10" fill="#121c43"/><rect x="220" y="310" width="10" height="10" fill="#274096"/><rect x="260" y="310" width="10" height="10" fill="#14204b"/><rect x="0" y="320" width="10" height="10" fill="#111b40"/><rect x="20" y="320" width="10" height="10" fill="#3251c0"/><rect x="50" y="320" width="10" height="10" fill="#03050c"/><rect x="70" y="320" width="10" height="10" fill="#253c8d"/><rect x="80" y="320" width="10" height="10" fill="#121d43"/><rect x="110" y="320" width="10" height="10" fill="#04070f"/><rect x="140" y="320" width="10" height="10" fill="#3858cb"/><rect x="160" y="320" width="10" height="10" fill="#172659"/><rect x="190" y="320" width="10" height="10" fill="#314fba"/><rect x="210" y="320" width="10" height="10" fill="#233885"/><rect x="260" y="320" width="10" height="10" fill="#2e4bb1"/><rect x="270" y="320" width="10" height="10" fill="#253c8f"/><rect x="10" y="330" width="10" height="10" fill="#162354"/><rect x="40" y="330" width="10" height="10" fill="#111b41"/><rect x="80" y="330" width="10" height="10" fill="#284097"/><rect x="100" y="330" width="10" height="10" fill="#04060f"/><rect x="150" y="330" width="10" height="10" fill="#2d49ad"/><rect x="160" y="330" width="10" height="10" fill="#263d90"/><rect x="170" y="330" width="10" height="10" fill="#314fbb"/><rect x="180" y="330" width="10" height="10" fill="#2a439f"/><rect x="200" y="330" width="10" height="10" fill="#263d90"/><rect x="210" y="330" width="10" height="10" fill="#162354"/><rect x="230" y="330" width="10" height="10" fill="#131f4a"/><rect x="260" y="330" width="10" height="10" fill="#2f4cb4"/><rect x="0" y="340" width="10" height="10" fill="#152352"/><rect x="10" y="340" width="10" height="10" fill="#172659"/><rect x="40" y="340" width="10" height="10" fill="#14214e"/><rect x="50" y="340" width="10" height="10" fill="#03050c"/><rect x="60" y="340" width="10" height="10" fill="#253c8d"/><rect x="70" y="340" width="10" height="10" fill="#263e93"/><rect x="110" y="340" width="10" height="10" fill="#243b8b"/><rect x="120" y="340" width="10" height="10" fill="#243b8b"/><rect x="130" y="340" width="10" height="10" fill="#162455"/><rect x="140" y="340" width="10" height="10" fill="#121d46"/><rect x="150" y="340" width="10" height="10" fill="#03050c"/><rect x="160" y="340" width="10" height="10" fill="#243a89"/><rect x="180" y="340" width="10" height="10" fill="#28429b"/><rect x="190" y="340" width="10" height="10" fill="#273e94"/><rect x="200" y="340" width="10" height="10" fill="#3353c5"/><rect x="210" y="340" width="10" height="10" fill="#29429c"/><rect x="220" y="340" width="10" height="10" fill="#29439e"/><rect x="240" y="340" width="10" height="10" fill="#162353"/><rect x="250" y="340" width="10" height="10" fill="#03050c"/><rect x="260" y="340" width="10" height="10" fill="#121c43"/><rect x="30" y="350" width="10" height="10" fill="#0b122a"/><rect x="60" y="350" width="10" height="10" fill="#28419a"/><rect x="100" y="350" width="10" height="10" fill="#263e92"/><rect x="120" y="350" width="10" height="10" fill="#243a88"/><rect x="140" y="350" width="10" height="10" fill="#172557"/><rect x="150" y="350" width="10" height="10" fill="#284098"/><rect x="170" y="350" width="10" height="10" fill="#2f4cb4"/><rect x="180" y="350" width="10" height="10" fill="#253c8e"/><rect x="190" y="350" width="10" height="10" fill="#03050c"/><rect x="220" y="350" width="10" height="10" fill="#3656ca"/><rect x="230" y="350" width="10" height="10" fill="#111b41"/><rect x="240" y="350" width="10" height="10" fill="#090e21"/><rect x="250" y="350" width="10" height="10" fill="#04060e"/><rect x="260" y="350" width="10" height="10" fill="#253c8d"/><rect x="270" y="350" width="10" height="10" fill="#131e47"/></svg>