<svg xmlns="http://www.w3.org/2000/svg" viewBox="0 0 280 360" width="280" height="360" shape-rendering="crispEdges" preserveAspectRatio="xMidYMid slice"><rect width="280" height="360" fill="#ff6b6b"/><rect x="0" y="0" width="10" height="10" fill="#ffa1a1"/><rect x="10" y="0" width="10" height="10" fill="#ff0505"/><rect x="20" y="0" width="10" height="10" fill="#ff3838"/><rect x="30" y="0" width="10" height="10" fill="#ff8888"/><rect x="60" y="0" width="10" height="10" fill="#ff4848"/><rect x="70" y="0" width="10" height="10" fill="#ff9090"/><rect x="80" y="0" width="10" height="10" fill="#ff3030"/><rect x="100" y="0" width="10" height="10" fill="#ff1515"/><rect x="110" y="0" width="10" height="10" fill="#ff3232"/><rect x="130" y="0" width="10" height="10" fill="#ff3e3e"/><rect x="140" y="0" width="10" height="10" fill="#ff0a0a"/><rect x="150" y="0" width="10" height="10" fill="#ffa4a4"/><rect x="160" y="0" width="10" height="10" fill="#ff9090"/><rect x="180" y="0" width="10" height="10" fill="#ffcbcb"/><rect x="190" y="0" width="10" height="10" fill="#ff0f0f"/><rect x="200" y="0" width="10" height="10" fill="#ff3434"/><rect x="210" y="0" width="10" height="10" fill="#ffb3b3"/><rect x="240" y="0" width="10" height="10" fill="#ff4545"/><rect x="250" y="0" width="10" height="10" fill="#fe0000"/><rect x="260" y="0" width="10" height="10" fill="#ff3333"/><rect x="0" y="10" width="10" height="10" fill="#ffa7a7"/><rect x="10" y="10" width="10" height="10" fill="#ff9191"/><rect x="30" y="10" width="10" height="10" fill="#ff4b4b"/><rect x="40" y="10" width="10" height="10" fill="#ff9898"/><rect x="50" y="10" width="10" height="10" fill="#ff8989"/><rect x="60" y="10" width="10" height="10" fill="#ffa5a5"/><rect x="90" y="10" width="10" height="10" fill="#ffd0d0"/><rect x="120" y="10" width="10" height="10" fill="#ff4545"/><rect x="150" y="10" width="10" height="10" fill="#ff9f9f"/><rect x="180" y="10" width="10" height="10" fill="#d70000"/><rect x="200" y="10" width="10" height="10" fill="#ff9d9d"/><rect x="220" y="10" width="10" height="10" fill="#ff2f2f"/><rect x="230" y="10" width="10" height="10" fill="#ff9292"/><rect x="10" y="20" width="10" height="10" fill="#ff3e3e"/><rect x="20" y="20" width="10" height="10" fill="#ff3131"/><rect x="30" y="20" width="10" height="10" fill="#ff5050"/><rect x="40" y="20" width="10" height="10" fill="#ffb7b7"/><rect x="50" y="20" width="10" height="10" fill="#ff3434"/><rect x="60" y="20" width="10" height="10" fill="#ff9393"/><rect x="90" y="20" width="10" height="10" fill="#ff8d8d"/><rect x="100" y="20" width="10" height="10" fill="#ff8e8e"/><rect x="130" y="20" width="10" height="10" fill="#ff4040"/><rect x="160" y="20" width="10" height="10" fill="#ff9797"/><rect x="180" y="20" width="10" height="10" fill="#e30000"/><rect x="240" y="20" width="10" height="10" fill="#ff3d3d"/><rect x="260" y="20" width="10" height="10" fill="#ffc3c3"/><rect x="270" y="20" width="10" height="10" fill="#ffa6a6"/><rect x="0" y="30" width="10" height="10" fill="#ff9a9a"/><rect x="20" y="30" width="10" height="10" fill="#e30000"/><rect x="50" y="30" width="10" height="10" fill="#ff9797"/><rect x="60" y="30" width="10" height="10" fill="#ff8b8b"/><rect x="70" y="30" width="10" height="10" fill="#ff9e9e"/><rect x="80" y="30" width="10" height="10" fill="#ff4141"/><rect x="100" y="30" width="10" height="10" fill="#ff9898"/><rect x="140" y="30" width="10" height="10" fill="#dd0000"/><rect x="160" y="30" width="10" height="10" fill="#ff4a4a"/><rect x="180" y="30" width="10" height="10" fill="#ff9d9d"/><rect x="210" y="30" width="10" height="10" fill="#ffd2d2"/><rect x="220" y="30" width="10" height="10" fill="#ff1212"/><rect x="230" y="30" width="10" height="10" fill="#ffdddd"/><rect x="250" y="30" width="10" height="10" fill="#ffa0a0"/><rect x="270" y="30" width="10" height="10" fill="#ffa3a3"/><rect x="0" y="40" width="10" height="10" fill="#ff4242"/><rect x="20" y="40" width="10" height="10" fill="#ff8b8b"/><rect x="30" y="40" width="10" height="10" fill="#ff8e8e"/><rect x="50" y="40" width="10" height="10" fill="#ffa2a2"/><rect x="60" y="40" width="10" height="10" fill="#fb0000"/><rect x="80" y="40" width="10" height="10" fill="#ff4545"/><rect x="90" y="40" width="10" height="10" fill="#ff3434"/><rect x="110" y="40" width="10" height="10" fill="#ff4747"/><rect x="140" y="40" width="10" height="10" fill="#ff8d8d"/><rect x="190" y="40" width="10" height="10" fill="#ff9090"/><rect x="230" y="40" width="10" height="10" fill="#e00000"/><rect x="270" y="40" width="10" height="10" fill="#ff9292"/><rect x="0" y="50" width="10" height="10" fill="#ffa0a0"/><rect x="20" y="50" width="10" height="10" fill="#ff8a8a"/><rect x="30" y="50" width="10" height="10" fill="#ff9090"/><rect x="40" y="50" width="10" height="10" fill="#ff3232"/><rect x="50" y="50" width="10" height="10" fill="#fb0000"/><rect x="60" y="50" width="10" height="10" fill="#ff8b8b"/><rect x="70" y="50" width="10" height="10" fill="#ff3636"/><rect x="100" y="50" width="10" height="10" fill="#ff3737"/><rect x="110" y="50" width="10" height="10" fill="#ff4747"/><rect x="190" y="50" width="10" height="10" fill="#ffc6c6"/><rect x="210" y="50" width="10" height="10" fill="#ffb6b6"/><rect x="230" y="50" width="10" height="10" fill="#ff4646"/><rect x="240" y="50" width="10" height="10" fill="#e30000"/><rect x="260" y="50" width="10" height="10" fill="#ffe1e1"/><rect x="270" y="50" width="10" height="10" fill="#ff8a8a"/><rect x="10" y="60" width="10" height="10" fill="#ff3232"/><rect x="20" y="60" width="10" height="10" fill="#ffa0a0"/><rect x="30" y="60" width="10" height="10" fill="#ff4949"/><rect x="50" y="60" width="10" height="10" fill="#ffdddd"/><rect x="100" y="60" width="10" height="10" fill="#ffbdbd"/><rect x="130" y="60" width="10" height="10" fill="#ff8787"/><rect x="140" y="60" width="10" height="10" fill="#ff9696"/><rect x="180" y="60" width="10" height="10" fill="#ffe2e2"/><rect x="190" y="60" width="10" height="10" fill="#ff4a4a"/><rect x="220" y="60" width="10" height="10" fill="#ffe2e2"/><rect x="240" y="60" width="10" height="10" fill="#ff9292"/><rect x="270" y="60" width="10" height="10" fill="#ff3636"/><rect x="0" y="70" width="10" height="10" fill="#ffcbcb"/><rect x="20" y="70" width="10" height="10" fill="#ff8989"/><rect x="30" y="70" width="10" height="10" fill="#ffdada"/><rect x="70" y="70" width="10" height="10" fill="#ffd6d6"/><rect x="90" y="70" width="10" height="10" fill="#d60000"/><rect x="100" y="70" width="10" height="10" fill="#ffcccc"/><rect x="130" y="70" width="10" height="10" fill="#f60000"/><rect x="140" y="70" width="10" height="10" fill="#ff0c0c"/><rect x="240" y="70" width="10" height="10" fill="#ff8e8e"/><rect x="0" y="80" width="10" height="10" fill="#ffa0a0"/><rect x="20" y="80" width="10" height="10" fill="#ff9898"/><rect x="30" y="80" width="10" height="10" fill="#ffd6d6"/><rect x="50" y="80" width="10" height="10" fill="#ffa5a5"/><rect x="60" y="80" width="10" height="10" fill="#e20000"/><rect x="110" y="80" width="10" height="10" fill="#ff4040"/><rect x="120" y="80" width="10" height="10" fill="#ff1919"/><rect x="130" y="80" width="10" height="10" fill="#ff4d4d"/><rect x="140" y="80" width="10" height="10" fill="#ff8a8a"/><rect x="160" y="80" width="10" height="10" fill="#ffa7a7"/><rect x="200" y="80" width="10" height="10" fill="#ff4c4c"/><rect x="220" y="80" width="10" height="10" fill="#ff5050"/><rect x="230" y="80" width="10" height="10" fill="#ffc0c0"/><rect x="240" y="80" width="10" height="10" fill="#ff1212"/><rect x="0" y="90" width="10" height="10" fill="#ff8f8f"/><rect x="60" y="90" width="10" height="10" fill="#ffcece"/><rect x="90" y="90" width="10" height="10" fill="#ff3232"/><rect x="110" y="90" width="10" height="10" fill="#ff8f8f"/><rect x="120" y="90" width="10" height="10" fill="#ffd7d7"/><rect x="130" y="90" width="10" height="10" fill="#ff9c9c"/><rect x="140" y="90" width="10" height="10" fill="#ff4f4f"/><rect x="180" y="90" width="10" height="10" fill="#ffd0d0"/><rect x="230" y="90" width="10" height="10" fill="#ff4444"/><rect x="250" y="90" width="10" height="10" fill="#ff9393"/><rect x="260" y="90" width="10" height="10" fill="#ff4848"/><rect x="0" y="100" width="10" height="10" fill="#ff9393"/><rect x="20" y="100" width="10" height="10" fill="#ff3333"/><rect x="30" y="100" width="10" height="10" fill="#ff3a3a"/><rect x="50" y="100" width="10" height="10" fill="#ff4a4a"/><rect x="80" y="100" width="10" height="10" fill="#ff8c8c"/><rect x="100" y="100" width="10" height="10" fill="#ff3b3b"/><rect x="160" y="100" width="10" height="10" fill="#ff3434"/><rect x="190" y="100" width="10" height="10" fill="#ffa6a6"/><rect x="210" y="100" width="10" height="10" fill="#ffa8a8"/><rect x="230" y="100" width="10" height="10" fill="#ffa1a1"/><rect x="240" y="100" width="10" height="10" fill="#ff8b8b"/><rect x="250" y="100" width="10" height="10" fill="#ff3d3d"/><rect x="260" y="100" width="10" height="10" fill="#ff9a9a"/><rect x="270" y="100" width="10" height="10" fill="#ff3d3d"/><rect x="0" y="110" width="10" height="10" fill="#ffb8b8"/><rect x="30" y="110" width="10" height="10" fill="#ff9e9e"/><rect x="40" y="110" width="10" height="10" fill="#ffb3b3"/><rect x="70" y="110" width="10" height="10" fill="#ff9393"/><rect x="100" y="110" width="10" height="10" fill="#ff3c3c"/><rect x="110" y="110" width="10" height="10" fill="#ff0202"/><rect x="130" y="110" width="10" height="10" fill="#e60000"/><rect x="150" y="110" width="10" height="10" fill="#ff4242"/><rect x="210" y="110" width="10" height="10" fill="#ff4848"/><rect x="230" y="110" width="10" height="10" fill="#ff8585"/><rect x="240" y="110" width="10" height="10" fill="#ff4848"/><rect x="260" y="110" width="10" height="10" fill="#ff8c8c"/><rect x="60" y="120" width="10" height="10" fill="#ff3d3d"/><rect x="70" y="120" width="10" height="10" fill="#ff8585"/><rect x="80" y="120" width="10" height="10" fill="#ffb4b4"/><rect x="90" y="120" width="10" height="10" fill="#ff3a3a"/><rect x="120" y="120" width="10" height="10" fill="#ff9999"/><rect x="130" y="120" width="10" height="10" fill="#ff4f4f"/><rect x="150" y="120" width="10" height="10" fill="#ff8f8f"/><rect x="160" y="120" width="10" height="10" fill="#ff9292"/><rect x="180" y="120" width="10" height="10" fill="#ff4b4b"/><rect x="200" y="120" width="10" height="10" fill="#ff3131"/><rect x="210" y="120" width="10" height="10" fill="#ffe2e2"/><rect x="250" y="120" width="10" height="10" fill="#ff3a3a"/><rect x="260" y="120" width="10" height="10" fill="#ff9e9e"/><rect x="0" y="130" width="10" height="10" fill="#ff9494"/><rect x="10" y="130" width="10" height="10" fill="#ffc2c2"/><rect x="20" y="130" width="10" height="10" fill="#ff9b9b"/><rect x="30" y="130" width="10" height="10" fill="#ff3535"/><rect x="40" y="130" width="10" height="10" fill="#ff4d4d"/><rect x="50" y="130" width="10" height="10" fill="#ff1717"/><rect x="60" y="130" width="10" height="10" fill="#ff4747"/><rect x="110" y="130" width="10" height="10" fill="#de0000"/><rect x="140" y="130" width="10" height="10" fill="#ff9090"/><rect x="170" y="130" width="10" height="10" fill="#ff2f2f"/><rect x="180" y="130" width="10" height="10" fill="#ffa1a1"/><rect x="200" y="130" width="10" height="10" fill="#ff3535"/><rect x="210" y="130" width="10" height="10" fill="#ffbcbc"/><rect x="220" y="130" width="10" height="10" fill="#ff8787"/><rect x="230" y="130" width="10" height="10" fill="#ff9595"/><rect x="240" y="130" width="10" height="10" fill="#ff9797"/><rect x="0" y="140" width="10" height="10" fill="#ff4848"/><rect x="10" y="140" width="10" height="10" fill="#dd0000"/><rect x="40" y="140" width="10" height="10" fill="#ff5151"/><rect x="50" y="140" width="10" height="10" fill="#ff4343"/><rect x="60" y="140" width="10" height="10" fill="#ff8585"/><rect x="70" y="140" width="10" height="10" fill="#ff8787"/><rect x="90" y="140" width="10" height="10" fill="#ff9b9b"/><rect x="170" y="140" width="10" height="10" fill="#ff3434"/><rect x="190" y="140" width="10" height="10" fill="#ff0101"/><rect x="200" y="140" width="10" height="10" fill="#ff3434"/><rect x="210" y="140" width="10" height="10" fill="#ff3131"/><rect x="220" y="140" width="10" height="10" fill="#ffa4a4"/><rect x="240" y="140" width="10" height="10" fill="#ff9999"/><rect x="250" y="140" width="10" height="10" fill="#ff8787"/><rect x="270" y="140" width="10" height="10" fill="#ff9292"/><rect x="0" y="150" width="10" height="10" fill="#ff3737"/><rect x="10" y="150" width="10" height="10" fill="#ff8989"/><rect x="30" y="150" width="10" height="10" fill="#ffc2c2"/><rect x="50" y="150" width="10" height="10" fill="#ff4444"/><rect x="70" y="150" width="10" height="10" fill="#ffa5a5"/><rect x="80" y="150" width="10" height="10" fill="#ff8c8c"/><rect x="120" y="150" width="10" height="10" fill="#d90000"/><rect x="130" y="150" width="10" height="10" fill="#d70000"/><rect x="150" y="150" width="10" height="10" fill="#ff9898"/><rect x="160" y="150" width="10" height="10" fill="#ff9898"/><rect x="200" y="150" width="10" height="10" fill="#ff8a8a"/><rect x="210" y="150" width="10" height="10" fill="#ffd3d3"/><rect x="230" y="150" width="10" height="10" fill="#ffb7b7"/><rect x="250" y="150" width="10" height="10" fill="#ff4444"/><rect x="260" y="150" width="10" height="10" fill="#ffcccc"/><rect x="0" y="160" width="10" height="10" fill="#ffe5e5"/><rect x="20" y="160" width="10" height="10" fill="#ff3939"/><rect x="40" y="160" width="10" height="10" fill="#ff4040"/><rect x="50" y="160" width="10" height="10" fill="#ff8585"/><rect x="80" y="160" width="10" height="10" fill="#ffb4b4"/><rect x="110" y="160" width="10" height="10" fill="#ff4b4b"/><rect x="120" y="160" width="10" height="10" fill="#ffa1a1"/><rect x="130" y="160" width="10" height="10" fill="#ff9292"/><rect x="140" y="160" width="10" height="10" fill="#ff4d4d"/><rect x="160" y="160" width="10" height="10" fill="#ffbdbd"/><rect x="190" y="160" width="10" height="10" fill="#ffa6a6"/><rect x="210" y="160" width="10" height="10" fill="#ffa4a4"/><rect x="250" y="160" width="10" height="10" fill="#ffa6a6"/><rect x="260" y="160" width="10" height="10" fill="#ffc3c3"/><rect x="0" y="170" width="10" height="10" fill="#ffa6a6"/><rect x="40" y="170" width="10" height="10" fill="#ffc2c2"/><rect x="70" y="170" width="10" height="10" fill="#ff8c8c"/><rect x="80" y="170" width="10" height="10" fill="#ff4b4b"/><rect x="90" y="170" width="10" height="10" fill="#ff9191"/><rect x="100" y="170" width="10" height="10" fill="#ffe4e4"/><rect x="140" y="170" width="10" height="10" fill="#ff8a8a"/><rect x="170" y="170" width="10" height="10" fill="#ff9191"/><rect x="190" y="170" width="10" height="10" fill="#ffa7a7"/><rect x="200" y="170" width="10" height="10" fill="#ff0808"/><rect x="220" y="170" width="10" height="10" fill="#ffa3a3"/><rect x="240" y="170" width="10" height="10" fill="#ff9090"/><rect x="250" y="170" width="10" height="10" fill="#d50000"/><rect x="270" y="170" width="10" height="10" fill="#ff0f0f"/><rect x="10" y="180" width="10" height="10" fill="#ffc4c4"/><rect x="20" y="180" width="10" height="10" fill="#ef0000"/><rect x="30" y="180" width="10" height="10" fill="#ffa5a5"/><rect x="40" y="180" width="10" height="10" fill="#ff4646"/><rect x="90" y="180" width="10" height="10" fill="#ff4242"/><rect x="110" y="180" width="10" height="10" fill="#ff3a3a"/><rect x="120" y="180" width="10" height="10" fill="#ffd0d0"/><rect x="140" y="180" width="10" height="10" fill="#ff3939"/><rect x="150" y="180" width="10" height="10" fill="#ff9a9a"/><rect x="200" y="180" width="10" height="10" fill="#ff8b8b"/><rect x="210" y="180" width="10" height="10" fill="#ffe1e1"/><rect x="250" y="180" width="10" height="10" fill="#ffa0a0"/><rect x="270" y="180" width="10" height="10" fill="#ff4949"/><rect x="40" y="190" width="10" height="10" fill="#ffbaba"/><rect x="60" y="190" width="10" height="10" fill="#ff9090"/><rect x="70" y="190" width="10" height="10" fill="#ff8686"/><rect x="100" y="190" width="10" height="10" fill="#ff0d0d"/><rect x="120" y="190" width="10" height="10" fill="#ff3737"/><rect x="130" y="190" width="10" height="10" fill="#ff9e9e"/><rect x="180" y="190" width="10" height="10" fill="#ff9f9f"/><rect x="190" y="190" width="10" height="10" fill="#ff3a3a"/><rect x="210" y="190" width="10" height="10" fill="#ff4949"/><rect x="240" y="190" width="10" height="10" fill="#fb0000"/><rect x="250" y="190" width="10" height="10" fill="#ffa0a0"/><rect x="260" y="190" width="10" height="10" fill="#ff8b8b"/><rect x="270" y="190" width="10" height="10" fill="#ff9d9d"/><rect x="30" y="200" width="10" height="10" fill="#ffa5a5"/><rect x="60" y="200" width="10" height="10" fill="#ff3333"/><rect x="70" y="200" width="10" height="10" fill="#ff4c4c"/><rect x="110" y="200" width="10" height="10" fill="#ff4848"/><rect x="120" y="200" width="10" height="10" fill="#ff0707"/><rect x="140" y="200" width="10" height="10" fill="#ff9797"/><rect x="150" y="200" width="10" height="10" fill="#ff3f3f"/><rect x="160" y="200" width="10" height="10" fill="#ff3d3d"/><rect x="170" y="200" width="10" height="10" fill="#dc0000"/><rect x="180" y="200" width="10" height="10" fill="#ffe2e2"/><rect x="190" y="200" width="10" height="10" fill="#ff9494"/><rect x="230" y="200" width="10" height="10" fill="#ff4040"/><rect x="260" y="200" width="10" height="10" fill="#ff8b8b"/><rect x="270" y="200" width="10" height="10" fill="#ffc2c2"/><rect x="10" y="210" width="10" height="10" fill="#ffcaca"/><rect x="40" y="210" width="10" height="10" fill="#ffa6a6"/><rect x="70" y="210" width="10" height="10" fill="#ffd3d3"/><rect x="80" y="210" width="10" height="10" fill="#ff5151"/><rect x="90" y="210" width="10" height="10" fill="#ffe5e5"/><rect x="110" y="210" width="10" height="10" fill="#ff4d4d"/><rect x="130" y="210" width="10" height="10" fill="#ffbebe"/><rect x="170" y="210" width="10" height="10" fill="#ffb7b7"/><rect x="180" y="210" width="10" height="10" fill="#ff0101"/><rect x="190" y="210" width="10" height="10" fill="#ff9191"/><rect x="210" y="210" width="10" height="10" fill="#ffa6a6"/><rect x="220" y="210" width="10" height="10" fill="#ff8c8c"/><rect x="230" y="210" width="10" height="10" fill="#ff9d9d"/><rect x="240" y="210" width="10" height="10" fill="#fc0000"/><rect x="250" y="210" width="10" height="10" fill="#ffcaca"/><rect x="260" y="210" width="10" height="10" fill="#f10000"/><rect x="0" y="220" width="10" height="10" fill="#ff3131"/><rect x="40" y="220" width="10" height="10" fill="#ffe1e1"/><rect x="60" y="220" width="10" height="10" fill="#ff9c9c"/><rect x="70" y="220" width="10" height="10" fill="#ff8686"/><rect x="90" y="220" width="10" height="10" fill="#ffc0c0"/><rect x="100" y="220" width="10" height="10" fill="#e20000"/><rect x="140" y="220" width="10" height="10" fill="#ffd2d2"/><rect x="150" y="220" width="10" height="10" fill="#ff4343"/><rect x="160" y="220" width="10" height="10" fill="#ff9090"/><rect x="240" y="220" width="10" height="10" fill="#ffdfdf"/><rect x="250" y="220" width="10" height="10" fill="#ffbebe"/><rect x="270" y="220" width="10" height="10" fill="#ff8b8b"/><rect x="10" y="230" width="10" height="10" fill="#ff2f2f"/><rect x="30" y="230" width="10" height="10" fill="#ff9696"/><rect x="50" y="230" width="10" height="10" fill="#ffb3b3"/><rect x="60" y="230" width="10" height="10" fill="#ff3434"/><rect x="80" y="230" width="10" height="10" fill="#ff3636"/><rect x="120" y="230" width="10" height="10" fill="#ff0000"/><rect x="130" y="230" width="10" height="10" fill="#ff4e4e"/><rect x="140" y="230" width="10" height="10" fill="#ff4848"/><rect x="150" y="230" width="10" height="10" fill="#ff8f8f"/><rect x="160" y="230" width="10" height="10" fill="#ff3838"/><rect x="170" y="230" width="10" height="10" fill="#ff0b0b"/><rect x="190" y="230" width="10" height="10" fill="#ffd3d3"/><rect x="220" y="230" width="10" height="10" fill="#ff8989"/><rect x="0" y="240" width="10" height="10" fill="#ff8a8a"/><rect x="10" y="240" width="10" height="10" fill="#ffb6b6"/><rect x="20" y="240" width="10" height="10" fill="#ff4343"/><rect x="40" y="240" width="10" height="10" fill="#ff9393"/><rect x="60" y="240" width="10" height="10" fill="#ee0000"/><rect x="70" y="240" width="10" height="10" fill="#ff8e8e"/><rect x="80" y="240" width="10" height="10" fill="#e90000"/><rect x="100" y="240" width="10" height="10" fill="#ff0606"/><rect x="110" y="240" width="10" height="10" fill="#d50000"/><rect x="120" y="240" width="10" height="10" fill="#ff4747"/><rect x="130" y="240" width="10" height="10" fill="#f40000"/><rect x="160" y="240" width="10" height="10" fill="#ff9393"/><rect x="220" y="240" width="10" height="10" fill="#ffa1a1"/><rect x="230" y="240" width="10" height="10" fill="#ff9797"/><rect x="10" y="250" width="10" height="10" fill="#f20000"/><rect x="30" y="250" width="10" height="10" fill="#ffd1d1"/><rect x="40" y="250" width="10" height="10" fill="#ffdcdc"/><rect x="50" y="250" width="10" height="10" fill="#ff0606"/><rect x="60" y="250" width="10" height="10" fill="#ffa4a4"/><rect x="80" y="250" width="10" height="10" fill="#ffb6b6"/><rect x="140" y="250" width="10" height="10" fill="#ff9a9a"/><rect x="160" y="250" width="10" height="10" fill="#ffe5e5"/><rect x="170" y="250" width="10" height="10" fill="#e50000"/><rect x="180" y="250" width="10" height="10" fill="#e30000"/><rect x="190" y="250" width="10" height="10" fill="#ffcbcb"/><rect x="200" y="250" width="10" height="10" fill="#ff1818"/><rect x="210" y="250" width="10" height="10" fill="#ff3939"/><rect x="230" y="250" width="10" height="10" fill="#ff4444"/><rect x="240" y="250" width="10" height="10" fill="#ffe5e5"/><rect x="260" y="250" width="10" height="10" fill="#ff0e0e"/><rect x="0" y="260" width="10" height="10" fill="#ffd9d9"/><rect x="40" y="260" width="10" height="10" fill="#ff5050"/><rect x="50" y="260" width="10" height="10" fill="#ff9d9d"/><rect x="60" y="260" width="10" height="10" fill="#ff4f4f"/><rect x="100" y="260" width="10" height="10" fill="#ff9797"/><rect x="130" y="260" width="10" height="10" fill="#ff2f2f"/><rect x="140" y="260" width="10" height="10" fill="#ff4747"/><rect x="160" y="260" width="10" height="10" fill="#ff8585"/><rect x="220" y="260" width="10" height="10" fill="#d80000"/><rect x="240" y="260" width="10" height="10" fill="#ffdbdb"/><rect x="250" y="260" width="10" height="10" fill="#e00000"/><rect x="270" y="260" width="10" height="10" fill="#ff4e4e"/><rect x="0" y="270" width="10" height="10" fill="#ffa2a2"/><rect x="30" y="270" width="10" height="10" fill="#ffc9c9"/><rect x="80" y="270" width="10" height="10" fill="#ff4343"/><rect x="90" y="270" width="10" height="10" fill="#ff9c9c"/><rect x="100" y="270" width="10" height="10" fill="#dd0000"/><rect x="110" y="270" width="10" height="10" fill="#ff9292"/><rect x="120" y="270" width="10" height="10" fill="#ff8c8c"/><rect x="140" y="270" width="10" height="10" fill="#ff3030"/><rect x="150" y="270" width="10" height="10" fill="#ffb7b7"/><rect x="160" y="270" width="10" height="10" fill="#ff3838"/><rect x="170" y="270" width="10" height="10" fill="#ff4343"/><rect x="190" y="270" width="10" height="10" fill="#ff4d4d"/><rect x="220" y="270" width="10" height="10" fill="#ff8f8f"/><rect x="230" y="270" width="10" height="10" fill="#ff5050"/><rect x="240" y="270" width="10" height="10" fill="#ffcccc"/><rect x="0" y="280" width="10" height="10" fill="#ff9393"/><rect x="30" y="280" width="10" height="10" fill="#ff8585"/><rect x="40" y="280" width="10" height="10" fill="#ff9595"/><rect x="50" y="280" width="10" height="10" fill="#ff8888"/><rect x="60" y="280" width="10" height="10" fill="#ff4c4c"/><rect x="70" y="280" width="10" height="10" fill="#ff3838"/><rect x="80" y="280" width="10" height="10" fill="#ffd1d1"/><rect x="90" y="280" width="10" height="10" fill="#ff9b9b"/><rect x="130" y="280" width="10" height="10" fill="#ffcece"/><rect x="150" y="280" width="10" height="10" fill="#e20000"/><rect x="160" y="280" width="10" height="10" fill="#ff9c9c"/><rect x="180" y="280" width="10" height="10" fill="#ff8c8c"/><rect x="190" y="280" width="10" height="10" fill="#ff3d3d"/><rect x="220" y="280" width="10" height="10" fill="#da0000"/><rect x="260" y="280" width="10" height="10" fill="#ff8888"/><rect x="270" y="280" width="10" height="10" fill="#ff9797"/><rect x="10" y="290" width="10" height="10" fill="#ff4444"/><rect x="20" y="290" width="10" height="10" fill="#ff4949"/><rect x="30" y="290" width="10" height="10" fill="#ff4141"/><rect x="100" y="290" width="10" height="10" fill="#ff8b8b"/><rect x="140" y="290" width="10" height="10" fill="#d30000"/><rect x="150" y="290" width="10" height="10" fill="#ff4646"/><rect x="160" y="290" width="10" height="10" fill="#ff0a0a"/><rect x="190" y="290" width="10" height="10" fill="#ff0e0e"/><rect x="200" y="290" width="10" height="10" fill="#ffdbdb"/><rect x="210" y="290" width="10" height="10" fill="#ff3232"/><rect x="220" y="290" width="10" height="10" fill="#f40000"/><rect x="230" y="290" width="10" height="10" fill="#ff9696"/><rect x="260" y="290" width="10" height="10" fill="#ffdede"/><rect x="10" y="300" width="10" height="10" fill="#ff9393"/><rect x="30" y="300" width="10" height="10" fill="#ff8585"/><rect x="40" y="300" width="10" height="10" fill="#ff0505"/><rect x="50" y="300" width="10" height="10" fill="#ff9696"/><rect x="60" y="300" width="10" height="10" fill="#ff3333"/><rect x="90" y="300" width="10" height="10" fill="#d90000"/><rect x="110" y="300" width="10" height="10" fill="#ff8b8b"/><rect x="130" y="300" width="10" height="10" fill="#ff9f9f"/><rect x="150" y="300" width="10" height="10" fill="#ff9191"/><rect x="190" y="300" width="10" height="10" fill="#ff3030"/><rect x="210" y="300" width="10" height="10" fill="#ff4d4d"/><rect x="220" y="300" width="10" height="10" fill="#ffa2a2"/><rect x="230" y="300" width="10" height="10" fill="#ff2f2f"/><rect x="240" y="300" width="10" height="10" fill="#ffdddd"/><rect x="260" y="300" width="10" height="10" fill="#ffa0a0"/><rect x="270" y="300" width="10" height="10" fill="#ff3939"/><rect x="0" y="310" width="10" height="10" fill="#ffbcbc"/><rect x="10" y="310" width="10" height="10" fill="#d50000"/><rect x="40" y="310" width="10" height="10" fill="#ff9797"/><rect x="60" y="310" width="10" height="10" fill="#ff4545"/><rect x="70" y="310" width="10" height="10" fill="#ff9f9f"/><rect x="80" y="310" width="10" height="10" fill="#fd0000"/><rect x="90" y="310" width="10" height="10" fill="#ffa5a5"/><rect x="100" y="310" width="10" height="10" fill="#ff8f8f"/><rect x="120" y="310" width="10" height="10" fill="#ff9b9b"/><rect x="140" y="310" width="10" height="10" fill="#ff4f4f"/><rect x="150" y="310" width="10" height="10" fill="#ffa5a5"/><rect x="180" y="310" width="10" height="10" fill="#ff3e3e"/><rect x="250" y="310" width="10" height="10" fill="#f60000"/><rect x="270" y="310" width="10" height="10" fill="#ff9e9e"/><rect x="0" y="320" width="10" height="10" fill="#ff9393"/><rect x="20" y="320" width="10" height="10" fill="#ff4747"/><rect x="30" y="320" width="10" height="10" fill="#ff9e9e"/><rect x="40" y="320" width="10" height="10" fill="#ff9999"/><rect x="50" y="320" width="10" height="10" fill="#ff8787"/><rect x="70" y="320" width="10" height="10" fill="#ff0c0c"/><rect x="80" y="320" width="10" height="10" fill="#ff5050"/><rect x="110" y="320" width="10" height="10" fill="#ffd4d4"/><rect x="120" y="320" width="10" height="10" fill="#ffc8c8"/><rect x="140" y="320" width="10" height="10" fill="#ed0000"/><rect x="180" y="320" width="10" height="10" fill="#ff8787"/><rect x="190" y="320" width="10" height="10" fill="#ff9696"/><rect x="200" y="320" width="10" height="10" fill="#ff9d9d"/><rect x="240" y="320" width="10" height="10" fill="#ffc8c8"/><rect x="250" y="320" width="10" height="10" fill="#ff4949"/><rect x="260" y="320" width="10" height="10" fill="#ff3f3f"/><rect x="270" y="320" width="10" height="10" fill="#ff9999"/><rect x="30" y="330" width="10" height="10" fill="#ff8787"/><rect x="50" y="330" width="10" height="10" fill="#ffdada"/><rect x="80" y="330" width="10" height="10" fill="#ffe4e4"/><rect x="90" y="330" width="10" height="10" fill="#ff0505"/><rect x="100" y="330" width="10" height="10" fill="#ffa4a4"/><rect x="130" y="330" width="10" height="10" fill="#ff9b9b"/><rect x="150" y="330" width="10" height="10" fill="#ff8585"/><rect x="200" y="330" width="10" height="10" fill="#ffe2e2"/><rect x="230" y="330" width="10" height="10" fill="#ff9f9f"/><rect x="260" y="330" width="10" height="10" fill="#ffa1a1"/><rect x="0" y="340" width="10" height="10" fill="#ff4242"/><rect x="10" y="340" width="10" height="10" fill="#ff0e0e"/><rect x="50" y="340" width="10" height="10" fill="#ff9393"/><rect x="60" y="340" width="10" height="10" fill="#ffdcdc"/><rect x="90" y="340" width="10" height="10" fill="#ff4d4d"/><rect x="100" y="340" width="10" height="10" fill="#ff8e8e"/><rect x="110" y="340" width="10" height="10" fill="#ff3d3d"/><rect x="130" y="340" width="10" height="10" fill="#ff4d4d"/><rect x="140" y="340" width="10" height="10" fill="#ffd5d5"/><rect x="180" y="340" width="10" height="10" fill="#ff8d8d"/><rect x="190" y="340" width="10" height="10" fill="#ff5050"/><rect x="220" y="340" width="10" height="10" fill="#ff3636"/><rect x="250" y="340" width="10" height="10" fill="#ff3434"/><rect x="20" y="350" width="10" height="10" fill="#ff4b4b"/><rect x="30" y="350" width="10" height="10" fill="#ff9595"/><rect x="40" y="350" width="10" height="10" fill="#ff4646"/><rect x="70" y="350" width="10" height="10" fill="#ffd6d6"/><rect x="110" y="350" width="10" height="10" fill="#ff9292"/><rect x="140" y="350" width="10" height="10" fill="#ff3939"/><rect x="150" y="350" width="10" height="10" fill="#ff4040"/><rect x="160" y="350" width="10" height="10" fill="#f30000"/><rect x="170" y="350" width="10" height="10" fill="#ffd0d0"/><rect x="180" y="350" width="10" height="10" fill="#ff9b9b"/><rect x="190" y="350" width="10" height="10" fill="#ff4141"/><rect x="210" y="350" width="10" height="10" fill="#ff4f4f"/><rect x="240" y="350" width="10" height="10" fill="#ff8989"/><rect x="250" y="350" width="10" height="10" fill="#ff9f9f"/><rect x="260" y="350" width="10" height="10" fill="#ffc4c4"/></svg>