<svg xmlns="http://www.w3.org/2000/svg" viewBox="0 0 280 360" width="280" height="360" shape-rendering="crispEdges" preserveAspectRatio="xMidYMid slice"><rect width="280" height="360" fill="#da2489"/><rect x="30" y="0" width="10" height="10" fill="#df3d97"/><rect x="60" y="0" width="10" height="10" fill="#c02078"/><rect x="70" y="0" width="10" height="10" fill="#b01d6e"/><rect x="90" y="0" width="10" height="10" fill="#e1479c"/><rect x="110" y="0" width="10" height="10" fill="#8e1759"/><rect x="130" y="0" width="10" height="10" fill="#e872b3"/><rect x="170" y="0" width="10" height="10" fill="#871655"/><rect x="190" y="0" width="10" height="10" fill="#e14a9e"/><rect x="200" y="0" width="10" height="10" fill="#61103d"/><rect x="230" y="0" width="10" height="10" fill="#a61b68"/><rect x="250" y="0" width="10" height="10" fill="#aa1c6b"/><rect x="260" y="0" width="10" height="10" fill="#df4098"/><rect x="270" y="0" width="10" height="10" fill="#ae1d6d"/><rect x="10" y="10" width="10" height="10" fill="#df4098"/><rect x="60" y="10" width="10" height="10" fill="#e353a3"/><rect x="70" y="10" width="10" height="10" fill="#580f37"/><rect x="80" y="10" width="10" height="10" fill="#64103f"/><rect x="110" y="10" width="10" height="10" fill="#e14a9e"/><rect x="120" y="10" width="10" height="10" fill="#df3c96"/><rect x="140" y="10" width="10" height="10" fill="#e97bb8"/><rect x="150" y="10" width="10" height="10" fill="#df3c96"/><rect x="170" y="10" width="10" height="10" fill="#ea7db9"/><rect x="180" y="10" width="10" height="10" fill="#881655"/><rect x="200" y="10" width="10" height="10" fill="#b61e73"/><rect x="210" y="10" width="10" height="10" fill="#b31e70"/><rect x="240" y="10" width="10" height="10" fill="#8d1758"/><rect x="270" y="10" width="10" height="10" fill="#aa1c6b"/><rect x="20" y="20" width="10" height="10" fill="#bc1f76"/><rect x="40" y="20" width="10" height="10" fill="#e24d9f"/><rect x="80" y="20" width="10" height="10" fill="#af1d6e"/><rect x="90" y="20" width="10" height="10" fill="#65113f"/><rect x="110" y="20" width="10" height="10" fill="#a61b68"/><rect x="190" y="20" width="10" height="10" fill="#e563ab"/><rect x="200" y="20" width="10" height="10" fill="#df3f98"/><rect x="220" y="20" width="10" height="10" fill="#bb1f75"/><rect x="250" y="20" width="10" height="10" fill="#e1499d"/><rect x="260" y="20" width="10" height="10" fill="#e872b3"/><rect x="270" y="20" width="10" height="10" fill="#e24fa1"/><rect x="10" y="30" width="10" height="10" fill="#b61e72"/><rect x="40" y="30" width="10" height="10" fill="#ad1d6d"/><rect x="50" y="30" width="10" height="10" fill="#6a1142"/><rect x="60" y="30" width="10" height="10" fill="#df3e98"/><rect x="70" y="30" width="10" height="10" fill="#e666ad"/><rect x="130" y="30" width="10" height="10" fill="#b41e71"/><rect x="150" y="30" width="10" height="10" fill="#ae1d6d"/><rect x="160" y="30" width="10" height="10" fill="#c3207b"/><rect x="170" y="30" width="10" height="10" fill="#e355a4"/><rect x="200" y="30" width="10" height="10" fill="#b91f74"/><rect x="220" y="30" width="10" height="10" fill="#b81e74"/><rect x="260" y="30" width="10" height="10" fill="#e0449b"/><rect x="270" y="30" width="10" height="10" fill="#c2207a"/><rect x="10" y="40" width="10" height="10" fill="#e1489d"/><rect x="30" y="40" width="10" height="10" fill="#e76db0"/><rect x="120" y="40" width="10" height="10" fill="#bb1f75"/><rect x="130" y="40" width="10" height="10" fill="#e97ab8"/><rect x="150" y="40" width="10" height="10" fill="#bd1f77"/><rect x="160" y="40" width="10" height="10" fill="#e353a3"/><rect x="170" y="40" width="10" height="10" fill="#e0439a"/><rect x="190" y="40" width="10" height="10" fill="#df3f98"/><rect x="210" y="40" width="10" height="10" fill="#e356a4"/><rect x="220" y="40" width="10" height="10" fill="#e1499d"/><rect x="230" y="40" width="10" height="10" fill="#e76eb1"/><rect x="250" y="40" width="10" height="10" fill="#e14a9e"/><rect x="0" y="50" width="10" height="10" fill="#bd1f77"/><rect x="10" y="50" width="10" height="10" fill="#c3207a"/><rect x="20" y="50" width="10" height="10" fill="#6a1243"/><rect x="40" y="50" width="10" height="10" fill="#63103e"/><rect x="80" y="50" width="10" height="10" fill="#8b1758"/><rect x="130" y="50" width="10" height="10" fill="#e1479c"/><rect x="160" y="50" width="10" height="10" fill="#b71e73"/><rect x="190" y="50" width="10" height="10" fill="#e355a4"/><rect x="200" y="50" width="10" height="10" fill="#ae1d6d"/><rect x="240" y="50" width="10" height="10" fill="#e563ab"/><rect x="250" y="50" width="10" height="10" fill="#e355a4"/><rect x="10" y="60" width="10" height="10" fill="#6a1243"/><rect x="20" y="60" width="10" height="10" fill="#c3207a"/><rect x="30" y="60" width="10" height="10" fill="#b61e73"/><rect x="50" y="60" width="10" height="10" fill="#ae1d6d"/><rect x="60" y="60" width="10" height="10" fill="#ea81bb"/><rect x="70" y="60" width="10" height="10" fill="#e873b4"/><rect x="80" y="60" width="10" height="10" fill="#e251a2"/><rect x="110" y="60" width="10" height="10" fill="#e354a3"/><rect x="120" y="60" width="10" height="10" fill="#e666ad"/><rect x="160" y="60" width="10" height="10" fill="#7a144d"/><rect x="200" y="60" width="10" height="10" fill="#e0449a"/><rect x="240" y="60" width="10" height="10" fill="#e668ae"/><rect x="250" y="60" width="10" height="10" fill="#c12079"/><rect x="260" y="60" width="10" height="10" fill="#bc1f76"/><rect x="270" y="60" width="10" height="10" fill="#b71e73"/><rect x="20" y="70" width="10" height="10" fill="#b41e71"/><rect x="50" y="70" width="10" height="10" fill="#e1489d"/><rect x="70" y="70" width="10" height="10" fill="#e0439a"/><rect x="80" y="70" width="10" height="10" fill="#b31e71"/><rect x="90" y="70" width="10" height="10" fill="#c02079"/><rect x="100" y="70" width="10" height="10" fill="#b11d6f"/><rect x="110" y="70" width="10" height="10" fill="#eb87bf"/><rect x="120" y="70" width="10" height="10" fill="#e14b9f"/><rect x="130" y="70" width="10" height="10" fill="#bc1f76"/><rect x="140" y="70" width="10" height="10" fill="#e251a2"/><rect x="150" y="70" width="10" height="10" fill="#e14a9e"/><rect x="160" y="70" width="10" height="10" fill="#ec8bc1"/><rect x="190" y="70" width="10" height="10" fill="#df3e97"/><rect x="200" y="70" width="10" height="10" fill="#77144b"/><rect x="210" y="70" width="10" height="10" fill="#e252a2"/><rect x="220" y="70" width="10" height="10" fill="#e667ad"/><rect x="270" y="70" width="10" height="10" fill="#e770b2"/><rect x="10" y="80" width="10" height="10" fill="#eb85bd"/><rect x="40" y="80" width="10" height="10" fill="#df3f98"/><rect x="60" y="80" width="10" height="10" fill="#e668ae"/><rect x="70" y="80" width="10" height="10" fill="#ae1d6d"/><rect x="80" y="80" width="10" height="10" fill="#e0449b"/><rect x="90" y="80" width="10" height="10" fill="#eb83bc"/><rect x="110" y="80" width="10" height="10" fill="#e97cb9"/><rect x="150" y="80" width="10" height="10" fill="#aa1c6b"/><rect x="230" y="80" width="10" height="10" fill="#c2207a"/><rect x="250" y="80" width="10" height="10" fill="#df3e97"/><rect x="10" y="90" width="10" height="10" fill="#5f103c"/><rect x="20" y="90" width="10" height="10" fill="#a91c6a"/><rect x="50" y="90" width="10" height="10" fill="#e97bb8"/><rect x="60" y="90" width="10" height="10" fill="#e770b2"/><rect x="80" y="90" width="10" height="10" fill="#a91c6a"/><rect x="120" y="90" width="10" height="10" fill="#e355a4"/><rect x="130" y="90" width="10" height="10" fill="#df3e97"/><rect x="140" y="90" width="10" height="10" fill="#e24da0"/><rect x="160" y="90" width="10" height="10" fill="#ea7db9"/><rect x="230" y="90" width="10" height="10" fill="#e24da0"/><rect x="240" y="90" width="10" height="10" fill="#590f38"/><rect x="260" y="90" width="10" height="10" fill="#b91e74"/><rect x="0" y="100" width="10" height="10" fill="#e357a5"/><rect x="40" y="100" width="10" height="10" fill="#a71c69"/><rect x="70" y="100" width="10" height="10" fill="#e14b9e"/><rect x="80" y="100" width="10" height="10" fill="#e251a2"/><rect x="100" y="100" width="10" height="10" fill="#e251a1"/><rect x="130" y="100" width="10" height="10" fill="#e357a5"/><rect x="140" y="100" width="10" height="10" fill="#831652"/><rect x="150" y="100" width="10" height="10" fill="#831652"/><rect x="180" y="100" width="10" height="10" fill="#e0459b"/><rect x="190" y="100" width="10" height="10" fill="#e356a5"/><rect x="210" y="100" width="10" height="10" fill="#e14c9f"/><rect x="240" y="100" width="10" height="10" fill="#ea7fba"/><rect x="250" y="100" width="10" height="10" fill="#df3c97"/><rect x="260" y="100" width="10" height="10" fill="#e872b3"/><rect x="0" y="110" width="10" height="10" fill="#e1479c"/><rect x="10" y="110" width="10" height="10" fill="#77144b"/><rect x="20" y="110" width="10" height="10" fill="#e251a2"/><rect x="30" y="110" width="10" height="10" fill="#e668ae"/><rect x="50" y="110" width="10" height="10" fill="#6f1246"/><rect x="70" y="110" width="10" height="10" fill="#e666ad"/><rect x="100" y="110" width="10" height="10" fill="#e1489d"/><rect x="140" y="110" width="10" height="10" fill="#ad1d6d"/><rect x="160" y="110" width="10" height="10" fill="#e563ab"/><rect x="170" y="110" width="10" height="10" fill="#df3e97"/><rect x="190" y="110" width="10" height="10" fill="#df3c96"/><rect x="230" y="110" width="10" height="10" fill="#bb1f76"/><rect x="250" y="110" width="10" height="10" fill="#ab1c6c"/><rect x="260" y="110" width="10" height="10" fill="#91185b"/><rect x="10" y="120" width="10" height="10" fill="#731348"/><rect x="20" y="120" width="10" height="10" fill="#e66aaf"/><rect x="40" y="120" width="10" height="10" fill="#df4099"/><rect x="50" y="120" width="10" height="10" fill="#e352a2"/><rect x="60" y="120" width="10" height="10" fill="#af1d6e"/><rect x="70" y="120" width="10" height="10" fill="#a61b68"/><rect x="80" y="120" width="10" height="10" fill="#e04199"/><rect x="110" y="120" width="10" height="10" fill="#e97ab7"/><rect x="120" y="120" width="10" height="10" fill="#e354a3"/><rect x="130" y="120" width="10" height="10" fill="#e0459b"/><rect x="140" y="120" width="10" height="10" fill="#df3c96"/><rect x="170" y="120" width="10" height="10" fill="#b01d6f"/><rect x="180" y="120" width="10" height="10" fill="#e0459b"/><rect x="230" y="120" width="10" height="10" fill="#eb84bd"/><rect x="260" y="120" width="10" height="10" fill="#be1f77"/><rect x="0" y="130" width="10" height="10" fill="#df3f98"/><rect x="10" y="130" width="10" height="10" fill="#e561aa"/><rect x="20" y="130" width="10" height="10" fill="#ea7eba"/><rect x="50" y="130" width="10" height="10" fill="#ea80bb"/><rect x="90" y="130" width="10" height="10" fill="#e0469c"/><rect x="110" y="130" width="10" height="10" fill="#bc1f76"/><rect x="130" y="130" width="10" height="10" fill="#a91c6a"/><rect x="140" y="130" width="10" height="10" fill="#b31e70"/><rect x="150" y="130" width="10" height="10" fill="#aa1c6b"/><rect x="190" y="130" width="10" height="10" fill="#ba1f75"/><rect x="200" y="130" width="10" height="10" fill="#bc1f76"/><rect x="210" y="130" width="10" height="10" fill="#79144c"/><rect x="220" y="130" width="10" height="10" fill="#e24c9f"/><rect x="230" y="130" width="10" height="10" fill="#b31e70"/><rect x="260" y="130" width="10" height="10" fill="#df3b96"/><rect x="270" y="130" width="10" height="10" fill="#bb1f75"/><rect x="0" y="140" width="10" height="10" fill="#e871b3"/><rect x="10" y="140" width="10" height="10" fill="#681141"/><rect x="30" y="140" width="10" height="10" fill="#c4207b"/><rect x="50" y="140" width="10" height="10" fill="#e0439a"/><rect x="70" y="140" width="10" height="10" fill="#b61e72"/><rect x="80" y="140" width="10" height="10" fill="#e250a1"/><rect x="90" y="140" width="10" height="10" fill="#c12079"/><rect x="100" y="140" width="10" height="10" fill="#ad1d6d"/><rect x="150" y="140" width="10" height="10" fill="#e358a5"/><rect x="190" y="140" width="10" height="10" fill="#721348"/><rect x="210" y="140" width="10" height="10" fill="#e873b4"/><rect x="220" y="140" width="10" height="10" fill="#751349"/><rect x="260" y="140" width="10" height="10" fill="#ba1f75"/><rect x="270" y="140" width="10" height="10" fill="#aa1c6b"/><rect x="10" y="150" width="10" height="10" fill="#e24fa1"/><rect x="20" y="150" width="10" height="10" fill="#e0449b"/><rect x="60" y="150" width="10" height="10" fill="#e24d9f"/><rect x="70" y="150" width="10" height="10" fill="#b71e73"/><rect x="80" y="150" width="10" height="10" fill="#b31e70"/><rect x="90" y="150" width="10" height="10" fill="#e979b7"/><rect x="100" y="150" width="10" height="10" fill="#e14c9f"/><rect x="130" y="150" width="10" height="10" fill="#af1d6e"/><rect x="140" y="150" width="10" height="10" fill="#e355a4"/><rect x="160" y="150" width="10" height="10" fill="#b51e72"/><rect x="210" y="150" width="10" height="10" fill="#b51e72"/><rect x="240" y="150" width="10" height="10" fill="#64103f"/><rect x="10" y="160" width="10" height="10" fill="#de3a95"/><rect x="30" y="160" width="10" height="10" fill="#ea82bc"/><rect x="40" y="160" width="10" height="10" fill="#e353a3"/><rect x="50" y="160" width="10" height="10" fill="#831653"/><rect x="60" y="160" width="10" height="10" fill="#5d0f3b"/><rect x="90" y="160" width="10" height="10" fill="#e1489d"/><rect x="100" y="160" width="10" height="10" fill="#851654"/><rect x="110" y="160" width="10" height="10" fill="#ad1d6d"/><rect x="120" y="160" width="10" height="10" fill="#e04299"/><rect x="130" y="160" width="10" height="10" fill="#e76cb0"/><rect x="140" y="160" width="10" height="10" fill="#eb87bf"/><rect x="150" y="160" width="10" height="10" fill="#df3b96"/><rect x="200" y="160" width="10" height="10" fill="#e252a2"/><rect x="220" y="160" width="10" height="10" fill="#c12079"/><rect x="230" y="160" width="10" height="10" fill="#c4207b"/><rect x="250" y="160" width="10" height="10" fill="#eb87bf"/><rect x="0" y="170" width="10" height="10" fill="#e668ae"/><rect x="70" y="170" width="10" height="10" fill="#651140"/><rect x="80" y="170" width="10" height="10" fill="#df3d97"/><rect x="100" y="170" width="10" height="10" fill="#e14c9f"/><rect x="120" y="170" width="10" height="10" fill="#7d154f"/><rect x="140" y="170" width="10" height="10" fill="#e355a4"/><rect x="160" y="170" width="10" height="10" fill="#df3b96"/><rect x="180" y="170" width="10" height="10" fill="#ec8ac0"/><rect x="200" y="170" width="10" height="10" fill="#ec8cc1"/><rect x="220" y="170" width="10" height="10" fill="#e76db1"/><rect x="230" y="170" width="10" height="10" fill="#5d0f3a"/><rect x="240" y="170" width="10" height="10" fill="#7b144d"/><rect x="250" y="170" width="10" height="10" fill="#e24fa0"/><rect x="260" y="170" width="10" height="10" fill="#df3b96"/><rect x="270" y="170" width="10" height="10" fill="#e252a2"/><rect x="0" y="180" width="10" height="10" fill="#e355a4"/><rect x="10" y="180" width="10" height="10" fill="#6d1244"/><rect x="30" y="180" width="10" height="10" fill="#df3f98"/><rect x="50" y="180" width="10" height="10" fill="#79144c"/><rect x="70" y="180" width="10" height="10" fill="#eb83bd"/><rect x="100" y="180" width="10" height="10" fill="#e04099"/><rect x="110" y="180" width="10" height="10" fill="#b11d6f"/><rect x="120" y="180" width="10" height="10" fill="#c02079"/><rect x="150" y="180" width="10" height="10" fill="#e04199"/><rect x="160" y="180" width="10" height="10" fill="#e0449b"/><rect x="180" y="180" width="10" height="10" fill="#b41e71"/><rect x="190" y="180" width="10" height="10" fill="#e977b6"/><rect x="200" y="180" width="10" height="10" fill="#e97bb8"/><rect x="220" y="180" width="10" height="10" fill="#e770b2"/><rect x="230" y="180" width="10" height="10" fill="#701246"/><rect x="240" y="180" width="10" height="10" fill="#8e1759"/><rect x="250" y="180" width="10" height="10" fill="#e0439a"/><rect x="260" y="180" width="10" height="10" fill="#a81c6a"/><rect x="270" y="180" width="10" height="10" fill="#e872b3"/><rect x="10" y="190" width="10" height="10" fill="#871655"/><rect x="20" y="190" width="10" height="10" fill="#b21d70"/><rect x="30" y="190" width="10" height="10" fill="#ae1d6e"/><rect x="70" y="190" width="10" height="10" fill="#af1d6e"/><rect x="80" y="190" width="10" height="10" fill="#731348"/><rect x="120" y="190" width="10" height="10" fill="#e24ea0"/><rect x="150" y="190" width="10" height="10" fill="#e251a2"/><rect x="160" y="190" width="10" height="10" fill="#8c1758"/><rect x="170" y="190" width="10" height="10" fill="#b61e73"/><rect x="180" y="190" width="10" height="10" fill="#e24ea0"/><rect x="200" y="190" width="10" height="10" fill="#e357a5"/><rect x="220" y="190" width="10" height="10" fill="#e358a5"/><rect x="230" y="190" width="10" height="10" fill="#e76cb0"/><rect x="240" y="190" width="10" height="10" fill="#a81c6a"/><rect x="260" y="190" width="10" height="10" fill="#e0429a"/><rect x="270" y="190" width="10" height="10" fill="#891756"/><rect x="0" y="200" width="10" height="10" fill="#a61b68"/><rect x="10" y="200" width="10" height="10" fill="#60103c"/><rect x="30" y="200" width="10" height="10" fill="#eb86be"/><rect x="80" y="200" width="10" height="10" fill="#e0469c"/><rect x="90" y="200" width="10" height="10" fill="#94185d"/><rect x="100" y="200" width="10" height="10" fill="#e1469c"/><rect x="110" y="200" width="10" height="10" fill="#570e37"/><rect x="120" y="200" width="10" height="10" fill="#ae1d6d"/><rect x="140" y="200" width="10" height="10" fill="#e04199"/><rect x="150" y="200" width="10" height="10" fill="#b31d70"/><rect x="200" y="200" width="10" height="10" fill="#e1479c"/><rect x="240" y="200" width="10" height="10" fill="#5b0f39"/><rect x="250" y="200" width="10" height="10" fill="#e357a5"/><rect x="30" y="210" width="10" height="10" fill="#e354a3"/><rect x="70" y="210" width="10" height="10" fill="#751349"/><rect x="80" y="210" width="10" height="10" fill="#811551"/><rect x="90" y="210" width="10" height="10" fill="#e24c9f"/><rect x="100" y="210" width="10" height="10" fill="#aa1c6b"/><rect x="140" y="210" width="10" height="10" fill="#b51e72"/><rect x="170" y="210" width="10" height="10" fill="#a61b69"/><rect x="190" y="210" width="10" height="10" fill="#76144a"/><rect x="220" y="210" width="10" height="10" fill="#ac1c6c"/><rect x="240" y="210" width="10" height="10" fill="#e561aa"/><rect x="250" y="210" width="10" height="10" fill="#e667ae"/><rect x="10" y="220" width="10" height="10" fill="#e877b6"/><rect x="30" y="220" width="10" height="10" fill="#b71e73"/><rect x="60" y="220" width="10" height="10" fill="#e355a4"/><rect x="70" y="220" width="10" height="10" fill="#e562ab"/><rect x="90" y="220" width="10" height="10" fill="#e1489d"/><rect x="100" y="220" width="10" height="10" fill="#a71c69"/><rect x="120" y="220" width="10" height="10" fill="#e04199"/><rect x="130" y="220" width="10" height="10" fill="#df3f98"/><rect x="150" y="220" width="10" height="10" fill="#b01d6f"/><rect x="160" y="220" width="10" height="10" fill="#e1469c"/><rect x="190" y="220" width="10" height="10" fill="#63103e"/><rect x="200" y="220" width="10" height="10" fill="#c2207a"/><rect x="240" y="220" width="10" height="10" fill="#e0439a"/><rect x="250" y="220" width="10" height="10" fill="#bf2078"/><rect x="60" y="230" width="10" height="10" fill="#e354a3"/><rect x="70" y="230" width="10" height="10" fill="#df3f98"/><rect x="80" y="230" width="10" height="10" fill="#df3e97"/><rect x="90" y="230" width="10" height="10" fill="#c4207b"/><rect x="110" y="230" width="10" height="10" fill="#e97ab8"/><rect x="150" y="230" width="10" height="10" fill="#c2207a"/><rect x="160" y="230" width="10" height="10" fill="#df3e98"/><rect x="170" y="230" width="10" height="10" fill="#c12079"/><rect x="200" y="230" width="10" height="10" fill="#93185c"/><rect x="220" y="230" width="10" height="10" fill="#ea7eba"/><rect x="240" y="230" width="10" height="10" fill="#e0439a"/><rect x="0" y="240" width="10" height="10" fill="#e250a1"/><rect x="10" y="240" width="10" height="10" fill="#e97cb9"/><rect x="30" y="240" width="10" height="10" fill="#e668ae"/><rect x="40" y="240" width="10" height="10" fill="#ec8cc1"/><rect x="50" y="240" width="10" height="10" fill="#e250a1"/><rect x="60" y="240" width="10" height="10" fill="#e24fa0"/><rect x="70" y="240" width="10" height="10" fill="#e24ea0"/><rect x="80" y="240" width="10" height="10" fill="#e1489d"/><rect x="120" y="240" width="10" height="10" fill="#df3d97"/><rect x="130" y="240" width="10" height="10" fill="#e1489d"/><rect x="140" y="240" width="10" height="10" fill="#e873b4"/><rect x="150" y="240" width="10" height="10" fill="#c02078"/><rect x="170" y="240" width="10" height="10" fill="#eb85bd"/><rect x="200" y="240" width="10" height="10" fill="#c2207a"/><rect x="210" y="240" width="10" height="10" fill="#e24ea0"/><rect x="220" y="240" width="10" height="10" fill="#570e37"/><rect x="230" y="240" width="10" height="10" fill="#c12079"/><rect x="240" y="240" width="10" height="10" fill="#bf2078"/><rect x="260" y="240" width="10" height="10" fill="#b51e72"/><rect x="0" y="250" width="10" height="10" fill="#eb86be"/><rect x="20" y="250" width="10" height="10" fill="#a61b68"/><rect x="30" y="250" width="10" height="10" fill="#df4098"/><rect x="40" y="250" width="10" height="10" fill="#e14a9e"/><rect x="60" y="250" width="10" height="10" fill="#c02079"/><rect x="80" y="250" width="10" height="10" fill="#7f1550"/><rect x="100" y="250" width="10" height="10" fill="#ac1c6c"/><rect x="150" y="250" width="10" height="10" fill="#ec8ac0"/><rect x="160" y="250" width="10" height="10" fill="#af1d6e"/><rect x="190" y="250" width="10" height="10" fill="#ac1c6c"/><rect x="230" y="250" width="10" height="10" fill="#b51e72"/><rect x="250" y="250" width="10" height="10" fill="#e356a4"/><rect x="260" y="250" width="10" height="10" fill="#ae1d6d"/><rect x="270" y="250" width="10" height="10" fill="#df3f98"/><rect x="0" y="260" width="10" height="10" fill="#e1479c"/><rect x="10" y="260" width="10" height="10" fill="#e562ab"/><rect x="60" y="260" width="10" height="10" fill="#e250a1"/><rect x="70" y="260" width="10" height="10" fill="#c2207a"/><rect x="90" y="260" width="10" height="10" fill="#e0449a"/><rect x="140" y="260" width="10" height="10" fill="#681141"/><rect x="150" y="260" width="10" height="10" fill="#90185b"/><rect x="170" y="260" width="10" height="10" fill="#e357a5"/><rect x="250" y="260" width="10" height="10" fill="#6c1244"/><rect x="260" y="260" width="10" height="10" fill="#b71e73"/><rect x="270" y="260" width="10" height="10" fill="#e0449b"/><rect x="10" y="270" width="10" height="10" fill="#af1d6e"/><rect x="40" y="270" width="10" height="10" fill="#e1499d"/><rect x="50" y="270" width="10" height="10" fill="#df3b96"/><rect x="80" y="270" width="10" height="10" fill="#ec8bc1"/><rect x="130" y="270" width="10" height="10" fill="#e250a1"/><rect x="140" y="270" width="10" height="10" fill="#e14c9f"/><rect x="150" y="270" width="10" height="10" fill="#df3f98"/><rect x="200" y="270" width="10" height="10" fill="#e354a3"/><rect x="210" y="270" width="10" height="10" fill="#711347"/><rect x="230" y="270" width="10" height="10" fill="#e24ea0"/><rect x="250" y="270" width="10" height="10" fill="#be1f78"/><rect x="260" y="270" width="10" height="10" fill="#e356a4"/><rect x="270" y="270" width="10" height="10" fill="#ea82bc"/><rect x="20" y="280" width="10" height="10" fill="#e876b5"/><rect x="60" y="280" width="10" height="10" fill="#7d154e"/><rect x="90" y="280" width="10" height="10" fill="#df3e97"/><rect x="110" y="280" width="10" height="10" fill="#b51e72"/><rect x="120" y="280" width="10" height="10" fill="#e04199"/><rect x="160" y="280" width="10" height="10" fill="#ea80bb"/><rect x="180" y="280" width="10" height="10" fill="#e24fa0"/><rect x="190" y="280" width="10" height="10" fill="#ad1d6d"/><rect x="240" y="280" width="10" height="10" fill="#b61e73"/><rect x="260" y="280" width="10" height="10" fill="#ba1f75"/><rect x="270" y="280" width="10" height="10" fill="#a81c6a"/><rect x="0" y="290" width="10" height="10" fill="#e979b7"/><rect x="20" y="290" width="10" height="10" fill="#e563ab"/><rect x="30" y="290" width="10" height="10" fill="#df3a95"/><rect x="50" y="290" width="10" height="10" fill="#ea7eba"/><rect x="60" y="290" width="10" height="10" fill="#df3f98"/><rect x="90" y="290" width="10" height="10" fill="#bd1f77"/><rect x="100" y="290" width="10" height="10" fill="#e353a3"/><rect x="140" y="290" width="10" height="10" fill="#e0439a"/><rect x="150" y="290" width="10" height="10" fill="#801550"/><rect x="160" y="290" width="10" height="10" fill="#e872b3"/><rect x="180" y="290" width="10" height="10" fill="#ae1d6d"/><rect x="190" y="290" width="10" height="10" fill="#e04099"/><rect x="240" y="290" width="10" height="10" fill="#eb86be"/><rect x="260" y="290" width="10" height="10" fill="#a61b68"/><rect x="270" y="290" width="10" height="10" fill="#e354a3"/><rect x="10" y="300" width="10" height="10" fill="#b11d6f"/><rect x="20" y="300" width="10" height="10" fill="#e1479c"/><rect x="30" y="300" width="10" height="10" fill="#e1499d"/><rect x="40" y="300" width="10" height="10" fill="#df3a96"/><rect x="50" y="300" width="10" height="10" fill="#be1f78"/><rect x="70" y="300" width="10" height="10" fill="#eb85bd"/><rect x="80" y="300" width="10" height="10" fill="#b71e73"/><rect x="150" y="300" width="10" height="10" fill="#ec8ac0"/><rect x="170" y="300" width="10" height="10" fill="#e354a3"/><rect x="180" y="300" width="10" height="10" fill="#731348"/><rect x="190" y="300" width="10" height="10" fill="#c12079"/><rect x="210" y="300" width="10" height="10" fill="#a91c6a"/><rect x="230" y="300" width="10" height="10" fill="#eb86be"/><rect x="250" y="300" width="10" height="10" fill="#e0429a"/><rect x="260" y="300" width="10" height="10" fill="#b81e74"/><rect x="270" y="300" width="10" height="10" fill="#ea80bb"/><rect x="20" y="310" width="10" height="10" fill="#e0469c"/><rect x="30" y="310" width="10" height="10" fill="#c02079"/><rect x="40" y="310" width="10" height="10" fill="#ec89c0"/><rect x="60" y="310" width="10" height="10" fill="#e24d9f"/><rect x="70" y="310" width="10" height="10" fill="#e668ae"/><rect x="80" y="310" width="10" height="10" fill="#ea81bc"/><rect x="90" y="310" width="10" height="10" fill="#b51e72"/><rect x="100" y="310" width="10" height="10" fill="#de3a95"/><rect x="120" y="310" width="10" height="10" fill="#e355a4"/><rect x="130" y="310" width="10" height="10" fill="#c02079"/><rect x="150" y="310" width="10" height="10" fill="#e1489d"/><rect x="160" y="310" width="10" height="10" fill="#af1d6e"/><rect x="170" y="310" width="10" height="10" fill="#eb87be"/><rect x="180" y="310" width="10" height="10" fill="#ac1c6c"/><rect x="190" y="310" width="10" height="10" fill="#871655"/><rect x="210" y="310" width="10" height="10" fill="#e76fb2"/><rect x="240" y="310" width="10" height="10" fill="#e354a3"/><rect x="0" y="320" width="10" height="10" fill="#be1f77"/><rect x="10" y="320" width="10" height="10" fill="#ec8ac0"/><rect x="20" y="320" width="10" height="10" fill="#e356a4"/><rect x="30" y="320" width="10" height="10" fill="#e876b6"/><rect x="40" y="320" width="10" height="10" fill="#df3d97"/><rect x="50" y="320" width="10" height="10" fill="#ec89c0"/><rect x="90" y="320" width="10" height="10" fill="#e04199"/><rect x="110" y="320" width="10" height="10" fill="#851654"/><rect x="120" y="320" width="10" height="10" fill="#e24fa1"/><rect x="130" y="320" width="10" height="10" fill="#e561aa"/><rect x="160" y="320" width="10" height="10" fill="#e252a2"/><rect x="170" y="320" width="10" height="10" fill="#eb88bf"/><rect x="180" y="320" width="10" height="10" fill="#e04099"/><rect x="190" y="320" width="10" height="10" fill="#ea7eba"/><rect x="200" y="320" width="10" height="10" fill="#e04199"/><rect x="220" y="320" width="10" height="10" fill="#731348"/><rect x="270" y="320" width="10" height="10" fill="#b21d70"/><rect x="20" y="330" width="10" height="10" fill="#e0439a"/><rect x="30" y="330" width="10" height="10" fill="#a61b68"/><rect x="50" y="330" width="10" height="10" fill="#b81e74"/><rect x="60" y="330" width="10" height="10" fill="#811551"/><rect x="70" y="330" width="10" height="10" fill="#b11d6f"/><rect x="80" y="330" width="10" height="10" fill="#8a1757"/><rect x="100" y="330" width="10" height="10" fill="#e252a2"/><rect x="110" y="330" width="10" height="10" fill="#df4099"/><rect x="120" y="330" width="10" height="10" fill="#e252a2"/><rect x="130" y="330" width="10" height="10" fill="#e97bb8"/><rect x="140" y="330" width="10" height="10" fill="#e04199"/><rect x="150" y="330" width="10" height="10" fill="#e0449b"/><rect x="160" y="330" width="10" height="10" fill="#a91c6a"/><rect x="170" y="330" width="10" height="10" fill="#c02079"/><rect x="180" y="330" width="10" height="10" fill="#e562ab"/><rect x="190" y="330" width="10" height="10" fill="#e76cb0"/><rect x="230" y="330" width="10" height="10" fill="#df3c96"/><rect x="260" y="330" width="10" height="10" fill="#e04299"/><rect x="20" y="340" width="10" height="10" fill="#701246"/><rect x="40" y="340" width="10" height="10" fill="#b81e74"/><rect x="50" y="340" width="10" height="10" fill="#e1499d"/><rect x="70" y="340" width="10" height="10" fill="#e0449b"/><rect x="80" y="340" width="10" height="10" fill="#e872b3"/><rect x="130" y="340" width="10" height="10" fill="#e355a4"/><rect x="140" y="340" width="10" height="10" fill="#e0449a"/><rect x="170" y="340" width="10" height="10" fill="#b01d6e"/><rect x="180" y="340" width="10" height="10" fill="#e14c9f"/><rect x="230" y="340" width="10" height="10" fill="#e354a3"/><rect x="250" y="340" width="10" height="10" fill="#e1489d"/><rect x="260" y="340" width="10" height="10" fill="#ea7eba"/><rect x="10" y="350" width="10" height="10" fill="#e66aaf"/><rect x="20" y="350" width="10" height="10" fill="#e252a2"/><rect x="30" y="350" width="10" height="10" fill="#691142"/><rect x="40" y="350" width="10" height="10" fill="#e1489d"/><rect x="50" y="350" width="10" height="10" fill="#df3d97"/><rect x="60" y="350" width="10" height="10" fill="#e565ac"/><rect x="70" y="350" width="10" height="10" fill="#ec8bc1"/><rect x="100" y="350" width="10" height="10" fill="#c3207b"/><rect x="110" y="350" width="10" height="10" fill="#b61e72"/><rect x="120" y="350" width="10" height="10" fill="#b21d70"/><rect x="130" y="350" width="10" height="10" fill="#bd1f76"/><rect x="140" y="350" width="10" height="10" fill="#df4099"/><rect x="150" y="350" width="10" height="10" fill="#df3b96"/><rect x="160" y="350" width="10" height="10" fill="#eb85bd"/><rect x="190" y="350" width="10" height="10" fill="#df3d97"/><rect x="200" y="350" width="10" height="10" fill="#bd1f77"/><rect x="210" y="350" width="10" height="10" fill="#a71c69"/><rect x="220" y="350" width="10" height="10" fill="#671141"/><rect x="240" y="350" width="10" height="10" fill="#df3d97"/><rect x="260" y="350" width="10" height="10" fill="#e0439a"/><rect x="270" y="350" width="10" height="10" fill="#e76eb1"/></svg>