<svg xmlns="http://www.w3.org/2000/svg" viewBox="0 0 280 360" width="280" height="360" shape-rendering="crispEdges" preserveAspectRatio="xMidYMid slice"><rect width="280" height="360" fill="#e8b824"/><rect x="10" y="0" width="10" height="10" fill="#ecc347"/><rect x="20" y="0" width="10" height="10" fill="#edc64f"/><rect x="50" y="0" width="10" height="10" fill="#d3a516"/><rect x="70" y="0" width="10" height="10" fill="#8a6c0f"/><rect x="80" y="0" width="10" height="10" fill="#cc9f15"/><rect x="90" y="0" width="10" height="10" fill="#ebc140"/><rect x="100" y="0" width="10" height="10" fill="#edc957"/><rect x="110" y="0" width="10" height="10" fill="#edc753"/><rect x="120" y="0" width="10" height="10" fill="#ebc03d"/><rect x="130" y="0" width="10" height="10" fill="#c89c15"/><rect x="160" y="0" width="10" height="10" fill="#f1d47a"/><rect x="170" y="0" width="10" height="10" fill="#bf9514"/><rect x="180" y="0" width="10" height="10" fill="#be9414"/><rect x="200" y="0" width="10" height="10" fill="#cda016"/><rect x="210" y="0" width="10" height="10" fill="#f3da8d"/><rect x="250" y="0" width="10" height="10" fill="#8d6e0f"/><rect x="260" y="0" width="10" height="10" fill="#ebc345"/><rect x="270" y="0" width="10" height="10" fill="#ecc448"/><rect x="10" y="10" width="10" height="10" fill="#ecc64e"/><rect x="20" y="10" width="10" height="10" fill="#f2d784"/><rect x="30" y="10" width="10" height="10" fill="#f3da8c"/><rect x="40" y="10" width="10" height="10" fill="#7d620d"/><rect x="60" y="10" width="10" height="10" fill="#f3db91"/><rect x="70" y="10" width="10" height="10" fill="#f2d57f"/><rect x="80" y="10" width="10" height="10" fill="#d5a616"/><rect x="90" y="10" width="10" height="10" fill="#c99d15"/><rect x="120" y="10" width="10" height="10" fill="#f4dc92"/><rect x="140" y="10" width="10" height="10" fill="#cea116"/><rect x="170" y="10" width="10" height="10" fill="#bf9514"/><rect x="190" y="10" width="10" height="10" fill="#ebc03d"/><rect x="200" y="10" width="10" height="10" fill="#d1a316"/><rect x="210" y="10" width="10" height="10" fill="#f4dc92"/><rect x="220" y="10" width="10" height="10" fill="#eeca5b"/><rect x="250" y="10" width="10" height="10" fill="#ebc03c"/><rect x="0" y="20" width="10" height="10" fill="#ebc140"/><rect x="20" y="20" width="10" height="10" fill="#f0d273"/><rect x="30" y="20" width="10" height="10" fill="#6f560c"/><rect x="60" y="20" width="10" height="10" fill="#edc650"/><rect x="70" y="20" width="10" height="10" fill="#ecc54d"/><rect x="80" y="20" width="10" height="10" fill="#eec959"/><rect x="90" y="20" width="10" height="10" fill="#ecc449"/><rect x="100" y="20" width="10" height="10" fill="#d4a516"/><rect x="120" y="20" width="10" height="10" fill="#87690e"/><rect x="130" y="20" width="10" height="10" fill="#eac03b"/><rect x="150" y="20" width="10" height="10" fill="#eac03c"/><rect x="160" y="20" width="10" height="10" fill="#edc650"/><rect x="180" y="20" width="10" height="10" fill="#ecc44a"/><rect x="190" y="20" width="10" height="10" fill="#ecc346"/><rect x="200" y="20" width="10" height="10" fill="#c49915"/><rect x="230" y="20" width="10" height="10" fill="#eeca5a"/><rect x="260" y="20" width="10" height="10" fill="#ecc345"/><rect x="20" y="30" width="10" height="10" fill="#ebc345"/><rect x="40" y="30" width="10" height="10" fill="#dbab17"/><rect x="50" y="30" width="10" height="10" fill="#edc753"/><rect x="80" y="30" width="10" height="10" fill="#d4a516"/><rect x="110" y="30" width="10" height="10" fill="#ebc13e"/><rect x="140" y="30" width="10" height="10" fill="#cda016"/><rect x="150" y="30" width="10" height="10" fill="#f0cf6c"/><rect x="170" y="30" width="10" height="10" fill="#edc958"/><rect x="210" y="30" width="10" height="10" fill="#ebc141"/><rect x="220" y="30" width="10" height="10" fill="#c09614"/><rect x="250" y="30" width="10" height="10" fill="#c79b15"/><rect x="260" y="30" width="10" height="10" fill="#d0a316"/><rect x="10" y="40" width="10" height="10" fill="#d3a516"/><rect x="60" y="40" width="10" height="10" fill="#f0cf6c"/><rect x="80" y="40" width="10" height="10" fill="#70570c"/><rect x="90" y="40" width="10" height="10" fill="#8d6e0f"/><rect x="100" y="40" width="10" height="10" fill="#6d550b"/><rect x="120" y="40" width="10" height="10" fill="#c09614"/><rect x="130" y="40" width="10" height="10" fill="#ecc54c"/><rect x="180" y="40" width="10" height="10" fill="#ebc244"/><rect x="190" y="40" width="10" height="10" fill="#daaa17"/><rect x="200" y="40" width="10" height="10" fill="#f2d785"/><rect x="210" y="40" width="10" height="10" fill="#f3da8e"/><rect x="220" y="40" width="10" height="10" fill="#f2d67f"/><rect x="240" y="40" width="10" height="10" fill="#d6a716"/><rect x="260" y="40" width="10" height="10" fill="#ecc54c"/><rect x="0" y="50" width="10" height="10" fill="#f2d681"/><rect x="30" y="50" width="10" height="10" fill="#f1d47b"/><rect x="40" y="50" width="10" height="10" fill="#d0a216"/><rect x="60" y="50" width="10" height="10" fill="#edc855"/><rect x="80" y="50" width="10" height="10" fill="#be9414"/><rect x="90" y="50" width="10" height="10" fill="#c19714"/><rect x="110" y="50" width="10" height="10" fill="#edc957"/><rect x="150" y="50" width="10" height="10" fill="#ecc449"/><rect x="170" y="50" width="10" height="10" fill="#dbab17"/><rect x="220" y="50" width="10" height="10" fill="#71590c"/><rect x="240" y="50" width="10" height="10" fill="#ebc345"/><rect x="270" y="50" width="10" height="10" fill="#ecc64e"/><rect x="40" y="60" width="10" height="10" fill="#edc752"/><rect x="90" y="60" width="10" height="10" fill="#edc854"/><rect x="110" y="60" width="10" height="10" fill="#c79c15"/><rect x="150" y="60" width="10" height="10" fill="#cea116"/><rect x="160" y="60" width="10" height="10" fill="#ecc44a"/><rect x="180" y="60" width="10" height="10" fill="#edc752"/><rect x="220" y="60" width="10" height="10" fill="#f3db90"/><rect x="240" y="60" width="10" height="10" fill="#f3d989"/><rect x="0" y="70" width="10" height="10" fill="#c69b15"/><rect x="10" y="70" width="10" height="10" fill="#f3d989"/><rect x="20" y="70" width="10" height="10" fill="#edc753"/><rect x="30" y="70" width="10" height="10" fill="#ebc13e"/><rect x="40" y="70" width="10" height="10" fill="#eac03b"/><rect x="60" y="70" width="10" height="10" fill="#daaa17"/><rect x="90" y="70" width="10" height="10" fill="#f0d06d"/><rect x="110" y="70" width="10" height="10" fill="#d8a817"/><rect x="120" y="70" width="10" height="10" fill="#c69a15"/><rect x="130" y="70" width="10" height="10" fill="#bd9314"/><rect x="140" y="70" width="10" height="10" fill="#edc855"/><rect x="160" y="70" width="10" height="10" fill="#cb9e15"/><rect x="170" y="70" width="10" height="10" fill="#d8a917"/><rect x="180" y="70" width="10" height="10" fill="#bd9414"/><rect x="210" y="70" width="10" height="10" fill="#edc856"/><rect x="250" y="70" width="10" height="10" fill="#edc753"/><rect x="40" y="80" width="10" height="10" fill="#eeca5b"/><rect x="60" y="80" width="10" height="10" fill="#d6a717"/><rect x="70" y="80" width="10" height="10" fill="#edc754"/><rect x="80" y="80" width="10" height="10" fill="#ecc54c"/><rect x="100" y="80" width="10" height="10" fill="#edc958"/><rect x="130" y="80" width="10" height="10" fill="#be9414"/><rect x="140" y="80" width="10" height="10" fill="#ecc449"/><rect x="150" y="80" width="10" height="10" fill="#d5a716"/><rect x="180" y="80" width="10" height="10" fill="#ebc345"/><rect x="200" y="80" width="10" height="10" fill="#eec95a"/><rect x="220" y="80" width="10" height="10" fill="#cea116"/><rect x="230" y="80" width="10" height="10" fill="#f2d680"/><rect x="40" y="90" width="10" height="10" fill="#d7a817"/><rect x="50" y="90" width="10" height="10" fill="#8a6c0e"/><rect x="60" y="90" width="10" height="10" fill="#ecc44a"/><rect x="70" y="90" width="10" height="10" fill="#c19714"/><rect x="80" y="90" width="10" height="10" fill="#ecc54b"/><rect x="90" y="90" width="10" height="10" fill="#c09614"/><rect x="110" y="90" width="10" height="10" fill="#bc9314"/><rect x="150" y="90" width="10" height="10" fill="#c69a15"/><rect x="160" y="90" width="10" height="10" fill="#72590c"/><rect x="210" y="90" width="10" height="10" fill="#c09614"/><rect x="220" y="90" width="10" height="10" fill="#f0d170"/><rect x="230" y="90" width="10" height="10" fill="#f0d273"/><rect x="250" y="90" width="10" height="10" fill="#d9a917"/><rect x="270" y="90" width="10" height="10" fill="#d2a416"/><rect x="10" y="100" width="10" height="10" fill="#edc751"/><rect x="70" y="100" width="10" height="10" fill="#eec95a"/><rect x="90" y="100" width="10" height="10" fill="#ebc13f"/><rect x="110" y="100" width="10" height="10" fill="#ebc13f"/><rect x="120" y="100" width="10" height="10" fill="#f3db8f"/><rect x="140" y="100" width="10" height="10" fill="#91710f"/><rect x="150" y="100" width="10" height="10" fill="#c39814"/><rect x="170" y="100" width="10" height="10" fill="#edc650"/><rect x="180" y="100" width="10" height="10" fill="#d3a516"/><rect x="190" y="100" width="10" height="10" fill="#bc9314"/><rect x="200" y="100" width="10" height="10" fill="#ecc54c"/><rect x="240" y="100" width="10" height="10" fill="#c69a15"/><rect x="250" y="100" width="10" height="10" fill="#ebc141"/><rect x="260" y="100" width="10" height="10" fill="#edc64f"/><rect x="0" y="110" width="10" height="10" fill="#f2d783"/><rect x="20" y="110" width="10" height="10" fill="#efcf6b"/><rect x="40" y="110" width="10" height="10" fill="#c89c15"/><rect x="50" y="110" width="10" height="10" fill="#edc650"/><rect x="100" y="110" width="10" height="10" fill="#c39814"/><rect x="110" y="110" width="10" height="10" fill="#edc753"/><rect x="150" y="110" width="10" height="10" fill="#efce67"/><rect x="160" y="110" width="10" height="10" fill="#ebc243"/><rect x="170" y="110" width="10" height="10" fill="#d0a216"/><rect x="200" y="110" width="10" height="10" fill="#edc854"/><rect x="220" y="110" width="10" height="10" fill="#d8a917"/><rect x="260" y="110" width="10" height="10" fill="#c49915"/><rect x="20" y="120" width="10" height="10" fill="#c19714"/><rect x="30" y="120" width="10" height="10" fill="#c89c15"/><rect x="70" y="120" width="10" height="10" fill="#ecc54d"/><rect x="100" y="120" width="10" height="10" fill="#daab17"/><rect x="110" y="120" width="10" height="10" fill="#bf9514"/><rect x="120" y="120" width="10" height="10" fill="#90700f"/><rect x="130" y="120" width="10" height="10" fill="#ecc64e"/><rect x="140" y="120" width="10" height="10" fill="#eeca5b"/><rect x="150" y="120" width="10" height="10" fill="#ebc345"/><rect x="160" y="120" width="10" height="10" fill="#f1d47b"/><rect x="170" y="120" width="10" height="10" fill="#edc753"/><rect x="190" y="120" width="10" height="10" fill="#c69b15"/><rect x="210" y="120" width="10" height="10" fill="#ecc44a"/><rect x="230" y="120" width="10" height="10" fill="#ebc03c"/><rect x="240" y="120" width="10" height="10" fill="#edc650"/><rect x="260" y="120" width="10" height="10" fill="#eeca5a"/><rect x="270" y="120" width="10" height="10" fill="#efcf6b"/><rect x="0" y="130" width="10" height="10" fill="#c79c15"/><rect x="50" y="130" width="10" height="10" fill="#eec959"/><rect x="70" y="130" width="10" height="10" fill="#f2d785"/><rect x="90" y="130" width="10" height="10" fill="#f2d680"/><rect x="100" y="130" width="10" height="10" fill="#f2d886"/><rect x="110" y="130" width="10" height="10" fill="#d0a316"/><rect x="120" y="130" width="10" height="10" fill="#bd9414"/><rect x="130" y="130" width="10" height="10" fill="#f1d379"/><rect x="140" y="130" width="10" height="10" fill="#cc9f15"/><rect x="210" y="130" width="10" height="10" fill="#ecc54c"/><rect x="230" y="130" width="10" height="10" fill="#ebc345"/><rect x="250" y="130" width="10" height="10" fill="#cea116"/><rect x="270" y="130" width="10" height="10" fill="#f2d886"/><rect x="20" y="140" width="10" height="10" fill="#ecc64e"/><rect x="60" y="140" width="10" height="10" fill="#d7a817"/><rect x="210" y="140" width="10" height="10" fill="#daaa17"/><rect x="250" y="140" width="10" height="10" fill="#9b7910"/><rect x="10" y="150" width="10" height="10" fill="#ecc346"/><rect x="40" y="150" width="10" height="10" fill="#d3a416"/><rect x="50" y="150" width="10" height="10" fill="#cca015"/><rect x="60" y="150" width="10" height="10" fill="#f0d172"/><rect x="90" y="150" width="10" height="10" fill="#c79b15"/><rect x="120" y="150" width="10" height="10" fill="#eeca5a"/><rect x="130" y="150" width="10" height="10" fill="#eac03b"/><rect x="190" y="150" width="10" height="10" fill="#edc958"/><rect x="210" y="150" width="10" height="10" fill="#8a6c0e"/><rect x="220" y="150" width="10" height="10" fill="#be9414"/><rect x="230" y="150" width="10" height="10" fill="#a68211"/><rect x="250" y="150" width="10" height="10" fill="#eec95a"/><rect x="0" y="160" width="10" height="10" fill="#d8a817"/><rect x="30" y="160" width="10" height="10" fill="#eec959"/><rect x="50" y="160" width="10" height="10" fill="#c49915"/><rect x="60" y="160" width="10" height="10" fill="#ca9d15"/><rect x="70" y="160" width="10" height="10" fill="#f1d275"/><rect x="100" y="160" width="10" height="10" fill="#cc9f15"/><rect x="130" y="160" width="10" height="10" fill="#c89c15"/><rect x="140" y="160" width="10" height="10" fill="#cfa216"/><rect x="170" y="160" width="10" height="10" fill="#dbab17"/><rect x="190" y="160" width="10" height="10" fill="#c69a15"/><rect x="220" y="160" width="10" height="10" fill="#c79b15"/><rect x="230" y="160" width="10" height="10" fill="#f3da8d"/><rect x="250" y="160" width="10" height="10" fill="#f2d886"/><rect x="20" y="170" width="10" height="10" fill="#a27e11"/><rect x="30" y="170" width="10" height="10" fill="#ebc13f"/><rect x="50" y="170" width="10" height="10" fill="#ebc243"/><rect x="80" y="170" width="10" height="10" fill="#ecc64e"/><rect x="110" y="170" width="10" height="10" fill="#9a7910"/><rect x="120" y="170" width="10" height="10" fill="#ecc449"/><rect x="130" y="170" width="10" height="10" fill="#c89c15"/><rect x="140" y="170" width="10" height="10" fill="#ca9e15"/><rect x="180" y="170" width="10" height="10" fill="#d8a917"/><rect x="200" y="170" width="10" height="10" fill="#9c7a10"/><rect x="210" y="170" width="10" height="10" fill="#efce69"/><rect x="240" y="170" width="10" height="10" fill="#c89c15"/><rect x="250" y="170" width="10" height="10" fill="#edc754"/><rect x="260" y="170" width="10" height="10" fill="#f0d275"/><rect x="270" y="170" width="10" height="10" fill="#ecc449"/><rect x="10" y="180" width="10" height="10" fill="#c89c15"/><rect x="20" y="180" width="10" height="10" fill="#d5a616"/><rect x="30" y="180" width="10" height="10" fill="#ecc44a"/><rect x="40" y="180" width="10" height="10" fill="#d9a917"/><rect x="80" y="180" width="10" height="10" fill="#edc753"/><rect x="100" y="180" width="10" height="10" fill="#ecc64f"/><rect x="130" y="180" width="10" height="10" fill="#93730f"/><rect x="180" y="180" width="10" height="10" fill="#f2d886"/><rect x="190" y="180" width="10" height="10" fill="#f4dc92"/><rect x="200" y="180" width="10" height="10" fill="#eec959"/><rect x="210" y="180" width="10" height="10" fill="#ecc449"/><rect x="220" y="180" width="10" height="10" fill="#6e560c"/><rect x="230" y="180" width="10" height="10" fill="#896b0e"/><rect x="240" y="180" width="10" height="10" fill="#cea116"/><rect x="250" y="180" width="10" height="10" fill="#6d550b"/><rect x="270" y="180" width="10" height="10" fill="#f0d06d"/><rect x="10" y="190" width="10" height="10" fill="#d2a416"/><rect x="20" y="190" width="10" height="10" fill="#edc650"/><rect x="40" y="190" width="10" height="10" fill="#d3a416"/><rect x="70" y="190" width="10" height="10" fill="#c39915"/><rect x="140" y="190" width="10" height="10" fill="#c59a15"/><rect x="150" y="190" width="10" height="10" fill="#69520b"/><rect x="160" y="190" width="10" height="10" fill="#f1d376"/><rect x="200" y="190" width="10" height="10" fill="#ecc54d"/><rect x="220" y="190" width="10" height="10" fill="#f0d172"/><rect x="240" y="190" width="10" height="10" fill="#f3d98a"/><rect x="270" y="190" width="10" height="10" fill="#dbab17"/><rect x="10" y="200" width="10" height="10" fill="#ecc54c"/><rect x="50" y="200" width="10" height="10" fill="#cca015"/><rect x="60" y="200" width="10" height="10" fill="#765c0c"/><rect x="70" y="200" width="10" height="10" fill="#a68211"/><rect x="130" y="200" width="10" height="10" fill="#ebc03e"/><rect x="160" y="200" width="10" height="10" fill="#cea116"/><rect x="200" y="200" width="10" height="10" fill="#edc751"/><rect x="210" y="200" width="10" height="10" fill="#f3d98a"/><rect x="240" y="200" width="10" height="10" fill="#c29714"/><rect x="250" y="200" width="10" height="10" fill="#edc856"/><rect x="260" y="200" width="10" height="10" fill="#ebc244"/><rect x="10" y="210" width="10" height="10" fill="#edc958"/><rect x="20" y="210" width="10" height="10" fill="#f1d47a"/><rect x="30" y="210" width="10" height="10" fill="#eec959"/><rect x="40" y="210" width="10" height="10" fill="#c89c15"/><rect x="60" y="210" width="10" height="10" fill="#ebc141"/><rect x="80" y="210" width="10" height="10" fill="#eeca5b"/><rect x="90" y="210" width="10" height="10" fill="#ecc448"/><rect x="120" y="210" width="10" height="10" fill="#cda016"/><rect x="130" y="210" width="10" height="10" fill="#9f7c11"/><rect x="150" y="210" width="10" height="10" fill="#ecc448"/><rect x="160" y="210" width="10" height="10" fill="#f3d98b"/><rect x="170" y="210" width="10" height="10" fill="#f2d681"/><rect x="190" y="210" width="10" height="10" fill="#ecc54d"/><rect x="220" y="210" width="10" height="10" fill="#be9414"/><rect x="240" y="210" width="10" height="10" fill="#ecc347"/><rect x="250" y="210" width="10" height="10" fill="#edc958"/><rect x="260" y="210" width="10" height="10" fill="#7f630d"/><rect x="0" y="220" width="10" height="10" fill="#f0d06d"/><rect x="20" y="220" width="10" height="10" fill="#d1a316"/><rect x="40" y="220" width="10" height="10" fill="#6c540b"/><rect x="100" y="220" width="10" height="10" fill="#a48011"/><rect x="140" y="220" width="10" height="10" fill="#edc753"/><rect x="150" y="220" width="10" height="10" fill="#c79b15"/><rect x="160" y="220" width="10" height="10" fill="#dbab17"/><rect x="180" y="220" width="10" height="10" fill="#a48011"/><rect x="220" y="220" width="10" height="10" fill="#ebc03d"/><rect x="240" y="220" width="10" height="10" fill="#9f7c11"/><rect x="250" y="220" width="10" height="10" fill="#f0d06d"/><rect x="260" y="220" width="10" height="10" fill="#7d620d"/><rect x="270" y="220" width="10" height="10" fill="#ebc140"/><rect x="10" y="230" width="10" height="10" fill="#d6a716"/><rect x="30" y="230" width="10" height="10" fill="#bf9514"/><rect x="50" y="230" width="10" height="10" fill="#86690e"/><rect x="90" y="230" width="10" height="10" fill="#977610"/><rect x="140" y="230" width="10" height="10" fill="#efce68"/><rect x="160" y="230" width="10" height="10" fill="#f4dc93"/><rect x="170" y="230" width="10" height="10" fill="#997710"/><rect x="190" y="230" width="10" height="10" fill="#896b0e"/><rect x="200" y="230" width="10" height="10" fill="#d1a316"/><rect x="230" y="230" width="10" height="10" fill="#c29814"/><rect x="240" y="230" width="10" height="10" fill="#ecc44a"/><rect x="250" y="230" width="10" height="10" fill="#ecc449"/><rect x="260" y="230" width="10" height="10" fill="#edc856"/><rect x="0" y="240" width="10" height="10" fill="#eec959"/><rect x="10" y="240" width="10" height="10" fill="#d6a716"/><rect x="20" y="240" width="10" height="10" fill="#72590c"/><rect x="70" y="240" width="10" height="10" fill="#8e6f0f"/><rect x="80" y="240" width="10" height="10" fill="#efcf6a"/><rect x="100" y="240" width="10" height="10" fill="#f3d989"/><rect x="110" y="240" width="10" height="10" fill="#7c610d"/><rect x="120" y="240" width="10" height="10" fill="#edc854"/><rect x="140" y="240" width="10" height="10" fill="#ecc449"/><rect x="160" y="240" width="10" height="10" fill="#ecc346"/><rect x="170" y="240" width="10" height="10" fill="#ecc347"/><rect x="200" y="240" width="10" height="10" fill="#eeca5b"/><rect x="210" y="240" width="10" height="10" fill="#f3da8c"/><rect x="220" y="240" width="10" height="10" fill="#d2a416"/><rect x="230" y="240" width="10" height="10" fill="#977610"/><rect x="250" y="240" width="10" height="10" fill="#edc753"/><rect x="270" y="240" width="10" height="10" fill="#ebc244"/><rect x="0" y="250" width="10" height="10" fill="#8b6d0f"/><rect x="20" y="250" width="10" height="10" fill="#edc957"/><rect x="30" y="250" width="10" height="10" fill="#87690e"/><rect x="50" y="250" width="10" height="10" fill="#ebc03d"/><rect x="70" y="250" width="10" height="10" fill="#c29814"/><rect x="90" y="250" width="10" height="10" fill="#f1d376"/><rect x="100" y="250" width="10" height="10" fill="#91710f"/><rect x="120" y="250" width="10" height="10" fill="#edc958"/><rect x="140" y="250" width="10" height="10" fill="#f2d885"/><rect x="170" y="250" width="10" height="10" fill="#ecc448"/><rect x="190" y="250" width="10" height="10" fill="#edc957"/><rect x="200" y="250" width="10" height="10" fill="#ebc140"/><rect x="230" y="250" width="10" height="10" fill="#ebc140"/><rect x="0" y="260" width="10" height="10" fill="#eec959"/><rect x="10" y="260" width="10" height="10" fill="#edc753"/><rect x="20" y="260" width="10" height="10" fill="#c09614"/><rect x="30" y="260" width="10" height="10" fill="#f1d479"/><rect x="40" y="260" width="10" height="10" fill="#ebc13f"/><rect x="50" y="260" width="10" height="10" fill="#f1d376"/><rect x="70" y="260" width="10" height="10" fill="#f0d172"/><rect x="90" y="260" width="10" height="10" fill="#c89c15"/><rect x="140" y="260" width="10" height="10" fill="#d6a716"/><rect x="170" y="260" width="10" height="10" fill="#ecc449"/><rect x="180" y="260" width="10" height="10" fill="#edc650"/><rect x="210" y="260" width="10" height="10" fill="#7c610d"/><rect x="240" y="260" width="10" height="10" fill="#bb9214"/><rect x="10" y="270" width="10" height="10" fill="#f3d98b"/><rect x="40" y="270" width="10" height="10" fill="#edc958"/><rect x="80" y="270" width="10" height="10" fill="#ebc03c"/><rect x="90" y="270" width="10" height="10" fill="#f1d57d"/><rect x="100" y="270" width="10" height="10" fill="#ebc03e"/><rect x="130" y="270" width="10" height="10" fill="#f1d57d"/><rect x="150" y="270" width="10" height="10" fill="#7e620d"/><rect x="160" y="270" width="10" height="10" fill="#ebc242"/><rect x="180" y="270" width="10" height="10" fill="#efcf6b"/><rect x="190" y="270" width="10" height="10" fill="#edc64f"/><rect x="210" y="270" width="10" height="10" fill="#be9414"/><rect x="220" y="270" width="10" height="10" fill="#f2d887"/><rect x="0" y="280" width="10" height="10" fill="#f0d06f"/><rect x="10" y="280" width="10" height="10" fill="#bd9414"/><rect x="30" y="280" width="10" height="10" fill="#f1d377"/><rect x="90" y="280" width="10" height="10" fill="#f3d98b"/><rect x="160" y="280" width="10" height="10" fill="#ecc346"/><rect x="200" y="280" width="10" height="10" fill="#ebc243"/><rect x="210" y="280" width="10" height="10" fill="#ebc242"/><rect x="220" y="280" width="10" height="10" fill="#ecc64f"/><rect x="240" y="280" width="10" height="10" fill="#cfa116"/><rect x="250" y="280" width="10" height="10" fill="#ecc64e"/><rect x="260" y="280" width="10" height="10" fill="#ecc449"/><rect x="0" y="290" width="10" height="10" fill="#c09614"/><rect x="20" y="290" width="10" height="10" fill="#ebc244"/><rect x="30" y="290" width="10" height="10" fill="#f2d784"/><rect x="50" y="290" width="10" height="10" fill="#bc9214"/><rect x="70" y="290" width="10" height="10" fill="#896b0e"/><rect x="90" y="290" width="10" height="10" fill="#d1a316"/><rect x="100" y="290" width="10" height="10" fill="#c99d15"/><rect x="120" y="290" width="10" height="10" fill="#edc857"/><rect x="140" y="290" width="10" height="10" fill="#edc957"/><rect x="170" y="290" width="10" height="10" fill="#edc856"/><rect x="200" y="290" width="10" height="10" fill="#ca9d15"/><rect x="220" y="290" width="10" height="10" fill="#f3da8d"/><rect x="230" y="290" width="10" height="10" fill="#eeca5b"/><rect x="240" y="290" width="10" height="10" fill="#c39815"/><rect x="270" y="290" width="10" height="10" fill="#edc753"/><rect x="20" y="300" width="10" height="10" fill="#ebc243"/><rect x="30" y="300" width="10" height="10" fill="#ecc54d"/><rect x="60" y="300" width="10" height="10" fill="#ecc345"/><rect x="70" y="300" width="10" height="10" fill="#d6a716"/><rect x="110" y="300" width="10" height="10" fill="#ebc13f"/><rect x="150" y="300" width="10" height="10" fill="#ebc140"/><rect x="170" y="300" width="10" height="10" fill="#eec959"/><rect x="180" y="300" width="10" height="10" fill="#f1d57c"/><rect x="230" y="300" width="10" height="10" fill="#a17e11"/><rect x="240" y="300" width="10" height="10" fill="#8a6c0e"/><rect x="270" y="300" width="10" height="10" fill="#9d7a10"/><rect x="0" y="310" width="10" height="10" fill="#ecc54c"/><rect x="30" y="310" width="10" height="10" fill="#765c0c"/><rect x="40" y="310" width="10" height="10" fill="#be9514"/><rect x="60" y="310" width="10" height="10" fill="#c39815"/><rect x="90" y="310" width="10" height="10" fill="#94730f"/><rect x="100" y="310" width="10" height="10" fill="#d6a716"/><rect x="110" y="310" width="10" height="10" fill="#ebc244"/><rect x="120" y="310" width="10" height="10" fill="#ecc347"/><rect x="130" y="310" width="10" height="10" fill="#f2d887"/><rect x="140" y="310" width="10" height="10" fill="#edc751"/><rect x="160" y="310" width="10" height="10" fill="#d3a516"/><rect x="170" y="310" width="10" height="10" fill="#ecc64e"/><rect x="210" y="310" width="10" height="10" fill="#ebc242"/><rect x="220" y="310" width="10" height="10" fill="#cb9f15"/><rect x="230" y="310" width="10" height="10" fill="#72590c"/><rect x="240" y="310" width="10" height="10" fill="#cfa216"/><rect x="260" y="310" width="10" height="10" fill="#edc753"/><rect x="270" y="310" width="10" height="10" fill="#f0d06e"/><rect x="10" y="320" width="10" height="10" fill="#795e0d"/><rect x="30" y="320" width="10" height="10" fill="#d7a817"/><rect x="40" y="320" width="10" height="10" fill="#edc651"/><rect x="50" y="320" width="10" height="10" fill="#ebc140"/><rect x="70" y="320" width="10" height="10" fill="#edc958"/><rect x="110" y="320" width="10" height="10" fill="#cfa116"/><rect x="130" y="320" width="10" height="10" fill="#81650e"/><rect x="150" y="320" width="10" height="10" fill="#dbab17"/><rect x="170" y="320" width="10" height="10" fill="#ebc141"/><rect x="190" y="320" width="10" height="10" fill="#ecc346"/><rect x="200" y="320" width="10" height="10" fill="#a27f11"/><rect x="210" y="320" width="10" height="10" fill="#cfa216"/><rect x="220" y="320" width="10" height="10" fill="#cda016"/><rect x="230" y="320" width="10" height="10" fill="#ecc346"/><rect x="260" y="320" width="10" height="10" fill="#d0a316"/><rect x="30" y="330" width="10" height="10" fill="#ecc54d"/><rect x="40" y="330" width="10" height="10" fill="#ebc344"/><rect x="90" y="330" width="10" height="10" fill="#ebc244"/><rect x="100" y="330" width="10" height="10" fill="#c89c15"/><rect x="110" y="330" width="10" height="10" fill="#edc753"/><rect x="120" y="330" width="10" height="10" fill="#ecc449"/><rect x="150" y="330" width="10" height="10" fill="#cb9f15"/><rect x="170" y="330" width="10" height="10" fill="#f2d67f"/><rect x="180" y="330" width="10" height="10" fill="#ecc449"/><rect x="200" y="330" width="10" height="10" fill="#9e7b11"/><rect x="220" y="330" width="10" height="10" fill="#a17e11"/><rect x="260" y="330" width="10" height="10" fill="#f1d378"/><rect x="20" y="340" width="10" height="10" fill="#bf9514"/><rect x="30" y="340" width="10" height="10" fill="#efce67"/><rect x="40" y="340" width="10" height="10" fill="#ebc345"/><rect x="90" y="340" width="10" height="10" fill="#ebc03e"/><rect x="100" y="340" width="10" height="10" fill="#a68211"/><rect x="110" y="340" width="10" height="10" fill="#9c7a10"/><rect x="130" y="340" width="10" height="10" fill="#ca9e15"/><rect x="140" y="340" width="10" height="10" fill="#cb9f15"/><rect x="150" y="340" width="10" height="10" fill="#ebc03e"/><rect x="160" y="340" width="10" height="10" fill="#ecc54c"/><rect x="170" y="340" width="10" height="10" fill="#a88312"/><rect x="190" y="340" width="10" height="10" fill="#eec959"/><rect x="210" y="340" width="10" height="10" fill="#c99d15"/><rect x="240" y="340" width="10" height="10" fill="#ebc03c"/><rect x="260" y="340" width="10" height="10" fill="#d3a516"/><rect x="20" y="350" width="10" height="10" fill="#edc753"/><rect x="30" y="350" width="10" height="10" fill="#8a6c0e"/><rect x="80" y="350" width="10" height="10" fill="#ecc64f"/><rect x="130" y="350" width="10" height="10" fill="#ebc243"/><rect x="140" y="350" width="10" height="10" fill="#f2d57f"/><rect x="180" y="350" width="10" height="10" fill="#c39814"/><rect x="200" y="350" width="10" height="10" fill="#d3a416"/><rect x="240" y="350" width="10" height="10" fill="#edc650"/><rect x="250" y="350" width="10" height="10" fill="#d8a917"/><rect x="260" y="350" width="10" height="10" fill="#cc9f15"/></svg>